<svg width="49" height="50" fill="none" xmlns="http://www.w3.org/2000/svg"><g clip-path="url(#clip0_334_2130)" fill="#fff" fill-opacity=".8"><path d="M38.384 36.953c.92.237 1.848.467 2.776.69.15.036.385.068.535-.028a.316.316 0 00.125-.37c-.134-.412-.61-.723-1.017-.82-.928-.224-1.852-.45-2.776-.691-.146-.039-.385-.067-.535.028a.316.316 0 00-.124.37c.133.419.61.716 1.016.82zm-6.098-1.752c.903.292 1.815.57 2.73.832.142.041.388.063.535-.029a.316.316 0 00.124-.37c-.136-.422-.61-.702-1.016-.82a111.36 111.36 0 01-2.73-.832c-.138-.045-.395-.064-.535.028a.316.316 0 00-.125.37c.14.433.61.685 1.017.821zm-8.741-3.423c1.65.789 3.336 1.5 5.05 2.145.236.09.848.254.897-.175.045-.397-.506-.78-.812-.895a62.082 62.082 0 01-5.051-2.145c-.227-.11-.852-.237-.897.175-.045.411.512.75.813.895zm-10.012-6.44c2.053 1.778 4.3 3.335 6.662 4.693.25.142.849.415 1.079.07.23-.345-.332-.784-.544-.908-2.223-1.275-4.322-2.732-6.25-4.4-.249-.214-.841-.539-1.188-.31-.365.245.048.692.238.858l.003-.003zM6.47 16.842a33.369 33.369 0 004.45 5.98c.277.297.764.61 1.206.52.442-.09.279-.534.075-.75a30.947 30.947 0 01-4.203-5.654c-.219-.372-.71-.669-1.148-.691-.394-.02-.575.254-.38.595zM3.761 7.785a22.625 22.625 0 001.166 5.551c.144.41.596.73 1.016.821.265.056.806.028.66-.398A21.599 21.599 0 015.47 8.506c-.037-.425-.436-.75-.813-.895-.171-.066-.933-.258-.897.174z"/><path d="M39.959 34.497c2.306 1.437 4.612 2.874 6.915 4.314l-.468-1.045c-1.066.84-2.4.899-3.67 1.04-1.269.143-2.62.38-3.62 1.364-.258.256.297.739.446.839.214.148.817.483 1.085.238.992-.898 2.293-1.006 3.535-1.134 1.24-.129 2.652-.28 3.708-1.123.437-.351-.195-.879-.467-1.045-2.31-1.433-4.616-2.87-6.926-4.303-.248-.156-.875-.423-1.112-.07-.238.352.344.797.56.932l.014-.007z"/></g><defs><clipPath id="clip0_334_2130"><path fill="#fff" transform="rotate(46.822 5.96 13.766)" d="M0 0h53.046v16.346H0z"/></clipPath></defs></svg>