<svg width="55" height="41" fill="none" xmlns="http://www.w3.org/2000/svg"><g clip-path="url(#clip0_334_2106)" fill="#fff" fill-opacity=".8"><path d="M42.013 9.18c.44-.841.877-1.692 1.306-2.545.068-.137.153-.359.094-.527a.316.316 0 00-.332-.206c-.431.036-.843.43-1.03.803-.43.853-.862 1.701-1.306 2.546-.071.133-.153.359-.094.526.05.144.19.218.331.206.438-.034.837-.43 1.031-.802zm-3.096 5.539c.49-.813.969-1.637 1.432-2.469.073-.129.15-.363.094-.527a.316.316 0 00-.332-.206c-.442.037-.823.435-1.03.803a112.97 112.97 0 01-1.433 2.469c-.075.124-.151.37-.094.527.05.143.192.217.332.206.453-.037.806-.437 1.03-.803zm-5.325 7.731a63.925 63.925 0 003.24-4.43c.14-.208.44-.767.034-.912-.377-.134-.876.315-1.057.587a62.08 62.08 0 01-3.24 4.428c-.16.196-.425.776-.035.913.39.138.847-.327 1.058-.587zm-8.554 8.28c2.2-1.594 4.228-3.427 6.089-5.418.195-.21.598-.73.314-1.034-.284-.302-.839.145-1.008.323-1.749 1.874-3.645 3.585-5.71 5.082-.264.194-.716.696-.572 1.086.155.412.685.111.89-.036l-.003-.004zm-9.882 4.938a33.37 33.37 0 006.838-2.968c.351-.203.768-.605.78-1.056.013-.45-.456-.393-.713-.244a30.949 30.949 0 01-6.463 2.803c-.412.129-.813.539-.935.96-.108.38.117.619.493.505zm-9.436.574c1.89.28 3.794.327 5.671.13.43-.046.846-.413 1.03-.802.116-.245.211-.778-.237-.733a21.595 21.595 0 01-5.372-.096c-.423-.06-.83.255-1.057.588-.103.152-.464.85-.035.913z"/><path d="M39.98 7.088c1.926-1.918 3.85-3.836 5.778-5.75l-1.124.217c.574 1.23.328 2.542.176 3.81-.15 1.268-.227 2.638.502 3.835.19.311.787-.12.919-.242.193-.175.657-.684.479-1.002-.648-1.17-.456-2.462-.298-3.7.158-1.238.332-2.646-.248-3.867-.243-.505-.9-.01-1.124.217-1.922 1.922-3.847 3.84-5.77 5.762-.207.207-.61.756-.32 1.067.288.312.854-.153 1.034-.332l-.003-.015z"/></g><defs><clipPath id="clip0_334_2106"><path fill="#fff" transform="rotate(-30 49.493 13.262)" d="M0 0h53.046v16.346H0z"/></clipPath></defs></svg>