<svg width="56" height="30" fill="none" xmlns="http://www.w3.org/2000/svg"><g clip-path="url(#clip0_334_2122)" fill="#fff" fill-opacity=".8"><path d="M10.4 7.852c-.644-.7-1.285-1.409-1.92-2.121-.102-.115-.24-.307-.227-.485a.316.316 0 01.267-.285c.426-.076.925.197 1.203.509.635.713 1.272 1.42 1.92 2.121.103.11.24.307.227.484a.316.316 0 01-.267.285c-.432.08-.919-.2-1.203-.508zm4.423 4.548a82.052 82.052 0 01-2.022-2.014c-.104-.105-.239-.312-.227-.485a.316.316 0 01.267-.284c.437-.08.908.207 1.204.508.663.679 1.339 1.35 2.022 2.014.105.1.242.318.227.485a.316.316 0 01-.267.284c-.447.082-.892-.213-1.204-.508zm7.146 6.088a63.874 63.874 0 01-4.276-3.439c-.19-.165-.624-.627-.27-.873.33-.227.928.078 1.173.294a62.078 62.078 0 004.276 3.44c.205.147.611.638.27.872-.342.234-.903-.097-1.173-.294zm10.405 5.784c-2.538-.969-4.971-2.215-7.284-3.656-.242-.153-.766-.551-.57-.917.195-.366.847-.078 1.057.05 2.174 1.358 4.449 2.52 6.83 3.432.306.118.872.487.834.9-.044.438-.633.285-.869.196l.002-.005zm10.823 2.213a33.367 33.367 0 01-7.372-1.097c-.393-.105-.9-.385-1.028-.818-.129-.432.339-.498.626-.42a30.95 30.95 0 006.969 1.035c.43.017.924.31 1.15.686.203.338.048.627-.345.614zm9.263-1.888a22.62 22.62 0 01-5.444 1.595c-.428.066-.924-.181-1.203-.509-.175-.207-.405-.697.04-.77a21.6 21.6 0 005.164-1.482c.393-.169.867.03 1.173.293.14.12.668.701.27.873z"/><path d="M11.82 5.304a4580.97 4580.97 0 00-7.067-4.058l1.141-.082c-.236 1.337.341 2.54.816 3.726.474 1.186.902 2.489.508 3.835-.104.35-.792.087-.95.004-.232-.12-.812-.492-.722-.845.323-1.298-.197-2.496-.67-3.65-.473-1.155-1.005-2.47-.762-3.8.104-.55.867-.243 1.142-.081 2.354 1.359 4.71 2.713 7.064 4.072.255.146.786.572.587.948-.198.375-.865.073-1.086-.053v-.016z"/></g><defs><clipPath id="clip0_334_2122"><path fill="#fff" transform="scale(-1 1) rotate(-15 24.408 217.532)" d="M0 0h53.046v16.346H0z"/></clipPath></defs></svg>