<svg width="56" height="37" fill="none" xmlns="http://www.w3.org/2000/svg"><g clip-path="url(#clip0_334_2114)" fill="#fff" fill-opacity=".8"><path d="M43.62 27.72c.527.79 1.051 1.59 1.569 2.393.082.129.19.34.15.513a.316.316 0 01-.309.24c-.433.01-.884-.336-1.11-.688-.518-.802-1.037-1.6-1.57-2.392-.084-.125-.19-.341-.149-.514a.316.316 0 01.308-.24c.44-.013.877.34 1.11.688zm-3.668-5.177a82.263 82.263 0 011.687 2.302c.086.12.188.346.15.514a.316.316 0 01-.309.24c-.444.011-.864-.345-1.11-.688a111.626 111.626 0 00-1.687-2.303c-.088-.115-.19-.351-.15-.514a.316.316 0 01.309-.24c.454-.011.848.349 1.11.689zm-6.118-7.12a63.856 63.856 0 013.693 4.059c.162.192.52.716.131.904-.36.173-.904-.22-1.113-.471a62.052 62.052 0 00-3.693-4.06c-.18-.177-.505-.725-.132-.904.374-.178.877.236 1.114.472zM24.449 8.1c2.356 1.35 4.568 2.957 6.63 4.738.216.189.672.664.422.995-.25.331-.849-.054-1.036-.214-1.938-1.677-4.006-3.177-6.218-4.446-.284-.164-.786-.616-.685-1.019.11-.425.67-.183.889-.059l-.002.005zM14.097 4.24a33.37 33.37 0 017.114 2.224c.372.164.829.52.89.967.06.446-.412.44-.685.319a30.947 30.947 0 00-6.724-2.1c-.423-.084-.866-.45-1.032-.856-.148-.366.051-.627.437-.554zm-9.443.433c1.85-.48 3.737-.729 5.624-.733.434 0 .886.321 1.11.688.141.231.293.752-.158.754a21.598 21.598 0 00-5.331.667c-.414.106-.852-.165-1.114-.472-.119-.14-.551-.795-.131-.904z"/><path d="M41.822 30.018a4430.17 4430.17 0 006.355 5.102l-1.14-.096c.44-1.284.055-2.562-.23-3.807-.285-1.245-.507-2.599.091-3.867.156-.33.795.035.939.143.211.153.726.61.583.946-.52 1.232-.192 2.496.097 3.71.289 1.214.612 2.596.165 3.871-.187.529-.894.106-1.14-.095-2.116-1.707-4.234-3.41-6.35-5.116-.228-.184-.687-.687-.433-1.027.254-.34.866.061 1.064.22l-.001.016z"/></g><defs><clipPath id="clip0_334_2114"><path fill="#fff" transform="scale(1 -1) rotate(-23.894 -35.316 -7.473)" d="M0 0h53.046v16.346H0z"/></clipPath></defs></svg>