<svg width="30" height="30" fill="none" xmlns="http://www.w3.org/2000/svg"><path d="M27 15c0 6.627-5.373 12-12 12S3 21.627 3 15 8.373 3 15 3s12 5.373 12 12zM5.639 15a9.361 9.361 0 1018.722 0A9.361 9.361 0 005.64 15z" fill="#F0F1F2"/><path fill-rule="evenodd" clip-rule="evenodd" d="M14.126 3.013c-.202.022-.723.093-1.157.158-.434.066-1.209.26-1.721.43-.513.17-1.313.51-1.777.755-.465.246-1.135.663-1.488.927-.354.264-.92.748-1.26 1.076-.338.327-.883.956-1.21 1.397-.327.44-.79 1.186-1.03 1.656a16.58 16.58 0 00-.704 1.624 14.18 14.18 0 00-.447 1.71c-.105.558-.178 1.464-.178 2.224 0 .746.072 1.666.173 2.199.095.504.285 1.25.421 1.656.137.408.44 1.127.674 1.599.233.472.706 1.241 1.049 1.71.343.469.96 1.172 1.37 1.564.41.392 1.022.902 1.36 1.135.336.232.99.615 1.454.851.463.236 1.222.552 1.688.7.465.15 1.128.32 1.473.379.344.058.946.136 1.336.172l.71.065v-.475c0-.326-.106-.684-.342-1.147-.215-.422-.508-.8-.785-1.015-.244-.189-.831-.47-1.305-.627a12.834 12.834 0 01-1.503-.611c-.353-.18-.854-.476-1.114-.656a10.4 10.4 0 01-.987-.814 10.667 10.667 0 01-.965-1.081 11.939 11.939 0 01-.822-1.283 10.874 10.874 0 01-.64-1.529c-.147-.463-.269-.956-.269-1.095v-.254h5.881l-.152-.37c-.084-.204-.153-.687-.153-1.073 0-.386.069-.868.152-1.07l.152-.37-2.98-.028-2.981-.028.2-.802c.11-.44.412-1.234.672-1.763.26-.53.723-1.273 1.028-1.654.305-.38.875-.966 1.267-1.3.392-.335 1.08-.803 1.528-1.04a12.295 12.295 0 011.757-.72c.82-.253 1.124-.291 2.362-.294 1.034-.003 1.62.049 2.157.189.404.106 1.33.476 2.056.822 1.112.531 1.41.63 1.9.63.32 0 .792-.074 1.049-.164.256-.09.627-.3.824-.466.231-.193.337-.36.297-.466-.034-.091-.394-.437-.8-.77a14.198 14.198 0 00-1.558-1.082 15.133 15.133 0 00-1.664-.808 12.845 12.845 0 00-1.789-.522 15.664 15.664 0 00-1.894-.24c-.52-.027-1.112-.032-1.315-.01zm-.608 5.967c-.306.075-.898.31-1.315.522-.418.213-.94.544-1.159.736l-.399.35 1 1.01c.94.947 1.011.998 1.189.835.103-.096.448-.297.767-.447.446-.211.745-.274 1.314-.274.57 0 .868.063 1.315.274.318.15.663.351.767.447.177.163.25.112 1.189-.836l1-1.009-.4-.351c-.22-.193-.778-.538-1.24-.765-.463-.228-1.093-.467-1.4-.53a7.452 7.452 0 00-1.315-.108 7.096 7.096 0 00-1.313.146zm.831 3.81c-.195.06-.469.185-.607.277-.251.167-.252.174-.223 1.938l.029 1.77.368.22c.26.154.553.219 1 .219.446 0 .738-.065.999-.22l.368-.219v-3.6l-.368-.194a2.789 2.789 0 00-.79-.246 2.231 2.231 0 00-.776.056zm-2.733 5.585l-.98 1 .4.335c.22.184.714.502 1.098.707a7 7 0 001.372.534c.37.089 1.004.162 1.41.162a7.21 7.21 0 001.394-.158 7.43 7.43 0 001.367-.523c.39-.2.89-.525 1.11-.722l.4-.358-.994-1.002-.994-1.003-.36.28a3.71 3.71 0 01-.826.45c-.257.094-.75.172-1.098.172-.347 0-.84-.078-1.097-.172a3.63 3.63 0 01-.809-.437c-.188-.146-.358-.265-.377-.265-.02 0-.477.45-1.016 1z" fill="#FFBB17"/></svg>