<svg width="30" height="30" fill="none" xmlns="http://www.w3.org/2000/svg"><path fill-rule="evenodd" clip-rule="evenodd" d="M4 3.153C4 3.236 5.03 8.6 6.29 15.074c1.26 6.473 2.29 11.805 2.29 11.848 0 .043.818.078 1.816.078h1.815l.196-1.048c.107-.576.746-4.115 1.42-7.865.675-3.75 1.255-6.79 1.29-6.755.036.034.745 3.56 1.577 7.834l1.512 7.77 1.797.036c1.39.027 1.797-.002 1.797-.127.001-.09.967-5.448 2.148-11.908 1.18-6.46 2.103-11.791 2.05-11.845-.053-.055-.946-.083-1.984-.064l-1.887.035-1.205 7.556a1928.2 1928.2 0 01-1.222 7.62c-.01.034-.651-3.286-1.424-7.378-.774-4.092-1.444-7.535-1.49-7.65-.07-.18-.317-.211-1.715-.211-.898 0-1.66.045-1.696.1-.035.055-.661 3.469-1.392 7.587-.73 4.117-1.354 7.51-1.384 7.54-.03.03-.055.005-.055-.055s-.562-3.37-1.25-7.354c-.687-3.986-1.304-7.375-1.37-7.532C7.803 3.008 7.747 3 5.9 3 4.508 3 4 3.04 4 3.153z" fill="#2F70AC"/></svg>