<svg width="194" height="34" fill="none" xmlns="http://www.w3.org/2000/svg"><path d="M49.33 34c-2.297 0-4.133-.44-5.505-1.317-1.373-.878-2.354-2.127-2.942-3.746-.589-1.646-.883-3.567-.883-5.763V10.538c0-2.196.294-4.076.883-5.64.616-1.591 1.597-2.799 2.942-3.622C45.197.426 47.033 0 49.33 0c2.298 0 4.119.425 5.464 1.276 1.345.85 2.311 2.058 2.9 3.622.616 1.564.924 3.444.924 5.64v12.677c0 2.168-.308 4.062-.924 5.68-.589 1.62-1.555 2.882-2.9 3.788C53.449 33.56 51.628 34 49.33 34zm0-3.663c1.261 0 2.214-.247 2.858-.741.645-.522 1.079-1.235 1.303-2.14.224-.934.336-2.018.336-3.253V9.591c0-1.235-.112-2.292-.336-3.17-.224-.905-.658-1.591-1.303-2.058-.644-.494-1.597-.74-2.858-.74-1.26 0-2.227.246-2.9.74-.644.467-1.078 1.153-1.303 2.058-.224.878-.336 1.935-.336 3.17v14.612c0 1.235.112 2.32.336 3.252.225.906.659 1.62 1.303 2.14.673.495 1.64.742 2.9.742zm13.578 3.293V9.837h4.497v2.346c.813-.74 1.71-1.372 2.69-1.893.98-.522 2.06-.783 3.236-.783.98 0 1.723.247 2.227.741a3.791 3.791 0 011.093 1.853c.224.74.336 1.495.336 2.264V33.63H72.49V15.642c0-.851-.126-1.51-.378-1.976-.252-.467-.77-.7-1.555-.7-.504 0-1.037.151-1.597.453a8.945 8.945 0 00-1.555 1.029v19.181h-4.497zm25.194.329c-1.906 0-3.377-.357-4.413-1.07-1.037-.741-1.765-1.812-2.186-3.211-.392-1.427-.588-3.17-.588-5.228v-5.433c0-2.113.21-3.87.63-5.269.42-1.4 1.15-2.456 2.186-3.17 1.065-.713 2.522-1.07 4.37-1.07 2.046 0 3.545.412 4.498 1.235.98.824 1.625 2.017 1.933 3.582.308 1.536.462 3.389.462 5.556v1.935h-9.582v4.775c0 .96.084 1.742.252 2.346.196.604.49 1.056.883 1.358.42.275.952.412 1.597.412.672 0 1.177-.15 1.513-.453.364-.33.602-.782.714-1.358.14-.604.21-1.304.21-2.1v-1.44h4.371v.905c0 2.388-.518 4.268-1.555 5.64-1.036 1.372-2.802 2.058-5.295 2.058zm-2.69-14.53h5.17v-2.14c0-.989-.057-1.812-.169-2.47-.112-.687-.35-1.194-.714-1.524-.336-.356-.883-.535-1.64-.535-.728 0-1.288.165-1.68.494-.365.33-.617.892-.757 1.688-.14.768-.21 1.838-.21 3.21v1.277zm23.637 14.201V.288h7.817c1.541 0 2.872.165 3.993.494 1.149.33 2.101.837 2.858 1.523.756.686 1.317 1.564 1.681 2.634.364 1.043.546 2.278.546 3.705 0 1.372-.182 2.566-.546 3.581-.336.988-.869 1.77-1.597 2.346-.7.577-1.611.947-2.732 1.112 1.373.302 2.48.823 3.32 1.564.841.713 1.457 1.646 1.85 2.799.42 1.125.63 2.483.63 4.075 0 1.427-.168 2.73-.504 3.91-.337 1.18-.869 2.182-1.597 3.005-.701.824-1.611 1.468-2.732 1.935-1.093.439-2.396.659-3.909.659h-9.078zm4.749-3.335h3.194c2.13 0 3.545-.48 4.245-1.44.729-.988 1.093-2.566 1.093-4.734 0-1.4-.196-2.566-.588-3.499-.365-.96-.967-1.674-1.808-2.14-.812-.494-1.919-.741-3.32-.741h-2.816v12.554zm0-16.094h2.816c1.345 0 2.396-.178 3.152-.535.757-.384 1.289-.988 1.597-1.811.309-.824.463-1.894.463-3.21 0-1.538-.238-2.649-.715-3.335-.476-.686-1.219-1.111-2.227-1.276-1.009-.192-2.326-.288-3.951-.288h-1.135V14.2zm23.595 19.758c-1.793 0-3.208-.357-4.244-1.07-1.037-.714-1.78-1.73-2.228-3.046-.42-1.318-.63-2.868-.63-4.652v-6.915c0-1.784.21-3.334.63-4.651.448-1.318 1.191-2.333 2.228-3.046 1.036-.714 2.451-1.07 4.244-1.07 1.794 0 3.195.356 4.203 1.07 1.037.713 1.765 1.728 2.186 3.046.448 1.317.672 2.867.672 4.651v6.915c0 1.784-.224 3.334-.672 4.652-.421 1.317-1.149 2.332-2.186 3.046-1.008.713-2.409 1.07-4.203 1.07zm0-3.252c.869 0 1.471-.247 1.808-.74.364-.495.574-1.14.63-1.935.084-.824.126-1.674.126-2.553v-7.45c0-.905-.042-1.756-.126-2.552-.056-.796-.266-1.44-.63-1.935-.337-.521-.939-.782-1.808-.782-.868 0-1.485.261-1.849.782-.364.494-.588 1.14-.672 1.935a36.453 36.453 0 00-.084 2.552v7.45c0 .879.028 1.73.084 2.553.084.795.308 1.44.672 1.934.364.494.981.741 1.849.741zm15.543 3.252c-.953 0-1.794-.26-2.522-.782a5.891 5.891 0 01-1.723-2.058 5.97 5.97 0 01-.631-2.676c0-1.482.253-2.73.757-3.746a7.405 7.405 0 012.059-2.552 14.6 14.6 0 013.068-1.852 78.35 78.35 0 013.699-1.523v-1.688c0-.96-.056-1.756-.168-2.387-.112-.631-.351-1.098-.715-1.4-.336-.329-.854-.493-1.555-.493-.616 0-1.121.137-1.513.411-.364.275-.63.672-.798 1.194-.169.494-.253 1.084-.253 1.77v1.194l-4.455-.165c.057-2.635.673-4.57 1.85-5.804 1.176-1.262 2.998-1.894 5.463-1.894 2.41 0 4.119.645 5.128 1.935 1.008 1.29 1.513 3.156 1.513 5.598v10.867c0 .74.014 1.454.042 2.14.056.687.112 1.331.168 1.935.084.576.154 1.125.21 1.646h-4.119a84.862 84.862 0 00-.336-1.646 31.402 31.402 0 01-.252-1.852c-.28.933-.827 1.81-1.639 2.634-.785.796-1.877 1.194-3.278 1.194zm1.765-3.787c.448 0 .868-.124 1.261-.37a6.26 6.26 0 001.05-.824c.309-.33.519-.59.631-.782v-6.75a41.2 41.2 0 00-1.976 1.152 11.02 11.02 0 00-1.639 1.235 5.068 5.068 0 00-1.092 1.44c-.253.522-.379 1.126-.379 1.812 0 .96.183 1.715.547 2.264.364.549.896.823 1.597.823zm11.885 3.458V9.837h4.497v3.375c.896-1.454 1.793-2.428 2.689-2.922.897-.494 1.794-.741 2.69-.741h.294c.112 0 .252.013.421.04v4.858a6.019 6.019 0 00-1.177-.33 5.139 5.139 0 00-1.303-.164c-.701 0-1.345.165-1.933.494-.561.302-1.121.905-1.681 1.811v17.37h-4.497zm19.008.329c-2.045 0-3.572-.727-4.581-2.182-1.008-1.482-1.513-3.979-1.513-7.491v-4.61c0-1.812.154-3.485.463-5.022.308-1.564.882-2.813 1.723-3.746.868-.933 2.129-1.4 3.782-1.4a4.68 4.68 0 012.228.536 7.772 7.772 0 011.807 1.317V.288H194V33.63h-4.497v-1.524a7.535 7.535 0 01-1.765 1.359c-.617.33-1.331.494-2.144.494zm1.135-3.458c.42 0 .869-.068 1.345-.206a6.862 6.862 0 001.429-.7v-15.6a6.51 6.51 0 00-1.303-.7 3.67 3.67 0 00-1.555-.329c-1.037 0-1.737.494-2.101 1.482-.365.96-.547 2.127-.547 3.499v6.71c0 1.097.056 2.098.168 3.004.141.878.407 1.578.799 2.1.392.493.981.74 1.765.74z" fill="#5863B4"/><rect width="34" height="34" rx="2" fill="#5863B4"/><path opacity=".4" d="M16.172 26.624l-8.17-3.714c-.78-.355-.78-1.465 0-1.82l8.17-3.714a2 2 0 011.655 0l8.17 3.714a1 1 0 010 1.82l-8.17 3.714a2 2 0 01-1.655 0z" fill="#C6CAE7"/><path d="M16.172 21.624l-8.17-3.714c-.78-.355-.78-1.465 0-1.82l8.17-3.714a2 2 0 011.655 0l8.17 3.714a1 1 0 010 1.82l-8.17 3.714a2 2 0 01-1.655 0z" fill="#C6CAE7"/><path opacity=".4" d="M16.172 16.624l-8.17-3.714c-.78-.355-.78-1.465 0-1.82l8.17-3.714a2 2 0 011.655 0l8.17 3.714a1 1 0 010 1.82l-8.17 3.714a2 2 0 01-1.655 0z" fill="#C6CAE7"/></svg>