<svg width="120" height="26" fill="none" xmlns="http://www.w3.org/2000/svg"><path fill-rule="evenodd" clip-rule="evenodd" d="M8 2.138c0 .075.888 4.917 1.974 10.758a2319.78 2319.78 0 011.974 10.691c0 .039.704.07 1.565.07h1.564l.168-.945c.093-.52.644-3.714 1.225-7.097.581-3.384 1.081-6.127 1.112-6.096.03.03.642 3.212 1.358 7.069l1.303 7.012 1.55.032c1.197.025 1.548-.001 1.549-.114 0-.081.833-4.917 1.85-10.747 1.018-5.83 1.813-10.64 1.767-10.688-.046-.05-.815-.075-1.71-.058l-1.626.032-1.038 6.818c-.571 3.75-1.045 6.844-1.054 6.876-.009.031-.561-2.964-1.227-6.657-.667-3.693-1.244-6.8-1.284-6.904-.061-.163-.273-.19-1.478-.19-.774 0-1.432.04-1.462.09-.03.05-.57 3.13-1.2 6.846s-1.166 6.778-1.193 6.805c-.026.026-.047.004-.047-.05 0-.054-.485-3.04-1.077-6.636-.592-3.597-1.124-6.655-1.182-6.797-.102-.25-.15-.258-1.743-.258C8.438 2 8 2.037 8 2.138zm31.298.002c-.03.08-.042 4.916-.026 10.746l.03 10.6h3.045l.034-.787.033-.786.72.703c.397.386.94.803 1.208.927.367.169.739.225 1.508.227.874.002 1.105-.04 1.604-.293.348-.176.72-.485.925-.768a6.19 6.19 0 00.594-1.108c.245-.618.253-.776.291-5.621.027-3.376-.002-5.225-.088-5.73a5.93 5.93 0 00-.444-1.375c-.186-.371-.511-.782-.792-1.001a3.985 3.985 0 00-1.107-.558 2.976 2.976 0 00-1.245-.113c-.338.04-.882.202-1.208.359a5.714 5.714 0 00-1.105.742c-.282.251-.54.457-.577.457-.036 0-.079-1.509-.095-3.352l-.03-3.352-1.61-.032c-1.226-.024-1.623.004-1.665.115zm11.87-.067c-.044.044-.08 4.92-.08 10.835v10.756l1.665-.032 1.663-.032V2.057l-1.585-.031c-.872-.018-1.62.004-1.664.047zm9.625 5.214c-.34.057-.961.265-1.381.462a4.28 4.28 0 00-1.316.95c-.304.327-.66.808-.791 1.07a6.87 6.87 0 00-.407 1.132c-.093.362-.17.802-.17.978v.32h3.24l.067-.567c.036-.312.146-.724.243-.915.097-.192.33-.428.516-.526.187-.098.61-.182.94-.186.347-.004.751.072.955.178.194.103.436.35.538.55.104.205.21.764.241 1.288l.057.925-.663.275c-.364.151-1.246.57-1.96.93-.713.361-1.612.897-1.997 1.191a7.927 7.927 0 00-1.171 1.131c-.26.328-.613.897-.786 1.266a6.824 6.824 0 00-.45 1.483 6.915 6.915 0 00-.065 1.507c.042.42.206.976.414 1.406.19.393.53.87.761 1.064.23.194.695.434 1.033.535.438.13.875.165 1.522.123.5-.033 1.137-.151 1.416-.263.28-.112.85-.426 1.268-.697.737-.478.761-.486.814-.239.03.14.069.384.086.541l.032.287 1.616.032c1.29.025 1.597.002 1.523-.115-.052-.08-.12-3.086-.154-6.678-.056-6.15-.073-6.564-.282-7.091a4.374 4.374 0 00-.633-1.035 4.312 4.312 0 00-.982-.792c-.315-.174-.959-.391-1.432-.483-.473-.092-1.123-.161-1.443-.154-.32.007-.86.06-1.2.117zm23.684-.009c-.341.06-.946.272-1.345.47-.398.198-.941.58-1.206.848-.264.269-.61.75-.77 1.07-.16.319-.365.903-.457 1.298-.13.56-.166 1.578-.166 4.615s.036 4.054.166 4.614c.092.395.297.98.457 1.3.16.32.488.8.73 1.066s.7.629 1.019.805c.319.176.841.391 1.16.477.32.087.978.158 1.462.159.484 0 1.23-.08 1.658-.178a4.738 4.738 0 001.434-.61c.36-.238.797-.602.97-.811a6.01 6.01 0 00.6-.95c.156-.314.355-.913.443-1.33.087-.419.159-1.16.16-1.649l.002-.888h-3.245l-.047 1.118c-.033.775-.112 1.252-.258 1.56-.116.244-.367.54-.558.659-.229.141-.56.215-.968.215-.408 0-.739-.074-.968-.215-.19-.119-.445-.415-.564-.659-.202-.413-.216-.732-.216-4.683 0-4.034.01-4.259.225-4.629a2.53 2.53 0 01.544-.63c.24-.181.484-.241.979-.241s.74.06.979.24c.175.133.41.403.524.599.125.217.231.696.27 1.22l.064.863h1.62c.89 0 1.619-.014 1.619-.032 0-.017-.052-.469-.117-1.003-.064-.534-.217-1.28-.34-1.658a6.236 6.236 0 00-.652-1.311c-.235-.343-.67-.794-.967-1.002a4.771 4.771 0 00-1.121-.554c-.32-.096-1.013-.197-1.54-.224-.528-.027-1.239 0-1.58.061zm12.043-.003c-.294.05-.776.173-1.072.273-.295.1-.788.376-1.096.613a5.815 5.815 0 00-.921.912c-.2.265-.468.769-.597 1.12-.129.35-.29.998-.357 1.44-.078.508-.106 2.147-.077 4.438.043 3.413.061 3.678.3 4.37.14.404.422 1 .626 1.324.204.324.576.754.827.956.251.202.753.508 1.115.68.624.298.743.314 2.294.31 1.45-.004 1.712-.035 2.309-.276.447-.18.869-.47 1.256-.864.321-.326.694-.812.829-1.08.134-.268.343-.878.463-1.356.12-.478.219-1.118.219-1.423v-.555h-3.239l-.064.863c-.039.524-.145 1.003-.27 1.22a2.41 2.41 0 01-.524.598c-.24.181-.484.241-.98.241-.494 0-.74-.06-.978-.24a2.53 2.53 0 01-.544-.631c-.194-.335-.231-.641-.266-2.194l-.04-1.805h7.043l-.056-2.377c-.04-1.658-.11-2.565-.232-2.994A8.733 8.733 0 00102 9.595c-.172-.345-.566-.859-.875-1.141-.309-.283-.761-.617-1.003-.742-.243-.126-.778-.301-1.19-.39-.413-.089-1.004-.156-1.314-.15-.31.006-.804.053-1.098.103zm-65.762.168a6.62 6.62 0 00-1.128.412 6.327 6.327 0 00-.939.624c-.252.207-.616.678-.808 1.046a8.608 8.608 0 00-.555 1.413c-.179.65-.205 1.226-.207 4.526-.001 2.82.037 3.942.152 4.412.085.347.3.944.476 1.326.203.44.552.917.945 1.296.344.33.916.736 1.273.904.546.257.844.313 1.871.35.695.027 1.52-.013 1.914-.092a5.6 5.6 0 001.213-.407c.287-.148.78-.555 1.096-.906.346-.385.667-.89.809-1.276.129-.35.28-.853.335-1.116.055-.264.134-.776.176-1.139l.076-.659h-3.372l-.05.9c-.039.663-.118 1.008-.302 1.31-.17.279-.41.473-.751.605a1.769 1.769 0 01-.982.116c-.265-.043-.6-.157-.746-.253-.145-.097-.37-.417-.5-.71-.194-.442-.244-.832-.285-2.226l-.05-1.69h7.134v-1.768c0-.972-.055-2.168-.122-2.657a8.686 8.686 0 00-.415-1.641c-.224-.573-.47-.93-1.035-1.502-.545-.553-.919-.821-1.417-1.018-.527-.208-.952-.276-1.918-.307-.83-.026-1.454.016-1.888.127zm44.526-.067c-.31.04-.845.207-1.189.368a8.732 8.732 0 00-1.314.828c-.38.293-.708.533-.73.533-.02 0-.02-.335 0-.745l.038-.745H68.91v16.043h3.271V11.07l.649-.413c.357-.227.834-.47 1.06-.54a2 2 0 01.807-.05c.217.041.463.159.547.261.122.15.163 1.478.208 6.787l.057 6.6 1.663.032 1.664.031V17.15c0-4.306-.043-6.866-.123-7.306-.068-.373-.2-.833-.295-1.024a3.555 3.555 0 00-.469-.671 2.965 2.965 0 00-.692-.53 3.124 3.124 0 00-.902-.26 5.327 5.327 0 00-1.072.017zm34.798.105a7.96 7.96 0 00-.861.388c-.194.108-.644.52-.998.917l-.645.72.04-.946.041-.945h-3.218l.029 7.993.029 7.992 1.607.032 1.608.032.002-5.819c.002-5.425.017-5.85.212-6.288a1.8 1.8 0 01.605-.717c.217-.136.62-.29.895-.342.276-.053.802-.057 1.17-.01.368.048.834.124 1.035.168l.367.082V7.27l-.705.01c-.388.004-.933.094-1.213.2zm-76.81 2.715c.182.095.437.386.568.645.168.336.254.779.3 1.545l.062 1.073h-3.669l.048-1.117c.033-.764.11-1.237.244-1.495a1.83 1.83 0 01.558-.601c.238-.147.565-.224.959-.224.329 0 .747.078.93.174zm12.177.151c.176.18.377.541.447.805.087.327.117 1.824.094 4.688-.03 3.767-.054 4.247-.233 4.579-.11.203-.359.454-.554.556-.245.13-.54.171-.952.137a2.5 2.5 0 01-1.138-.39l-.54-.34v-9.613l.615-.374c.508-.308.731-.374 1.278-.374.577 0 .703.042.983.326zm53.107-.093c.209.129.451.419.55.658.099.235.204.904.235 1.487l.056 1.06h-3.67l.053-1.117c.036-.739.12-1.245.246-1.495.106-.208.356-.478.554-.601.243-.15.565-.224.982-.224.424 0 .739.073.994.232zm-35.06 7.336v2.068l-.564.573c-.31.316-.74.649-.955.74a2.269 2.269 0 01-.73.166c-.187 0-.537-.08-.778-.178-.25-.102-.494-.302-.566-.464-.071-.157-.128-.606-.128-.997.001-.577.064-.822.337-1.305a4.51 4.51 0 01.837-1.02c.275-.234.923-.698 1.44-1.03.516-.334.977-.61 1.023-.614.047-.004.085.923.085 2.06z" fill="#2F70AC"/></svg>