<svg width="34" height="34" fill="none" xmlns="http://www.w3.org/2000/svg"><rect width="34" height="34" rx="2" fill="#5863B4"/><path opacity=".4" d="M16.172 26.624l-8.17-3.714c-.78-.355-.78-1.465 0-1.82l8.17-3.714a2 2 0 011.655 0l8.17 3.714a1 1 0 010 1.82l-8.17 3.714a2 2 0 01-1.655 0z" fill="#C6CAE7"/><path d="M16.172 21.624l-8.17-3.714c-.78-.355-.78-1.465 0-1.82l8.17-3.714a2 2 0 011.655 0l8.17 3.714a1 1 0 010 1.82l-8.17 3.714a2 2 0 01-1.655 0z" fill="#C6CAE7"/><path opacity=".4" d="M16.172 16.624l-8.17-3.714c-.78-.355-.78-1.465 0-1.82l8.17-3.714a2 2 0 011.655 0l8.17 3.714a1 1 0 010 1.82l-8.17 3.714a2 2 0 01-1.655 0z" fill="#C6CAE7"/></svg>