<svg width="24" height="24" fill="none" xmlns="http://www.w3.org/2000/svg"><path d="M19.949 5.846l-.712.237.712-.237zm-.66.391a.75.75 0 101.422-.474l-1.422.474zm-3.052-4.949a.75.75 0 00-.474 1.424l.474-1.424zm-.083.763l-.237.712.237-.712zM4.455 14.88l-.571-.486.571.486zm.88-2.042l-.745-.084.745.085zm13.33 0l.745-.084-.745.085zm.88 2.042l.571-.486-.572.486zM18.32 9.794l-.745.084.745-.084zm-12.64 0l.745.084-.745-.084zm10.022 10.47a.75.75 0 10-1.404-.527l1.404.526zm-6-.527a.75.75 0 10-1.404.526l1.404-.526zm-5.65-13.89l.71.236-.71-.237zm-.764-.084a.75.75 0 101.424.474l-1.424-.474zm4.95-3.051a.75.75 0 10-.475-1.424l.474 1.424zm-.392-.66l-.237-.712.237.711zm11.391 4.031l.052.154 1.422-.474-.05-.154-1.424.474zm-3.474-3.371l.154.05.474-1.422-.154-.052-.474 1.424zm4.897 2.897a6.75 6.75 0 00-4.269-4.27l-.474 1.424a5.25 5.25 0 013.32 3.32l1.423-.474zM18.17 17.25H5.83v1.5h12.34v-1.5zm-.595-7.372l.345 3.045 1.49-.169-.344-3.044-1.49.168zM6.08 12.923l.345-3.045-1.49-.168-.345 3.044 1.49.169zm-1.053 2.443c.585-.688.95-1.54 1.053-2.443l-1.49-.169a3.067 3.067 0 01-.706 1.64l1.143.972zm12.893-2.443a4.568 4.568 0 001.053 2.443l1.143-.972a3.066 3.066 0 01-.706-1.64l-1.49.169zM5.83 17.25c-.887 0-1.45-1.122-.803-1.884l-1.143-.972c-1.42 1.67-.306 4.356 1.946 4.356v-1.5zm12.34 1.5c2.252 0 3.365-2.685 1.946-4.356l-1.143.972c.648.762.084 1.884-.803 1.884v1.5zm.896-9.04C18.65 6.045 15.628 3.25 12 3.25v1.5c2.83 0 5.242 2.187 5.575 5.128l1.49-.168zm-12.641.168C6.758 6.937 9.17 4.75 12 4.75v-1.5c-3.628 0-6.65 2.795-7.066 6.46l1.49.168zm7.873 9.859c-.323.86-1.213 1.513-2.298 1.513v1.5c1.685 0 3.152-1.017 3.702-2.487l-1.404-.526zM12 21.25c-1.085 0-1.975-.652-2.298-1.513l-1.404.526c.55 1.47 2.017 2.487 3.702 2.487v-1.5zM3.34 5.609l-.052.154 1.424.474.05-.154L3.34 5.61zm4.423-4.32l-.154.05.474 1.424.154-.051-.474-1.424zm-3 4.794a5.25 5.25 0 013.32-3.32L7.61 1.34a6.75 6.75 0 00-4.27 4.269l1.424.474z" fill="#3DBEE7"/></svg>