<svg width="146" height="32" fill="none" xmlns="http://www.w3.org/2000/svg"><path d="M.76 28.646V14.681c-.02-.795.273-2.384 1.618-2.384H9.61m17.32-8.943v13.965c.021.795-.273 2.384-1.617 2.384H18.08" stroke="#BFCD15" stroke-width="1.4" stroke-linecap="round"/><ellipse cx=".759" cy="31.162" rx=".759" ry=".838" fill="#BFCD15"/><ellipse cx="26.931" cy=".839" rx=".759" ry=".838" transform="rotate(-180 26.93 .839)" fill="#BFCD15"/><path d="M4.236 19.563h6.65l5.698-7.126h6.997" stroke="#BFCD15" stroke-width="1.4" stroke-linecap="round" stroke-linejoin="round"/><path d="M37.994 22.52c-.245 0-.434-.073-.567-.22-.134-.157-.2-.376-.2-.655v-11.24c0-.278.066-.491.2-.637.145-.145.34-.218.584-.218h3.972c1.269 0 2.242.34 2.921 1.02.69.68 1.035 1.633 1.035 2.86 0 1.238-.345 2.198-1.035 2.878-.679.68-1.652 1.02-2.92 1.02h-3.205v4.317c0 .28-.067.498-.2.656-.123.146-.318.218-.585.218zm.785-6.558h3.004c.868 0 1.519-.213 1.953-.638.445-.437.668-1.069.668-1.894 0-.826-.223-1.445-.668-1.858-.434-.425-1.085-.638-1.953-.638H38.78v5.028zm13.464 6.558c-.233 0-.422-.055-.567-.165-.145-.12-.267-.303-.367-.546l-4.523-11.276c-.09-.23-.117-.425-.084-.583a.643.643 0 01.25-.382.773.773 0 01.468-.146c.233 0 .406.055.517.164.123.11.228.273.317.492l4.306 10.911h-.584l4.29-10.911c.089-.219.195-.383.317-.492.122-.11.295-.164.517-.164.178 0 .323.049.434.146.123.097.195.23.217.4.034.159.011.347-.066.565l-4.54 11.276c-.09.243-.206.425-.35.546-.134.11-.318.164-.552.164zm7.984-.128c-.245 0-.44-.079-.584-.237-.134-.158-.2-.37-.2-.637V10.333c0-.28.066-.492.2-.638.133-.145.323-.218.567-.218.256 0 .451.073.585.218.133.146.2.359.2.638v10.602h5.307c.234 0 .407.06.518.182.122.121.184.297.184.528 0 .243-.062.431-.184.565-.111.121-.284.182-.517.182h-6.076zm9.089.073a.931.931 0 01-.717-.31c-.19-.206-.284-.467-.284-.783s.094-.57.284-.765a.96.96 0 01.717-.292c.312 0 .551.098.718.292.178.194.267.45.267.765 0 .316-.089.577-.267.783-.167.207-.406.31-.718.31zm11.569.091c-.523 0-1.03-.049-1.519-.146a6.39 6.39 0 01-1.385-.4 5.155 5.155 0 01-1.168-.675.971.971 0 01-.317-.4.933.933 0 01-.05-.456.927.927 0 01.183-.4c.1-.11.217-.177.35-.2.134-.025.279.023.435.145a5.33 5.33 0 001.602.82 6.49 6.49 0 001.87.255c.978 0 1.696-.195 2.152-.583.468-.389.701-.899.701-1.53 0-.523-.167-.93-.5-1.22-.334-.304-.896-.541-1.686-.711l-1.77-.401c-1.045-.243-1.83-.644-2.353-1.202-.512-.559-.768-1.306-.768-2.24 0-.572.106-1.088.318-1.55a3.49 3.49 0 01.9-1.22c.39-.34.847-.6 1.37-.783a5.453 5.453 0 011.769-.273c.69 0 1.335.103 1.936.31a5.22 5.22 0 011.652.91.78.78 0 01.267.401c.045.146.05.291.017.437a.623.623 0 01-.184.364.515.515 0 01-.35.164c-.134.013-.284-.042-.45-.163a4.433 4.433 0 00-1.37-.73 4.774 4.774 0 00-1.535-.236c-.567 0-1.063.097-1.485.291a2.32 2.32 0 00-.968.82c-.223.34-.334.741-.334 1.202 0 .56.156.996.467 1.312.312.316.835.559 1.569.729l1.752.382c1.113.255 1.937.65 2.47 1.184.546.522.819 1.227.819 2.113 0 .559-.106 1.063-.318 1.512-.2.45-.49.838-.868 1.166-.378.316-.84.565-1.385.747a6.156 6.156 0 01-1.836.255zm9.717 0c-.801 0-1.497-.188-2.087-.565-.59-.376-1.045-.91-1.368-1.603-.323-.692-.484-1.506-.484-2.44 0-.705.089-1.337.267-1.895.19-.571.456-1.057.801-1.458.345-.4.757-.704 1.235-.91a3.968 3.968 0 011.636-.328c.801 0 1.496.188 2.086.565.59.376 1.046.91 1.369 1.602.322.68.484 1.488.484 2.423 0 .705-.095 1.342-.284 1.913a4.05 4.05 0 01-.784 1.457c-.345.4-.763.71-1.252.93-.479.206-1.018.309-1.62.309zm0-1.312c.49 0 .912-.127 1.268-.382.367-.255.646-.626.835-1.111.2-.486.3-1.087.3-1.804 0-1.068-.217-1.882-.65-2.44-.435-.56-1.019-.839-1.753-.839-.479 0-.901.128-1.269.383-.356.243-.634.607-.834 1.093-.2.486-.3 1.087-.3 1.803 0 1.069.216 1.889.65 2.46.445.558 1.03.837 1.753.837zm8.438 1.312c-.834 0-1.469-.267-1.903-.802-.434-.546-.65-1.33-.65-2.35V10.26c0-.28.066-.486.2-.62.133-.145.317-.218.55-.218.245 0 .434.073.568.219.133.133.2.34.2.62v9.016c0 .631.117 1.105.35 1.42.246.304.59.456 1.036.456h.267l.233-.036c.123-.012.212.024.267.11.056.084.084.254.084.51 0 .23-.05.412-.15.546-.089.121-.24.2-.451.236-.1.013-.2.019-.3.019a2.5 2.5 0 01-.3.018zm5.371 0c-.657 0-1.207-.134-1.653-.4-.433-.268-.756-.663-.968-1.185-.211-.522-.317-1.178-.317-1.967V14.23c0-.28.061-.486.184-.62.133-.145.323-.218.567-.218.245 0 .434.073.568.219.133.133.2.34.2.62v4.772c0 .753.139 1.311.417 1.676.279.352.718.528 1.319.528.668 0 1.207-.243 1.619-.729.423-.485.634-1.13.634-1.93V14.23c0-.28.061-.486.184-.62.133-.145.322-.218.567-.218.245 0 .434.073.568.219.133.133.2.34.2.62v7.431c0 .571-.245.856-.734.856-.245 0-.434-.072-.568-.218-.122-.146-.183-.358-.183-.638v-1.585l.217.31c-.223.704-.585 1.245-1.085 1.621-.49.365-1.069.547-1.736.547zm9.905 0c-.657 0-1.208-.128-1.653-.383a2.421 2.421 0 01-.985-1.11c-.211-.487-.317-1.082-.317-1.786v-4.481h-1.068c-.2 0-.356-.055-.467-.164a.67.67 0 01-.167-.474c0-.206.055-.364.167-.473.111-.11.267-.164.467-.164h1.068v-1.986c0-.28.067-.486.201-.62.133-.145.322-.218.567-.218.245 0 .428.073.551.219.133.133.2.34.2.62v1.985h2.02c.211 0 .372.054.484.164.111.109.167.267.167.473a.675.675 0 01-.167.474c-.112.11-.273.164-.484.164h-2.02v4.335c0 .668.128 1.172.384 1.512.256.34.679.51 1.269.51.211 0 .389-.018.534-.054.144-.049.272-.073.383-.073a.263.263 0 01.251.109c.078.085.117.243.117.474 0 .17-.028.327-.084.473a.419.419 0 01-.284.273 3.031 3.031 0 01-.534.128 2.833 2.833 0 01-.6.073zm3.491-.073c-.233 0-.417-.079-.55-.237-.134-.158-.201-.376-.201-.656v-7.268c0-.291.067-.51.201-.655.133-.158.317-.237.55-.237.245 0 .434.079.568.236.133.146.2.365.2.656v7.268c0 .28-.067.498-.2.656-.123.158-.312.237-.568.237zm0-11.02c-.3 0-.539-.086-.717-.256-.167-.182-.251-.419-.251-.71 0-.316.084-.553.251-.71.178-.17.417-.256.717-.256.323 0 .562.085.718.255.167.158.25.395.25.71 0 .292-.083.53-.25.711-.156.17-.395.255-.718.255zm6.665 11.093c-.801 0-1.497-.188-2.086-.565-.59-.376-1.046-.91-1.369-1.603-.323-.692-.484-1.506-.484-2.44 0-.705.089-1.337.267-1.895a4.257 4.257 0 01.801-1.458 3.38 3.38 0 011.235-.91 3.97 3.97 0 011.636-.328c.801 0 1.497.188 2.086.565.59.376 1.046.91 1.369 1.602.323.68.484 1.488.484 2.423 0 .705-.095 1.342-.284 1.913a4.049 4.049 0 01-.784 1.457c-.345.4-.762.71-1.252.93-.478.206-1.018.309-1.619.309zm0-1.312c.49 0 .912-.127 1.268-.382.368-.255.646-.626.835-1.111.2-.486.3-1.087.3-1.804 0-1.068-.217-1.882-.65-2.44-.434-.56-1.019-.839-1.753-.839-.478 0-.901.128-1.268.383-.357.243-.635.607-.835 1.093-.2.486-.3 1.087-.3 1.803 0 1.069.217 1.889.65 2.46.446.558 1.03.837 1.753.837zm6.636 1.276c-.234 0-.418-.073-.551-.22-.134-.145-.2-.357-.2-.637v-7.432c0-.28.066-.486.2-.62.133-.145.317-.218.551-.218.233 0 .411.073.534.219.133.133.2.34.2.62v1.493l-.184-.273c.234-.693.612-1.215 1.135-1.567a3.234 3.234 0 011.82-.528c.656 0 1.196.127 1.619.382.423.255.74.644.951 1.166.211.522.317 1.184.317 1.986v4.772c0 .28-.067.492-.2.638-.123.146-.306.218-.551.218-.245 0-.434-.072-.567-.218-.134-.146-.201-.358-.201-.638v-4.681c0-.79-.139-1.366-.417-1.73-.278-.365-.723-.547-1.335-.547-.712 0-1.285.243-1.719.728-.423.474-.635 1.118-.635 1.931v4.3c0 .57-.255.855-.767.855zm11.604.036a6.56 6.56 0 01-1.519-.182 4.391 4.391 0 01-1.418-.674.764.764 0 01-.268-.31.946.946 0 01-.05-.383.743.743 0 01.151-.346.412.412 0 01.283-.164.516.516 0 01.384.092c.434.267.851.455 1.252.564.412.11.818.164 1.218.164.612 0 1.074-.121 1.386-.364.311-.243.467-.565.467-.966 0-.34-.106-.6-.317-.783-.2-.194-.517-.34-.951-.437l-1.553-.346c-.689-.17-1.212-.45-1.569-.838-.344-.4-.517-.91-.517-1.53 0-.547.134-1.02.401-1.421a2.66 2.66 0 011.151-.947c.49-.219 1.052-.328 1.686-.328.49 0 .951.073 1.385.218.445.134.846.34 1.202.62a.536.536 0 01.25.328.63.63 0 01.017.382.608.608 0 01-.15.31.537.537 0 01-.301.164.666.666 0 01-.4-.11 3.037 3.037 0 00-1.002-.51 3.197 3.197 0 00-1.001-.164c-.601 0-1.057.128-1.369.383-.3.255-.45.589-.45 1.002 0 .316.089.577.267.783.189.207.484.358.884.456l1.553.346c.723.17 1.268.443 1.635.82.368.364.551.862.551 1.493 0 .826-.3 1.482-.901 1.968-.59.473-1.386.71-2.387.71z" fill="#fff"/></svg>