<svg width="160" height="24" fill="none" xmlns="http://www.w3.org/2000/svg"><path d="M.633 21.484V11.01c-.018-.596.227-1.788 1.346-1.788h6.016m14.41-6.707v10.474c.018.596-.227 1.788-1.346 1.788h-6.016" stroke="#BFCD15" stroke-width="1.262" stroke-linecap="round"/><ellipse cx=".631" cy="23.371" rx=".631" ry=".629" fill="#BFCD15"/><ellipse cx="22.406" cy=".629" rx=".631" ry=".629" transform="rotate(-180 22.406 .629)" fill="#BFCD15"/><path d="M3.524 14.672h5.532l4.742-5.345h5.821" stroke="#BFCD15" stroke-width="1.262" stroke-linecap="round" stroke-linejoin="round"/><path d="M29.406 16.636c-.028-.028-.042-.112-.042-.251 0-.121.014-.182.042-.182.093 0 .205-.014.336-.041.14-.028.27-.06.392-.098.13-.047.21-.098.238-.154.065-.102.098-.54.098-1.311V9.324c0-.27-.01-.507-.028-.711a2.032 2.032 0 00-.07-.489c-.019-.055-.093-.107-.224-.153a2.333 2.333 0 00-.406-.112 1.812 1.812 0 00-.336-.042c-.038 0-.056-.055-.056-.167 0-.12.018-.2.056-.237l1.68.028h.462c.168-.01.346-.019.533-.028.186-.01.364-.014.532-.014.168-.01.317-.014.448-.014.308 0 .62.046.938.14.318.092.621.232.91.418.3.186.537.451.715.795.186.345.28.745.28 1.2 0 .289-.06.596-.182.921a3.117 3.117 0 01-.546.921c-.234.28-.533.507-.897.684-.355.177-.765.265-1.232.265-.523 0-.882-.13-1.078-.39-.056-.066-.07-.173-.043-.322.02-.046.033-.06.043-.041a2.8 2.8 0 00.938.153c.317 0 .602-.088.854-.265.261-.186.467-.428.616-.726.16-.307.238-.637.238-.99 0-.66-.144-1.182-.434-1.563-.29-.39-.737-.586-1.344-.586-.43 0-.757.032-.98.098-.085.009-.136.153-.155.432-.009.28-.014.647-.014 1.102v4.982c0 .614.038 1.018.113 1.214.037.074.126.144.265.209.15.065.309.116.477.153.168.028.29.042.364.042.037 0 .056.066.056.196 0 .065-.01.135-.028.209-.467-.019-.855-.033-1.163-.042a11.793 11.793 0 00-.658-.028l-1.708.07zm6.652 0c-.037-.037-.056-.107-.056-.21 0-.13.019-.195.056-.195.112 0 .257-.023.434-.07.178-.046.299-.111.364-.195.103-.13.206-.302.308-.516.112-.214.229-.48.35-.795l2.437-6.238c.056-.139.089-.237.098-.293.019-.055.033-.102.042-.14.019-.046.052-.12.098-.222a1.5 1.5 0 01.196-.307c.066-.075.173-.112.323-.112l.126.042 2.8 7.367.225.572c.074.168.135.312.182.433a.55.55 0 00.238.251c.13.065.261.121.392.168.14.037.247.055.322.055.037 0 .056.089.056.265a.23.23 0 01-.014.07.23.23 0 01-.014.07 274.83 274.83 0 00-1.092-.042 10.222 10.222 0 00-.449-.028l-1.624.07c-.037-.037-.056-.112-.056-.223.01-.121.033-.182.07-.182.112 0 .252-.023.42-.07.168-.046.266-.106.294-.18a.459.459 0 00.014-.112.459.459 0 00.014-.112c0-.121-.014-.26-.042-.419a1.963 1.963 0 00-.098-.39l-.63-1.73c-.028-.038-.056-.056-.084-.056a13.182 13.182 0 00-1.877-.014c-.29.009-.611.023-.966.042l-.07.041-.602 1.535a4.258 4.258 0 00-.196.586 2.285 2.285 0 00-.042.377c0 .13.037.223.112.28.084.064.219.12.406.166.186.038.322.056.406.056.028 0 .042.056.042.168.01.111.005.19-.014.237l-1.443-.07a4.249 4.249 0 00-.77.014c-.243.019-.471.037-.686.056zm4.145-4.186c.42 0 .845-.014 1.275-.042l.042-.07-1.135-3.083-1.204 3.111c0 .037.01.056.028.056.243.01.444.019.602.028h.392zm8.809 4.27a.145.145 0 01-.14-.084l-2.87-7.214c-.234-.614-.444-1.06-.63-1.34-.066-.102-.202-.18-.407-.237a1.986 1.986 0 00-.49-.083c-.038 0-.056-.06-.056-.182 0-.111.019-.186.056-.223.224.01.476.023.756.042a12.89 12.89 0 001.457.014 48.27 48.27 0 011.134-.056c.019.037.023.116.014.237 0 .112-.014.168-.042.168-.177 0-.36.037-.546.111-.187.075-.28.191-.28.35 0 .269.588 1.836 1.764 4.701.131.317.243.6.336.852l.267.627c.027.047.065.06.111.042a.218.218 0 00.113-.111l2.1-5.051c.178-.447.266-.772.266-.977 0-.14-.06-.247-.182-.321a1.05 1.05 0 00-.42-.168 1.613 1.613 0 00-.378-.055c-.037 0-.056-.06-.056-.182 0-.111.019-.186.056-.223.439.019.78.037 1.022.056.252.01.411.014.477.014l1.414-.07a.86.86 0 01.028.21c0 .13-.019.195-.056.195-.42 0-.7.13-.84.39-.103.196-.215.414-.336.656-.112.233-.23.493-.35.782l-2.802 6.67c-.12.306-.284.46-.49.46zm12.115-.07c-.486 0-1.242-.014-2.27-.042-.513-.018-.98-.032-1.4-.042-.42-.01-.789-.01-1.106 0l-1.695.042c-.028-.028-.042-.102-.042-.223 0-.121.014-.182.042-.182.094 0 .206-.014.336-.041.14-.028.271-.06.393-.098.13-.047.21-.098.238-.154.065-.102.098-.54.098-1.311V9.324c0-.614-.033-1.037-.098-1.27-.019-.055-.09-.102-.21-.139a2.412 2.412 0 00-.729-.153c-.037 0-.056-.06-.056-.182 0-.111.019-.186.056-.223.084 0 .224.01.42.028.206.01.425.023.659.042a14.421 14.421 0 001.498-.014c.299-.028.542-.047.728-.056a.861.861 0 01.029.21c0 .13-.02.195-.057.195-.056 0-.154.018-.294.055-.14.028-.27.066-.392.112-.121.037-.191.08-.21.126-.084.316-.126.749-.126 1.297v5.26c0 .494.042.903.126 1.229.028.093.346.14.953.14h.672c.859 0 1.447-.08 1.764-.238.14-.074.294-.237.462-.488.178-.26.318-.568.42-.921.02-.056.085-.084.197-.084.177 0 .294.028.35.084-.028.074-.075.19-.14.348a25.398 25.398 0 00-.49 1.438c-.066.214-.108.39-.127.53zm2.59-1.298c-.877-.911-1.316-2.023-1.316-3.335 0-.65.117-1.26.35-1.827a4.82 4.82 0 01.952-1.507 4.402 4.402 0 011.429-1.019 4.077 4.077 0 011.736-.377c.617 0 1.196.126 1.737.377a4.411 4.411 0 011.429 1.019c.41.428.732.93.966 1.507a4.76 4.76 0 01.35 1.827c0 1.312-.439 2.424-1.316 3.335-.598.633-1.275 1.052-2.031 1.256a4.09 4.09 0 01-2.269 0c-.747-.204-1.419-.623-2.017-1.256zm3.376.782c.597 0 1.12-.196 1.568-.586.448-.382.775-.856.98-1.424.215-.576.323-1.19.323-1.841 0-.735-.122-1.438-.365-2.107a3.875 3.875 0 00-1.134-1.647 2.7 2.7 0 00-1.807-.656 2.29 2.29 0 00-1.526.544c-.43.354-.761.824-.994 1.41a4.973 4.973 0 00-.35 1.883c0 .735.12 1.438.364 2.107.242.66.62 1.214 1.134 1.66a2.7 2.7 0 001.807.657zm9.019.586a.145.145 0 01-.14-.084L73.1 9.422c-.234-.614-.444-1.06-.63-1.34-.066-.102-.201-.18-.407-.237a1.986 1.986 0 00-.49-.083c-.037 0-.056-.06-.056-.182 0-.111.019-.186.056-.223.224.01.476.023.756.042a12.89 12.89 0 001.457.014c.29-.019.667-.037 1.134-.056.019.037.024.116.014.237 0 .112-.014.168-.042.168-.177 0-.36.037-.546.111-.187.075-.28.191-.28.35 0 .269.588 1.836 1.765 4.701.13.317.242.6.336.852l.266.627c.028.047.065.06.112.042a.218.218 0 00.112-.111l2.1-5.051c.178-.447.267-.772.267-.977a.355.355 0 00-.182-.321 1.05 1.05 0 00-.42-.168 1.613 1.613 0 00-.379-.055c-.037 0-.056-.06-.056-.182 0-.111.019-.186.056-.223.44.019.78.037 1.023.056.252.01.41.014.476.014l1.414-.07a.86.86 0 01.028.21c0 .13-.018.195-.056.195-.42 0-.7.13-.84.39-.103.196-.215.414-.336.656-.112.233-.229.493-.35.782l-2.801 6.67c-.121.306-.285.46-.49.46zm11.75.014c-.224 0-.462-.019-.715-.056a6.096 6.096 0 01-.63-.098 19.577 19.577 0 01-.756-.153c-.15-.047-.29-.08-.42-.098a27.617 27.617 0 01-.266-1.41 6.137 6.137 0 01-.084-.809c0-.055.074-.083.224-.083.168 0 .285.042.35.125.327 1.34 1.102 2.01 2.325 2.01.466 0 .863-.14 1.19-.419.327-.28.49-.674.49-1.186 0-.168-.037-.372-.112-.614-.065-.242-.22-.451-.462-.628a3.922 3.922 0 00-.462-.307 3.464 3.464 0 00-.364-.195 11.916 11.916 0 01-.462-.265l-.56-.335a9.675 9.675 0 01-.869-.6 3.337 3.337 0 01-.728-.81 1.974 1.974 0 01-.28-1.046c0-.493.126-.92.378-1.284.261-.372.597-.66 1.008-.865a3.06 3.06 0 011.359-.307c.205 0 .397.014.574.042.187.019.34.042.462.07.28.065.476.116.588.153.122.038.285.08.49.126.113.484.169 1.149.169 1.995 0 .065-.047.098-.14.098-.234 0-.355-.047-.365-.14a2.4 2.4 0 00-.308-.823 2.01 2.01 0 00-.644-.67 1.664 1.664 0 00-.966-.279c-.383 0-.682.075-.897.224-.214.14-.368.32-.462.544a1.854 1.854 0 00-.126.683c0 .233.056.466.168.698.112.233.276.428.49.586.29.214.58.414.869.6.298.186.607.377.924.572.299.186.598.396.896.628.3.223.546.48.743.768.205.288.308.623.308 1.004 0 .493-.136.935-.406 1.326-.271.381-.63.683-1.079.907-.439.214-.92.32-1.442.32zm5.364-1.382c-.878-.911-1.317-2.023-1.317-3.335 0-.65.117-1.26.35-1.827a4.81 4.81 0 01.953-1.507c.41-.438.886-.777 1.428-1.019a4.077 4.077 0 011.737-.377c.616 0 1.195.126 1.736.377a4.411 4.411 0 011.429 1.019c.41.428.733.93.966 1.507a4.76 4.76 0 01.35 1.827c0 1.312-.439 2.424-1.316 3.335-.598.633-1.275 1.052-2.031 1.256a4.09 4.09 0 01-2.269 0c-.747-.204-1.419-.623-2.016-1.256zm3.375.782c.597 0 1.12-.196 1.568-.586.448-.382.775-.856.98-1.424.215-.576.323-1.19.323-1.841a6.15 6.15 0 00-.364-2.107 3.877 3.877 0 00-1.135-1.647 2.7 2.7 0 00-1.806-.656 2.29 2.29 0 00-1.527.544c-.43.354-.76.824-.994 1.41a4.975 4.975 0 00-.35 1.883c0 .735.121 1.438.364 2.107a3.98 3.98 0 001.134 1.66 2.7 2.7 0 001.807.657zm11.904.516a92.41 92.41 0 01-2.269-.042c-.513-.018-.98-.032-1.4-.042-.421-.01-.789-.01-1.107 0l-1.694.042c-.028-.028-.042-.102-.042-.223 0-.121.014-.182.042-.182.093 0 .205-.014.336-.041.14-.028.27-.06.392-.098.131-.047.21-.098.238-.154.065-.102.098-.54.098-1.311V9.324c0-.614-.033-1.037-.098-1.27-.019-.055-.089-.102-.21-.139a2.43 2.43 0 00-.728-.153c-.038 0-.056-.06-.056-.182 0-.111.018-.186.056-.223.084 0 .224.01.42.028.205.01.425.023.658.042a14.388 14.388 0 001.498-.014c.299-.028.542-.047.729-.056a.897.897 0 01.028.21c0 .13-.019.195-.056.195-.056 0-.154.018-.294.055-.14.028-.271.066-.393.112-.121.037-.191.08-.21.126-.084.316-.126.749-.126 1.297v5.26c0 .494.042.903.126 1.229.028.093.346.14.953.14h.672c.859 0 1.447-.08 1.765-.238.14-.074.294-.237.462-.488a3.24 3.24 0 00.42-.921c.019-.056.084-.084.196-.084.177 0 .294.028.35.084-.028.074-.075.19-.14.348a25.398 25.398 0 00-.49 1.438c-.066.214-.108.39-.126.53zm5.952-.056c-1.111 0-1.965-.325-2.563-.977-.598-.65-.896-1.702-.896-3.153V9.297c0-.289-.01-.535-.028-.74a2.137 2.137 0 00-.07-.502c-.019-.056-.089-.103-.21-.14a2.442 2.442 0 00-.729-.153c-.037 0-.056-.06-.056-.182 0-.111.019-.186.056-.223l1.681.07c.075 0 .247-.005.518-.014.271-.019.64-.037 1.106-.056a.8.8 0 01.028.195c0 .14-.018.21-.056.21-.056 0-.154.018-.294.055-.14.028-.27.066-.392.112-.121.037-.191.08-.21.126-.084.316-.126.749-.126 1.297v3.112c0 1.051.224 1.888.672 2.512.448.623 1.083.934 1.905.934 1.597 0 2.395-1.046 2.395-3.14V9.284c0-.586-.033-.996-.098-1.228-.019-.056-.103-.107-.252-.154a3.567 3.567 0 00-.477-.111 1.928 1.928 0 00-.378-.056c-.037 0-.056-.056-.056-.168 0-.102.019-.172.056-.209.084 0 .224.01.421.028.196.01.406.023.63.042.233.01.434.014.602.014.243 0 .551-.014.924-.042.364-.028.579-.042.644-.042a.846.846 0 01.028.21c0 .11-.018.167-.056.167-.056 0-.172.018-.35.056a6.877 6.877 0 00-.504.125c-.149.047-.233.093-.252.14-.037.149-.065.33-.084.544a8.67 8.67 0 00-.028.753v3.391c0 .958-.135 1.72-.406 2.288-.271.558-.668.958-1.191 1.2-.522.242-1.157.363-1.904.363zm8.095.042c-.038-.037-.056-.107-.056-.21 0-.13.018-.195.056-.195.084 0 .196-.009.336-.028a2.41 2.41 0 00.392-.111c.121-.047.191-.093.21-.14a2.24 2.24 0 00.07-.502c.019-.205.028-.451.028-.74V9.66c0-.81-.042-1.289-.126-1.438-.065-.14-.57-.21-1.513-.21-.354 0-.63.033-.826.099a.733.733 0 00-.448.348c-.103.177-.201.442-.294.796-.019.046-.065.07-.14.07-.159 0-.271-.033-.336-.098l.266-1.996c.205.047.387.084.546.112.159.028.299.042.42.042.672 0 1.265.01 1.779.028a38.2 38.2 0 001.288.028c.719 0 1.335-.01 1.849-.028.523-.019.933-.028 1.232-.028.122 0 .262-.014.42-.042.159-.028.341-.065.547-.112l.266 1.996c-.066.065-.178.097-.336.097-.075 0-.122-.023-.14-.07-.085-.353-.183-.618-.295-.795a.73.73 0 00-.448-.348c-.196-.066-.471-.098-.826-.098-.98 0-1.494.07-1.541.21-.084.287-.126.753-.126 1.394v5.038c0 .54.042.972.126 1.297.019.037.089.08.211.126a2.4 2.4 0 00.392.111c.14.028.238.042.294.042.037 0 .056.07.056.21 0 .056-.01.12-.028.195a156.86 156.86 0 00-1.107-.042 11.08 11.08 0 00-.518-.028l-1.68.07zm6.918 0c-.037-.037-.056-.107-.056-.21 0-.13.019-.195.056-.195.084 0 .196-.009.336-.028a2.41 2.41 0 00.392-.111c.122-.047.192-.093.21-.14.038-.13.061-.297.07-.502.019-.205.028-.451.028-.74V9.297c0-.289-.009-.535-.028-.74a2.036 2.036 0 00-.07-.502c-.018-.056-.088-.103-.21-.14a2.4 2.4 0 00-.392-.111 1.813 1.813 0 00-.336-.042c-.037 0-.056-.06-.056-.182 0-.111.019-.186.056-.223l1.681.07c.074 0 .247-.005.518-.014.271-.019.639-.037 1.106-.056a.846.846 0 01.028.21c0 .13-.019.195-.056.195-.056 0-.154.018-.294.055a2.4 2.4 0 00-.392.112c-.121.037-.192.08-.21.126-.084.316-.126.749-.126 1.297v5.303c0 .54.042.972.126 1.297.018.037.089.08.21.126a2.4 2.4 0 00.392.111c.14.028.238.042.294.042.037 0 .056.07.056.21a.8.8 0 01-.028.195c-.467-.019-.835-.033-1.106-.042a10.327 10.327 0 00-.518-.028l-1.681.07zm5.798-1.284c-.878-.911-1.316-2.023-1.316-3.335 0-.65.116-1.26.35-1.827.233-.577.551-1.08.952-1.507a4.417 4.417 0 011.428-1.019 4.081 4.081 0 011.737-.377c.616 0 1.195.126 1.737.377a4.417 4.417 0 011.428 1.019c.411.428.733.93.966 1.507.234.567.351 1.176.351 1.827 0 1.312-.439 2.424-1.317 3.335-.597.633-1.274 1.052-2.031 1.256a4.086 4.086 0 01-2.268 0c-.747-.204-1.419-.623-2.017-1.256zm3.375.782c.598 0 1.121-.196 1.569-.586.448-.382.775-.856.98-1.424a5.23 5.23 0 00.322-1.841 6.13 6.13 0 00-.364-2.107 3.882 3.882 0 00-1.134-1.647 2.701 2.701 0 00-1.807-.656c-.588 0-1.097.182-1.527.544-.429.354-.76.824-.994 1.41a4.982 4.982 0 00-.35 1.883c0 .735.121 1.438.364 2.107.243.66.621 1.214 1.135 1.66a2.697 2.697 0 001.806.657zm13.151.53c-.15 0-.304-.107-.462-.321l-5.434-7.674v5.958c0 .632.032 1.065.098 1.297.018.038.098.084.238.14.149.046.308.088.476.125.168.028.28.042.336.042.028 0 .042.056.042.168a.575.575 0 01-.014.237c-.467-.019-.836-.033-1.106-.042a9.53 9.53 0 00-.505-.028l-1.61.07c-.028-.028-.042-.098-.042-.21 0-.13.014-.195.042-.195.093 0 .224-.014.392-.042.168-.037.327-.079.476-.125.15-.056.234-.112.252-.168.094-.223.14-.66.14-1.311V9.1c0-.474-.032-.823-.098-1.046-.018-.056-.102-.103-.252-.14a3.055 3.055 0 00-.462-.111 2.566 2.566 0 00-.392-.042c-.037 0-.056-.06-.056-.182 0-.111.019-.186.056-.223.364.01.663.019.896.028h1.177c.186-.01.345-.019.476-.028.177.316.658 1.047 1.442 2.19a499.723 499.723 0 003.305 4.647 3.34 3.34 0 00.042-.572v-4.34c0-.585-.032-.995-.098-1.227-.018-.056-.102-.107-.252-.154a3.552 3.552 0 00-.476-.111 1.928 1.928 0 00-.378-.056c-.037 0-.056-.056-.056-.168 0-.102.019-.172.056-.209.084 0 .224.01.42.028.196.01.406.023.63.042.234.01.435.014.603.014.242 0 .55-.014.924-.042.364-.028.579-.042.644-.042a.846.846 0 01.028.21c0 .11-.018.167-.056.167-.056 0-.173.018-.35.056a6.877 6.877 0 00-.504.125c-.15.047-.234.093-.252.14-.038.149-.066.33-.084.544a8.67 8.67 0 00-.028.753v5.303c0 .576.014 1.228.042 1.953-.038.037-.126.056-.266.056zm5.279.07a4.9 4.9 0 01-.714-.056 6.088 6.088 0 01-.63-.098 19.427 19.427 0 01-.756-.153c-.15-.047-.29-.08-.42-.098a26.863 26.863 0 01-.266-1.41 6.198 6.198 0 01-.085-.809c0-.055.075-.083.225-.083.168 0 .284.042.35.125.326 1.34 1.101 2.01 2.324 2.01.467 0 .864-.14 1.191-.419.327-.28.49-.674.49-1.186 0-.168-.037-.372-.112-.614-.065-.242-.219-.451-.462-.628a3.982 3.982 0 00-.462-.307 3.575 3.575 0 00-.364-.195 11.632 11.632 0 01-.463-.265l-.56-.335a9.686 9.686 0 01-.868-.6 3.344 3.344 0 01-.728-.81 1.97 1.97 0 01-.28-1.046c0-.493.126-.92.378-1.284.261-.372.597-.66 1.008-.865a3.07 3.07 0 011.359-.307c.205 0 .396.014.574.042.186.019.341.042.462.07.28.065.476.116.588.153.121.038.285.08.49.126.112.484.168 1.149.168 1.995 0 .065-.046.098-.14.098-.233 0-.355-.047-.364-.14a2.4 2.4 0 00-.308-.823 2.009 2.009 0 00-.644-.67 1.666 1.666 0 00-.967-.279c-.382 0-.681.075-.896.224a1.18 1.18 0 00-.462.544 1.854 1.854 0 00-.126.683c0 .233.056.466.168.698.112.233.275.428.49.586.29.214.579.414.869.6.298.186.606.377.924.572.299.186.597.396.896.628.299.223.546.48.742.768.206.288.308.623.308 1.004 0 .493-.135.935-.406 1.326-.27.381-.63.683-1.078.907a3.25 3.25 0 01-1.443.32z" fill="#fff"/></svg>