<svg width="392" height="396" fill="none" xmlns="http://www.w3.org/2000/svg"><g opacity=".2" clip-path="url(#clip0_17_498)" fill="#C6CAE7"><path d="M3.16 389.666A3.164 3.164 0 000 392.833 3.164 3.164 0 003.16 396a3.164 3.164 0 003.16-3.167 3.164 3.164 0 00-3.16-3.167zm25.946.222a2.936 2.936 0 012.693 1.84 2.95 2.95 0 01-.657 3.199 2.941 2.941 0 01-3.2.624 2.939 2.939 0 01-1.806-2.718 2.953 2.953 0 01.872-2.094 2.933 2.933 0 012.098-.851zm25.914.19a2.71 2.71 0 012.52 1.703c.135.334.202.692.198 1.052a2.76 2.76 0 01-1.705 2.548 2.74 2.74 0 01-3-.611 2.76 2.76 0 01.451-4.243 2.74 2.74 0 011.536-.449zm25.915.221a2.531 2.531 0 00-2.529 2.534 2.53 2.53 0 002.529 2.533 2.53 2.53 0 002.528-2.533 2.531 2.531 0 00-2.528-2.534zm25.914.222c.615 0 1.205.243 1.642.675a2.35 2.35 0 01.697 1.637 2.387 2.387 0 01-4.074 1.691 2.398 2.398 0 01-.699-1.691 2.308 2.308 0 012.434-2.312zm26.009.19c.416.012.819.147 1.159.388a2.127 2.127 0 01-.832 3.818 2.119 2.119 0 01-2.341-2.911 2.12 2.12 0 012.014-1.295zm25.851.222a1.898 1.898 0 00-1.896 1.9c0 1.049.849 1.9 1.896 1.9a1.898 1.898 0 001.896-1.9c0-1.049-.849-1.9-1.896-1.9zm25.914.221a1.674 1.674 0 011.547 1.037 1.683 1.683 0 01-.363 1.829 1.67 1.67 0 01-1.825.364 1.68 1.68 0 01.641-3.23zm25.914.191a1.486 1.486 0 011.485 1.488 1.49 1.49 0 01-1.485 1.489 1.461 1.461 0 01-1.039-.438 1.464 1.464 0 01-.415-1.051 1.464 1.464 0 01.89-1.375 1.46 1.46 0 01.564-.113zm25.946.221c-.698 0-1.264.567-1.264 1.267s.566 1.267 1.264 1.267c.698 0 1.264-.567 1.264-1.267s-.566-1.267-1.264-1.267zm25.946.222a1.04 1.04 0 01.917.687 1.043 1.043 0 01-.799 1.385 1.035 1.035 0 01-1.052-.453 1.047 1.047 0 01.934-1.619zm25.882.19a.85.85 0 01.789.528.86.86 0 01-.185.932.849.849 0 01-1.313-.13.856.856 0 01.709-1.33zm25.915.222a.632.632 0 100 1.265.632.632 0 000-1.265zm25.946.221a.41.41 0 01.411.412.413.413 0 01-.702.291.419.419 0 01-.089-.449.414.414 0 01.38-.254zm25.914.19a.221.221 0 01.221.222.22.22 0 11-.442 0c0-.059.023-.115.064-.157a.225.225 0 01.157-.065zM3.16 366.737A3.164 3.164 0 000 369.904a3.164 3.164 0 003.16 3.167 3.164 3.164 0 003.16-3.167 3.164 3.164 0 00-3.16-3.167zm25.946.222a2.971 2.971 0 012.747 1.845 2.982 2.982 0 01-.658 3.248 2.966 2.966 0 01-4.574-.486 2.98 2.98 0 01-.485-1.662 2.953 2.953 0 01.872-2.094 2.935 2.935 0 012.098-.851zm25.914.221a2.757 2.757 0 010 5.479 2.73 2.73 0 01-2.131-.689 2.764 2.764 0 01-.674-3.173 2.75 2.75 0 012.805-1.617zm25.915.317a2.528 2.528 0 012.335 1.564 2.538 2.538 0 01-1.842 3.455 2.528 2.528 0 01-3.022-2.485c0-.672.267-1.317.741-1.792a2.526 2.526 0 011.788-.742zm25.914 0a2.34 2.34 0 012.191 2.834 2.333 2.333 0 01-3.159 1.682 2.342 2.342 0 01-1.298-3.048 2.347 2.347 0 012.266-1.468zm26.009.317a2.084 2.084 0 012.086 2.09 2.126 2.126 0 01-1.293 1.986 2.115 2.115 0 01-2.903-1.548 2.123 2.123 0 012.11-2.528zm25.851.19a1.89 1.89 0 011.752 1.173 1.91 1.91 0 01-.411 2.071 1.908 1.908 0 01-.971.52 1.904 1.904 0 01-1.096-.108 1.908 1.908 0 01-.851-.7 1.907 1.907 0 01.236-2.4 1.896 1.896 0 011.341-.556zm25.914.221a1.712 1.712 0 011.602 1.041 1.71 1.71 0 01-1.245 2.348 1.711 1.711 0 01-2.032-1.71 1.678 1.678 0 011.675-1.679zm25.914.222a1.454 1.454 0 011.328 1.457 1.487 1.487 0 01-1.486 1.489 1.452 1.452 0 01-1.453-1.489 1.417 1.417 0 01.469-1.103 1.425 1.425 0 011.142-.354zm25.946.19a1.266 1.266 0 11-.894 2.163 1.27 1.27 0 01.894-2.163zm25.946.222a1.077 1.077 0 11-.464 2.1 1.079 1.079 0 01-.694-.585 1.077 1.077 0 011.158-1.515zm25.882.222c.17 0 .337.051.478.146a.86.86 0 01.114 1.325.855.855 0 11-.592-1.471zm25.915.19a.635.635 0 01.584.391.636.636 0 01-.137.69.634.634 0 01-.973-.096.638.638 0 01.079-.8.629.629 0 01.447-.185zm25.945.221a.41.41 0 01.38.254c.021.05.031.104.031.158a.41.41 0 01-.411.443.44.44 0 01-.408-.608.413.413 0 01.408-.247zm25.915.222a.19.19 0 01.189.19.22.22 0 01-.189.222.225.225 0 01-.157-.065.224.224 0 01-.064-.157.219.219 0 01.221-.19zM3.16 343.84A3.164 3.164 0 000 347.007a3.164 3.164 0 003.16 3.167 3.164 3.164 0 003.16-3.167 3.164 3.164 0 00-3.16-3.167zm25.946.19a2.966 2.966 0 012.744 1.837 2.983 2.983 0 01-.643 3.245 2.964 2.964 0 01-3.238.645 2.973 2.973 0 01-1.834-2.75c0-.79.313-1.547.87-2.105a2.965 2.965 0 012.101-.872zm25.914.221a2.756 2.756 0 01.536 5.458 2.743 2.743 0 01-2.822-1.172 2.757 2.757 0 01-.463-1.53 2.73 2.73 0 011.692-2.555 2.735 2.735 0 011.057-.201zm25.915.222a2.53 2.53 0 00-2.529 2.534 2.53 2.53 0 002.529 2.533 2.53 2.53 0 002.528-2.533 2.53 2.53 0 00-2.528-2.534zm25.914.19a2.337 2.337 0 012.329 2.781 2.345 2.345 0 01-1.83 1.859 2.336 2.336 0 01-2.806-2.296 2.344 2.344 0 012.307-2.344zm26.009.222a2.118 2.118 0 012.076 2.536 2.12 2.12 0 01-1.663 1.667 2.11 2.11 0 01-2.174-.902 2.125 2.125 0 01.263-2.68 2.117 2.117 0 011.498-.621zm25.851.222c-1.047 0-1.896.85-1.896 1.9 0 1.049.849 1.9 1.896 1.9a1.898 1.898 0 001.896-1.9c0-1.05-.849-1.9-1.896-1.9zm25.914.221a1.708 1.708 0 011.709 2.024 1.71 1.71 0 01-1.332 1.361 1.706 1.706 0 01-2.052-1.675 1.706 1.706 0 011.675-1.71zm25.914.19a1.478 1.478 0 011.187.346 1.49 1.49 0 01-.556 2.556 1.487 1.487 0 11-.631-2.902zm25.946.222c-.698 0-1.264.567-1.264 1.267a1.265 1.265 0 102.528 0c0-.7-.566-1.267-1.264-1.267zm25.946.19a1.077 1.077 0 11-.411 2.072 1.075 1.075 0 01-.664-.995 1.074 1.074 0 01.664-.995c.13-.054.27-.082.411-.082zm25.882.222a.85.85 0 01.789.528.86.86 0 01-.185.931.855.855 0 11-.604-1.459zm25.915.221a.633.633 0 10.002 1.266.633.633 0 00-.002-1.266zm25.945.19a.42.42 0 01.39.276.416.416 0 01.021.168.403.403 0 01-.12.291.414.414 0 01-.291.12.407.407 0 01-.408-.246.444.444 0 01.408-.609zm25.915.222a.22.22 0 01.189.222.19.19 0 01-.189.19.221.221 0 01-.221-.19.22.22 0 01.221-.222zM3.16 320.911A3.164 3.164 0 000 324.078a3.164 3.164 0 003.16 3.167 3.164 3.164 0 003.16-3.167 3.164 3.164 0 00-3.16-3.167zm25.946.19a2.966 2.966 0 012.744 1.837 2.983 2.983 0 01-.643 3.245 2.964 2.964 0 01-3.238.645 2.973 2.973 0 01-1.834-2.75c0-.79.313-1.547.87-2.105a2.965 2.965 0 012.101-.872zm25.914.221a2.756 2.756 0 01.536 5.458 2.743 2.743 0 01-2.822-1.172 2.757 2.757 0 01-.463-1.53 2.733 2.733 0 01.795-1.958 2.718 2.718 0 011.954-.798zm25.915.222a2.53 2.53 0 00-2.529 2.534 2.53 2.53 0 002.529 2.533 2.53 2.53 0 002.528-2.533 2.53 2.53 0 00-2.528-2.534zm25.914.19a2.337 2.337 0 012.329 2.781 2.345 2.345 0 01-1.83 1.859 2.336 2.336 0 01-2.806-2.296 2.344 2.344 0 012.307-2.344zm26.009.222a2.111 2.111 0 011.476.632c.391.398.609.932.609 1.49a2.121 2.121 0 01-2.101 1.863 2.116 2.116 0 01-2.102-1.863 2.115 2.115 0 012.118-2.122zm25.851.222c-1.047 0-1.896.85-1.896 1.9 0 1.049.849 1.9 1.896 1.9a1.898 1.898 0 001.896-1.9c0-1.05-.849-1.9-1.896-1.9zm25.914.19a1.7 1.7 0 011.599 1.033 1.709 1.709 0 01-2.213 2.26 1.715 1.715 0 01-1.061-1.583 1.712 1.712 0 011.675-1.71zm25.914.221c-.82 0-1.485.667-1.485 1.489 0 .822.665 1.488 1.485 1.488.82 0 1.485-.666 1.485-1.488s-.665-1.489-1.485-1.489zm25.946.222c-.698 0-1.264.567-1.264 1.267a1.265 1.265 0 102.528 0c0-.7-.566-1.267-1.264-1.267zm25.946.19a1.077 1.077 0 11-.411 2.072 1.075 1.075 0 01-.664-.995 1.074 1.074 0 01.664-.995c.13-.054.27-.082.411-.082zm25.882.158a.85.85 0 01.789.528.86.86 0 01-.185.932.855.855 0 11-.604-1.46zm25.915.285a.633.633 0 10.002 1.266.633.633 0 00-.002-1.266zm25.946.222a.411.411 0 100 .822.411.411 0 000-.822zm25.914.19a.22.22 0 01.189.222.19.19 0 01-.189.19.221.221 0 01-.221-.19.22.22 0 01.221-.222zM3.16 297.982A3.164 3.164 0 000 301.149a3.164 3.164 0 003.16 3.167 3.164 3.164 0 003.16-3.167 3.164 3.164 0 00-3.16-3.167zm25.946.221a2.945 2.945 0 11-1.163 5.664 2.945 2.945 0 01-1.58-3.853 2.95 2.95 0 011.609-1.596 2.94 2.94 0 011.134-.215zm25.914.19a2.756 2.756 0 01.536 5.458 2.743 2.743 0 01-2.822-1.171 2.762 2.762 0 01-.463-1.531 2.733 2.733 0 01.795-1.958 2.712 2.712 0 011.954-.798zm25.915.222a2.531 2.531 0 00-2.529 2.534 2.53 2.53 0 002.529 2.533 2.53 2.53 0 002.528-2.533 2.531 2.531 0 00-2.528-2.534zm25.914.222a2.31 2.31 0 00-2.307 2.312 2.31 2.31 0 002.307 2.312 2.31 2.31 0 002.307-2.312 2.31 2.31 0 00-2.307-2.312zm26.009.19a2.115 2.115 0 011.956 1.31 2.125 2.125 0 01-1.543 2.893 2.11 2.11 0 01-2.174-.903 2.127 2.127 0 01.263-2.679 2.117 2.117 0 011.498-.621zm25.851.221a1.899 1.899 0 00-1.896 1.901c0 1.049.849 1.9 1.896 1.9a1.898 1.898 0 001.896-1.9c0-1.05-.849-1.901-1.896-1.901zm25.914.222a1.674 1.674 0 011.547 1.036 1.687 1.687 0 01-.363 1.83 1.677 1.677 0 01-1.825.363 1.676 1.676 0 01-1.034-1.55 1.676 1.676 0 011.675-1.679zm25.914.19a1.489 1.489 0 010 2.977 1.488 1.488 0 010-2.977zm25.946.222c-.698 0-1.264.567-1.264 1.267 0 .699.566 1.267 1.264 1.267.698 0 1.264-.568 1.264-1.267 0-.7-.566-1.267-1.264-1.267zm25.946.222a1.035 1.035 0 01.94.666 1.046 1.046 0 01-.78 1.405 1.039 1.039 0 01-1.061-.449 1.048 1.048 0 01.492-1.552 1.02 1.02 0 01.409-.07zm25.882.19a.85.85 0 01.789.528.86.86 0 01-.185.931.855.855 0 11-.604-1.459zm25.915.221a.633.633 0 10.002 1.266.633.633 0 00-.002-1.266zm25.946.222a.411.411 0 100 .822.411.411 0 000-.822zm25.914.253a.221.221 0 01.221.222.22.22 0 11-.442 0c0-.059.023-.115.064-.157a.225.225 0 01.157-.065zM3.16 275.053A3.164 3.164 0 000 278.22a3.164 3.164 0 003.16 3.167 3.164 3.164 0 003.16-3.167 3.164 3.164 0 00-3.16-3.167zm25.946.221a2.97 2.97 0 012.748 1.845 2.985 2.985 0 01-.659 3.249 2.966 2.966 0 01-4.574-.486 2.981 2.981 0 01-.485-1.662 2.953 2.953 0 01.872-2.094 2.94 2.94 0 012.099-.852zm25.914.222a2.757 2.757 0 010 5.479 2.73 2.73 0 01-2.131-.689 2.764 2.764 0 01-.674-3.173 2.75 2.75 0 012.805-1.617zm25.915.19a2.531 2.531 0 00-2.529 2.534 2.53 2.53 0 002.529 2.533 2.53 2.53 0 002.528-2.533 2.531 2.531 0 00-2.528-2.534zm25.914.222a2.31 2.31 0 00-2.307 2.312 2.31 2.31 0 002.307 2.312 2.31 2.31 0 002.307-2.312 2.31 2.31 0 00-2.307-2.312zm26.009.222a2.084 2.084 0 012.086 2.09 2.126 2.126 0 01-1.293 1.985 2.107 2.107 0 01-2.322-.453 2.128 2.128 0 01.341-3.278 2.104 2.104 0 011.188-.344zm25.851.189a1.899 1.899 0 00-1.896 1.901c0 1.049.849 1.9 1.896 1.9a1.898 1.898 0 001.896-1.9c0-1.05-.849-1.901-1.896-1.901zm25.914.222a1.712 1.712 0 011.602 1.041 1.714 1.714 0 01-1.245 2.348 1.711 1.711 0 01-2.032-1.71 1.678 1.678 0 011.675-1.679zm25.914.222a1.467 1.467 0 011.049.415 1.465 1.465 0 01.436 1.042 1.486 1.486 0 01-1.485 1.488 1.443 1.443 0 01-1.039-.438 1.464 1.464 0 01-.415-1.05 1.427 1.427 0 011.454-1.457zm25.946.19c-.698 0-1.264.567-1.264 1.267 0 .699.566 1.267 1.264 1.267.698 0 1.264-.568 1.264-1.267 0-.7-.566-1.267-1.264-1.267zm25.946.222a1.072 1.072 0 01.891 1.06 1.08 1.08 0 01-.891 1.061 1.07 1.07 0 01-1.158-.606 1.082 1.082 0 01.282-1.278 1.08 1.08 0 01.876-.237zm25.882.221a.85.85 0 01.791.536.852.852 0 01-1.516.771.858.858 0 01.725-1.307zm25.915.19a.633.633 0 10.002 1.266.633.633 0 00-.002-1.266zm25.945.222a.409.409 0 01.411.412.414.414 0 01-.108.312.406.406 0 01-.303.131.441.441 0 01-.408-.609.417.417 0 01.242-.224.407.407 0 01.166-.022zm25.915.222c.05 0 .098.02.134.055a.193.193 0 01.055.135.22.22 0 01-.189.221.22.22 0 01-.221-.221.219.219 0 01.221-.19zM3.16 252.156A3.163 3.163 0 000 255.323a3.164 3.164 0 003.16 3.167 3.164 3.164 0 003.16-3.167 3.163 3.163 0 00-3.16-3.167zm25.946.189a2.967 2.967 0 012.744 1.838 2.983 2.983 0 01-.643 3.244 2.965 2.965 0 01-4.571-.451 2.98 2.98 0 012.47-4.631zm25.914.222a2.75 2.75 0 012.697 3.293 2.755 2.755 0 01-2.16 2.165 2.751 2.751 0 01-3.286-2.703 2.724 2.724 0 012.75-2.755zm25.915.222a2.53 2.53 0 012.48 3.028 2.535 2.535 0 01-1.987 1.99 2.52 2.52 0 01-2.596-1.077 2.54 2.54 0 01.315-3.199 2.526 2.526 0 011.788-.742zm25.914.19a2.34 2.34 0 012.329 2.781 2.345 2.345 0 01-1.83 1.858 2.328 2.328 0 01-1.355-.128 2.33 2.33 0 01-1.055-.862 2.351 2.351 0 01.277-2.952 2.339 2.339 0 011.634-.697zm26.009.222a2.115 2.115 0 011.956 1.309 2.126 2.126 0 01-1.543 2.894 2.128 2.128 0 01-1.224-.121 2.128 2.128 0 01-1.307-1.961 2.117 2.117 0 012.118-2.121zm25.851.285a1.896 1.896 0 011.896 1.9 1.902 1.902 0 01-1.896 1.9 1.898 1.898 0 01-1.896-1.9 1.9 1.9 0 011.896-1.9zm25.914 0a1.7 1.7 0 011.599 1.033 1.709 1.709 0 01-.349 1.875 1.716 1.716 0 01-.873.477 1.714 1.714 0 01-.991-.092 1.715 1.715 0 01-1.061-1.583 1.712 1.712 0 011.675-1.71zm25.914.348a1.48 1.48 0 011.567.853 1.492 1.492 0 01-.936 2.049 1.487 1.487 0 11-.631-2.902zm25.946.222a1.22 1.22 0 01.904.361 1.232 1.232 0 01.36.905 1.268 1.268 0 01-1.264 1.267 1.224 1.224 0 01-.903-.361 1.23 1.23 0 01-.361-.906 1.238 1.238 0 01.775-1.179c.156-.062.322-.092.489-.087zm25.946.19a1.077 1.077 0 11-.411 2.071 1.074 1.074 0 010-1.989c.13-.055.27-.082.411-.082zm25.882.221a.85.85 0 01.789.528.86.86 0 01-.185.932.855.855 0 11-.604-1.46zm25.915.222a.596.596 0 01.593.386c.03.079.044.163.039.247a.635.635 0 01-.632.634.631.631 0 01-.632-.634.596.596 0 01.175-.458.608.608 0 01.457-.175zm25.945.19a.406.406 0 01.303.132.415.415 0 01.108.311.412.412 0 01-.411.412.391.391 0 01-.166-.022.399.399 0 01-.242-.224.444.444 0 01.408-.609zm25.915.222a.22.22 0 01.189.221c0 .051-.02.099-.055.135a.193.193 0 01-.134.055.215.215 0 01-.146-.053.216.216 0 01-.075-.137.222.222 0 01.221-.221zM3.16 229.227A3.163 3.163 0 000 232.394a3.164 3.164 0 003.16 3.167 3.164 3.164 0 003.16-3.167 3.163 3.163 0 00-3.16-3.167zm25.946.189a2.967 2.967 0 012.744 1.838 2.983 2.983 0 01-.643 3.244 2.965 2.965 0 01-4.571-.451 2.98 2.98 0 012.47-4.631zm25.914.222a2.75 2.75 0 012.697 3.293 2.755 2.755 0 01-2.16 2.165 2.751 2.751 0 01-3.286-2.703 2.724 2.724 0 012.75-2.755zm25.915.222a2.53 2.53 0 00-2.529 2.533 2.53 2.53 0 002.529 2.534 2.53 2.53 0 002.528-2.534 2.53 2.53 0 00-2.528-2.533zm25.914.19a2.34 2.34 0 012.329 2.781 2.345 2.345 0 01-1.83 1.858 2.328 2.328 0 01-1.355-.128 2.33 2.33 0 01-1.055-.862 2.351 2.351 0 01.277-2.952 2.339 2.339 0 011.634-.697zm26.009.222a2.121 2.121 0 012.085 2.121 2.121 2.121 0 01-2.101 1.864 2.116 2.116 0 01-2.102-1.864 2.115 2.115 0 012.118-2.121zm25.851.221a1.899 1.899 0 00-1.896 1.901c0 1.049.849 1.9 1.896 1.9a1.898 1.898 0 001.896-1.9c0-1.05-.849-1.901-1.896-1.901zm25.914.19a1.708 1.708 0 011.709 2.024 1.71 1.71 0 01-1.332 1.361 1.706 1.706 0 01-2.052-1.675 1.706 1.706 0 011.675-1.71zm25.914.222a1.488 1.488 0 011.372 2.053 1.465 1.465 0 01-.806.791c-.18.071-.372.105-.566.101a1.413 1.413 0 01-1.037-.417 1.427 1.427 0 01-.417-1.04 1.468 1.468 0 01.415-1.05 1.444 1.444 0 011.039-.438zm25.946.222c-.698 0-1.264.567-1.264 1.267a1.265 1.265 0 102.528 0c0-.7-.566-1.267-1.264-1.267zm25.946.19a1.077 1.077 0 11-.411 2.071 1.074 1.074 0 010-1.989c.13-.054.27-.082.411-.082zm25.882.221a.858.858 0 01.789.528.86.86 0 01-.185.932.855.855 0 11-.604-1.46zm25.915.222a.633.633 0 10.002 1.266.633.633 0 00-.002-1.266zm25.945.19a.42.42 0 01.39.276.414.414 0 01.021.167.412.412 0 01-.411.412.391.391 0 01-.166-.022.399.399 0 01-.242-.224.444.444 0 01.408-.609zm25.915.222a.22.22 0 01.189.221c0 .051-.02.099-.055.135a.193.193 0 01-.134.055.215.215 0 01-.146-.053.216.216 0 01-.075-.137.222.222 0 01.221-.221zM3.16 206.297A3.164 3.164 0 000 209.464a3.164 3.164 0 003.16 3.167 3.164 3.164 0 003.16-3.167 3.164 3.164 0 00-3.16-3.167zm25.946.222a2.937 2.937 0 012.693 1.84 2.952 2.952 0 01-.657 3.199 2.934 2.934 0 01-4.513-.46 2.95 2.95 0 011.343-4.364 2.94 2.94 0 011.134-.215zm25.914.19a2.75 2.75 0 012.697 3.293 2.755 2.755 0 01-2.16 2.165 2.743 2.743 0 01-2.823-1.172 2.76 2.76 0 01-.463-1.531 2.724 2.724 0 012.75-2.755zm25.915.222a2.53 2.53 0 00-2.529 2.533 2.53 2.53 0 002.529 2.534 2.53 2.53 0 002.528-2.534 2.53 2.53 0 00-2.528-2.533zm25.914.222a2.31 2.31 0 011.631 3.946 2.302 2.302 0 01-3.263 0 2.315 2.315 0 011.632-3.946zm26.009.19a2.115 2.115 0 011.956 1.31 2.122 2.122 0 01-2.767 2.772 2.128 2.128 0 01-1.307-1.96 2.117 2.117 0 012.118-2.122zm25.851.221a1.899 1.899 0 00-1.896 1.901c0 1.049.849 1.9 1.896 1.9a1.898 1.898 0 001.896-1.9c0-1.05-.849-1.901-1.896-1.901zm25.914.222a1.674 1.674 0 011.547 1.036 1.672 1.672 0 01-.363 1.829 1.672 1.672 0 01-2.577-.254 1.68 1.68 0 011.393-2.611zm25.914.19c-.82 0-1.485.666-1.485 1.488s.665 1.489 1.485 1.489c.82 0 1.485-.667 1.485-1.489 0-.822-.665-1.488-1.485-1.488zm25.946.222c-.698 0-1.264.567-1.264 1.266 0 .7.566 1.267 1.264 1.267.698 0 1.264-.567 1.264-1.267 0-.699-.566-1.266-1.264-1.266zm25.946.221a1.048 1.048 0 01.941.667 1.045 1.045 0 01-1.842.956 1.05 1.05 0 01.492-1.552c.131-.051.27-.075.409-.071zm25.882.19c.169 0 .334.051.474.145a.849.849 0 01.363.877.856.856 0 01-.67.672.849.849 0 01-.876-.363.856.856 0 01.709-1.331zm25.915.222a.633.633 0 10.002 1.266.633.633 0 00-.002-1.266zm25.946.317a.41.41 0 01.411.411.41.41 0 11-.822 0 .412.412 0 01.411-.411zm25.914 0c.059 0 .115.023.156.065a.22.22 0 010 .313.22.22 0 11-.313-.313.22.22 0 01.157-.065zM3.16 183.368A3.164 3.164 0 000 186.535a3.164 3.164 0 003.16 3.167 3.164 3.164 0 003.16-3.167 3.164 3.164 0 00-3.16-3.167zm25.946.222a2.97 2.97 0 012.748 1.845 2.985 2.985 0 01-.659 3.248 2.96 2.96 0 01-3.248.625 2.981 2.981 0 01-1.812-2.772 2.95 2.95 0 011.837-2.731 2.94 2.94 0 011.134-.215zm25.914.222a2.751 2.751 0 012.456 2.739 2.757 2.757 0 01-2.456 2.74 2.748 2.748 0 01-2.805-1.617 2.765 2.765 0 01.674-3.173 2.757 2.757 0 012.131-.689zm25.915.19a2.53 2.53 0 00-2.529 2.533 2.53 2.53 0 002.529 2.534 2.53 2.53 0 002.528-2.534 2.53 2.53 0 00-2.528-2.533zm25.914.222a2.31 2.31 0 00-2.307 2.312 2.31 2.31 0 002.307 2.311 2.31 2.31 0 002.307-2.311 2.31 2.31 0 00-2.307-2.312zm26.009.221a2.084 2.084 0 012.086 2.09 2.13 2.13 0 01-1.293 1.986 2.107 2.107 0 01-1.23.128 2.12 2.12 0 01-1.545-2.909 2.115 2.115 0 011.982-1.295zm25.851.19a1.899 1.899 0 00-1.896 1.901c0 1.049.849 1.9 1.896 1.9a1.898 1.898 0 001.896-1.9c0-1.05-.849-1.901-1.896-1.901zm25.914.222a1.712 1.712 0 011.602 1.041 1.707 1.707 0 11-3.277.638 1.674 1.674 0 011.675-1.679zm25.914.19c-.82 0-1.485.666-1.485 1.488 0 .823.665 1.489 1.485 1.489.82 0 1.485-.666 1.485-1.489 0-.822-.665-1.488-1.485-1.488zm25.946.222c-.698 0-1.264.567-1.264 1.266 0 .7.566 1.267 1.264 1.267.698 0 1.264-.567 1.264-1.267 0-.699-.566-1.266-1.264-1.266zm25.946.221a1.078 1.078 0 010 2.122 1.07 1.07 0 01-1.158-.606 1.085 1.085 0 010-.909 1.086 1.086 0 01.694-.585c.151-.041.31-.048.464-.022zm25.882.222a.85.85 0 01.791.536.852.852 0 01-1.516.771.858.858 0 01.725-1.307zm25.915.19a.633.633 0 10.002 1.266.633.633 0 00-.002-1.266zm25.946.222a.411.411 0 100 .822.411.411 0 000-.822zm25.914.222c.05 0 .098.02.134.055a.193.193 0 01.055.135.22.22 0 01-.189.221.22.22 0 01-.221-.221.216.216 0 01.075-.137.215.215 0 01.146-.053zM3.16 160.471A3.164 3.164 0 000 163.638a3.164 3.164 0 003.16 3.167 3.164 3.164 0 003.16-3.167 3.164 3.164 0 00-3.16-3.167zm25.946.19a2.967 2.967 0 012.744 1.838 2.983 2.983 0 01-.643 3.244 2.965 2.965 0 01-4.571-.451 2.98 2.98 0 012.47-4.631zm25.914.222a2.75 2.75 0 012.697 3.293 2.755 2.755 0 01-2.16 2.165 2.751 2.751 0 01-3.286-2.703 2.724 2.724 0 012.75-2.755zm25.915.222a2.53 2.53 0 00-2.529 2.533 2.53 2.53 0 002.529 2.534 2.53 2.53 0 002.528-2.534 2.53 2.53 0 00-2.528-2.533zm25.914.221a2.31 2.31 0 00-2.307 2.312 2.31 2.31 0 002.307 2.312 2.31 2.31 0 002.307-2.312 2.31 2.31 0 00-2.307-2.312zm26.009.317a2.118 2.118 0 012.076 2.536 2.12 2.12 0 01-1.663 1.667 2.11 2.11 0 01-2.174-.902 2.125 2.125 0 01.263-2.68 2.121 2.121 0 011.498-.621zm25.851.095a1.898 1.898 0 00-1.896 1.9c0 1.05.849 1.9 1.896 1.9s1.896-.85 1.896-1.9c0-1.049-.849-1.9-1.896-1.9zm25.914.19a1.708 1.708 0 011.709 2.024 1.71 1.71 0 01-1.332 1.361 1.706 1.706 0 01-2.052-1.675c0-.448.176-.878.489-1.198.313-.32.739-.504 1.186-.512zm25.914.222a1.478 1.478 0 011.187.346 1.49 1.49 0 01-.556 2.556 1.484 1.484 0 01-1.9-1.43 1.487 1.487 0 011.269-1.472zm25.946.221c-.698 0-1.264.568-1.264 1.267 0 .7.566 1.267 1.264 1.267.698 0 1.264-.567 1.264-1.267 0-.699-.566-1.267-1.264-1.267zm25.946.191a1.077 1.077 0 11-.411 2.071 1.077 1.077 0 01.411-2.071zm25.882.221a.85.85 0 01.789.528.86.86 0 01-.185.932.855.855 0 11-.604-1.46zm25.915.222a.633.633 0 10.002 1.266.633.633 0 00-.002-1.266zm25.945.19a.406.406 0 01.303.131.41.41 0 01.108.312.412.412 0 01-.411.412.407.407 0 01-.311-.109.406.406 0 01-.131-.303.442.442 0 01.442-.443zm25.915.221a.222.222 0 01.189.222.19.19 0 01-.189.19.219.219 0 01-.221-.19c0-.059.023-.115.064-.157a.225.225 0 01.157-.065zM3.16 137.542A3.164 3.164 0 000 140.709a3.164 3.164 0 003.16 3.167 3.164 3.164 0 003.16-3.167 3.164 3.164 0 00-3.16-3.167zm25.946.19a2.967 2.967 0 012.744 1.838 2.983 2.983 0 01-.643 3.244 2.965 2.965 0 01-4.571-.451 2.98 2.98 0 012.47-4.631zm25.914.222a2.75 2.75 0 012.697 3.293 2.755 2.755 0 01-2.16 2.165 2.751 2.751 0 01-3.286-2.703 2.724 2.724 0 012.75-2.755zm25.915.222a2.53 2.53 0 00-2.529 2.533 2.53 2.53 0 002.529 2.534 2.53 2.53 0 002.528-2.534 2.53 2.53 0 00-2.528-2.533zm25.914.19a2.343 2.343 0 011.696 3.989 2.335 2.335 0 01-3.607-.341 2.348 2.348 0 01.277-2.951 2.334 2.334 0 011.634-.697zm26.009.221a2.116 2.116 0 012.085 2.122 2.115 2.115 0 01-3.504 1.331 2.128 2.128 0 01-.699-1.331 2.123 2.123 0 012.118-2.122zm25.851.222a1.89 1.89 0 011.752 1.173 1.91 1.91 0 01-.411 2.071 1.894 1.894 0 01-2.918-.288 1.907 1.907 0 01.236-2.399 1.893 1.893 0 011.341-.557zm25.914.19a1.708 1.708 0 011.709 2.024 1.71 1.71 0 01-1.332 1.361 1.706 1.706 0 01-2.052-1.675c0-.448.176-.878.489-1.198.313-.32.739-.504 1.186-.512zm25.914.222a1.488 1.488 0 011.372 2.053 1.451 1.451 0 01-1.372.892 1.417 1.417 0 01-1.037-.417 1.427 1.427 0 01-.417-1.04 1.468 1.468 0 01.415-1.05 1.444 1.444 0 011.039-.438zm25.946.253a1.266 1.266 0 11-.894 2.163 1.27 1.27 0 01.894-2.163zm25.946 0a1.07 1.07 0 01.993.665 1.085 1.085 0 01-.233 1.173 1.079 1.079 0 01-1.171.234 1.075 1.075 0 01-.664-.995 1.074 1.074 0 01.664-.995c.13-.054.27-.082.411-.082zm25.882.38a.85.85 0 01.789.528.86.86 0 01-.185.932.849.849 0 01-1.313-.13.853.853 0 01.709-1.33zm25.915.222a.632.632 0 100 1.265.632.632 0 000-1.265zm25.945.19a.406.406 0 01.303.131.411.411 0 01.108.312.412.412 0 01-.411.412.407.407 0 01-.311-.109.42.42 0 01-.131-.303.444.444 0 01.442-.443zm25.915.221a.222.222 0 01.189.222c0 .051-.02.099-.055.135a.193.193 0 01-.134.055.219.219 0 01-.221-.19c0-.059.023-.115.064-.157a.225.225 0 01.157-.065zM3.16 114.613A3.164 3.164 0 000 117.78a3.164 3.164 0 003.16 3.167 3.164 3.164 0 003.16-3.167 3.164 3.164 0 00-3.16-3.167zm25.946.222a2.94 2.94 0 012.693 1.84 2.952 2.952 0 01-.657 3.199 2.934 2.934 0 01-4.513-.461 2.948 2.948 0 011.343-4.363 2.94 2.94 0 011.134-.215zm25.914.19a2.743 2.743 0 012.54 1.701 2.76 2.76 0 01-.596 3.002 2.74 2.74 0 01-2.996.598 2.755 2.755 0 01-1.697-2.546 2.724 2.724 0 012.75-2.755zm25.915.222a2.53 2.53 0 012.48 3.027 2.53 2.53 0 01-3.447 1.847 2.535 2.535 0 01.967-4.874zm25.914.221a2.307 2.307 0 012.307 2.312 2.317 2.317 0 01-1.424 2.136 2.307 2.307 0 01-3.19-2.136 2.309 2.309 0 012.307-2.312zm26.009.19a2.116 2.116 0 011.956 1.31 2.126 2.126 0 01-1.543 2.893 2.119 2.119 0 01-2.174-.902 2.123 2.123 0 011.761-3.301zm25.851.222a1.898 1.898 0 00-1.896 1.9c0 1.05.849 1.9 1.896 1.9s1.896-.85 1.896-1.9c0-1.049-.849-1.9-1.896-1.9zm25.914.222c.331 0 .655.098.93.283a1.686 1.686 0 01.713 1.723 1.68 1.68 0 01-1.316 1.318 1.67 1.67 0 01-1.72-.713 1.683 1.683 0 01.209-2.12c.314-.314.74-.491 1.184-.491zm25.914.19a1.485 1.485 0 011.372 2.058 1.471 1.471 0 01-.803.805 1.486 1.486 0 01-1.619-.322 1.489 1.489 0 011.05-2.541zm25.946.222c-.698 0-1.264.567-1.264 1.266 0 .7.566 1.267 1.264 1.267.698 0 1.264-.567 1.264-1.267 0-.699-.566-1.266-1.264-1.266zm25.946.221a1.04 1.04 0 01.941.667 1.045 1.045 0 01-1.842.956 1.05 1.05 0 01.492-1.552c.131-.051.27-.075.409-.071zm25.883.19a.852.852 0 01.837 1.022.861.861 0 01-.671.672.85.85 0 01-.876-.364.854.854 0 01.71-1.33zm25.914.222a.628.628 0 01.584.391.637.637 0 01-.137.69.627.627 0 01-.689.137.634.634 0 01.242-1.218zm25.946.158a.41.41 0 01.411.412.413.413 0 01-.702.291.412.412 0 01.291-.703zm25.914.254c.059 0 .115.023.156.065a.22.22 0 11-.156-.065zM3.16 91.684A3.164 3.164 0 000 94.851a3.164 3.164 0 003.16 3.167 3.164 3.164 0 003.16-3.167 3.164 3.164 0 00-3.16-3.167zm25.946.286a2.966 2.966 0 012.748 1.845 2.983 2.983 0 01-.659 3.248 2.968 2.968 0 01-5.06-2.148 2.95 2.95 0 011.837-2.73c.36-.147.746-.22 1.134-.216zm25.914 0a2.747 2.747 0 011.752.898 2.758 2.758 0 01-1.752 4.58 2.744 2.744 0 01-2.805-1.617 2.76 2.76 0 011.666-3.744 2.744 2.744 0 011.14-.118zm25.915.348a2.531 2.531 0 00-2.529 2.533c0 1.4 1.132 2.534 2.529 2.534a2.53 2.53 0 002.528-2.534 2.53 2.53 0 00-2.528-2.533zm25.914.222a2.336 2.336 0 012.186 1.431c.181.43.23.904.14 1.361a2.342 2.342 0 01-1.846 1.85 2.333 2.333 0 01-2.406-1.017 2.345 2.345 0 011.926-3.626zm26.009.221a2.084 2.084 0 012.086 2.09 2.13 2.13 0 01-1.293 1.986 2.113 2.113 0 01-2.322-.454 2.125 2.125 0 01.341-3.277 2.113 2.113 0 011.188-.345zm25.851.19c-1.047 0-1.896.85-1.896 1.9 0 1.05.849 1.9 1.896 1.9s1.896-.85 1.896-1.9c0-1.05-.849-1.9-1.896-1.9zm25.914.222a1.706 1.706 0 011.602 1.04 1.71 1.71 0 01-1.245 2.348 1.703 1.703 0 01-1.758-.748 1.715 1.715 0 01-.274-.962 1.677 1.677 0 011.675-1.678zm25.914.221a1.45 1.45 0 011.372.892 1.488 1.488 0 01-1.372 2.053 1.455 1.455 0 01-1.454-1.488 1.433 1.433 0 01.893-1.355c.178-.071.369-.106.561-.102zm25.946.191a1.265 1.265 0 000 2.534 1.266 1.266 0 000-2.534zm25.946.221a1.074 1.074 0 01.891 1.061 1.079 1.079 0 01-1.355 1.04 1.08 1.08 0 01-.694-.586 1.08 1.08 0 01.694-1.493 1.07 1.07 0 01.464-.022zm25.882.222a.854.854 0 11-.001 1.709.854.854 0 01.001-1.71zm25.915.19a.633.633 0 10.001 1.265.633.633 0 00-.001-1.265zm25.946.222a.41.41 0 01.411.411.41.41 0 01-.411.285.441.441 0 01-.443-.443.412.412 0 01.443-.254zm25.914.221c.05 0 .099.02.134.056a.189.189 0 01.056.134.226.226 0 01-.028.188.219.219 0 01-.162.097.22.22 0 01-.221-.222.22.22 0 01.221-.253zM3.16 68.787A3.164 3.164 0 000 71.954a3.164 3.164 0 003.16 3.167 3.164 3.164 0 003.16-3.167 3.164 3.164 0 00-3.16-3.167zm25.946.19a2.966 2.966 0 012.744 1.838 2.983 2.983 0 01-.643 3.244 2.97 2.97 0 01-5.072-2.105c0-.79.313-1.547.87-2.105a2.967 2.967 0 012.101-.872zm25.914.222a2.746 2.746 0 012.54 1.7 2.76 2.76 0 01-.596 3.003 2.747 2.747 0 01-4.693-1.948 2.727 2.727 0 011.692-2.554 2.712 2.712 0 011.057-.201zm25.915.221a2.53 2.53 0 00-2.529 2.534c0 1.4 1.132 2.534 2.529 2.534a2.53 2.53 0 002.528-2.534 2.53 2.53 0 00-2.528-2.534zm25.914.222a2.31 2.31 0 00-2.307 2.312 2.31 2.31 0 002.307 2.312 2.31 2.31 0 002.307-2.312 2.31 2.31 0 00-2.307-2.312zm26.009.158a2.115 2.115 0 011.956 1.31 2.126 2.126 0 01-1.543 2.893 2.115 2.115 0 01-2.174-.902 2.124 2.124 0 01.263-2.68 2.118 2.118 0 011.498-.62zm25.851.254c-1.047 0-1.896.85-1.896 1.9 0 1.05.849 1.9 1.896 1.9s1.896-.85 1.896-1.9c0-1.05-.849-1.9-1.896-1.9zm25.914.19a1.705 1.705 0 011.599 1.033 1.707 1.707 0 01-.349 1.875 1.711 1.711 0 01-1.864.385 1.711 1.711 0 01.614-3.293zm25.914.221c-.82 0-1.485.667-1.485 1.489 0 .822.665 1.488 1.485 1.488.82 0 1.485-.666 1.485-1.488s-.665-1.489-1.485-1.489zm25.946.222c-.698 0-1.264.567-1.264 1.267s.566 1.267 1.264 1.267c.698 0 1.264-.568 1.264-1.267 0-.7-.566-1.267-1.264-1.267zm25.946.19a1.075 1.075 0 01.76 1.838 1.078 1.078 0 01-1.171.234 1.07 1.07 0 01-.482-.397 1.072 1.072 0 01.133-1.36 1.071 1.071 0 01.76-.315zm25.883.222a.853.853 0 01.603 1.46.849.849 0 01-.93.185.855.855 0 01.327-1.645zm25.914.221a.633.633 0 10.001 1.266.633.633 0 00-.001-1.265zm25.946.222a.411.411 0 100 .823.411.411 0 000-.823zm25.914.19a.22.22 0 01.189.222.19.19 0 01-.055.134.19.19 0 01-.134.056.218.218 0 01-.146-.053.217.217 0 01-.075-.137c0-.059.023-.115.064-.157a.223.223 0 01.157-.065zM3.16 45.858A3.164 3.164 0 000 49.025a3.164 3.164 0 003.16 3.167 3.164 3.164 0 003.16-3.167 3.164 3.164 0 00-3.16-3.167zm25.946.19a2.966 2.966 0 012.744 1.838 2.983 2.983 0 01-.643 3.244 2.968 2.968 0 01-5.072-2.105c0-.79.313-1.547.87-2.105a2.967 2.967 0 012.101-.872zm25.914.222a2.745 2.745 0 012.54 1.7 2.76 2.76 0 01-.596 3.003 2.748 2.748 0 01-4.693-1.948 2.727 2.727 0 011.692-2.554 2.713 2.713 0 011.057-.201zm25.915.221a2.531 2.531 0 00-2.529 2.534c0 1.4 1.132 2.534 2.529 2.534a2.53 2.53 0 002.528-2.534 2.53 2.53 0 00-2.528-2.534zm25.914.19a2.342 2.342 0 011.696 3.99 2.336 2.336 0 01-4.003-1.646 2.338 2.338 0 012.307-2.344zm26.009.222a2.121 2.121 0 012.085 2.122 2.115 2.115 0 01-4.203 0 2.116 2.116 0 012.118-2.122zm25.851.222c-1.047 0-1.896.85-1.896 1.9 0 1.05.849 1.9 1.896 1.9s1.896-.85 1.896-1.9c0-1.05-.849-1.9-1.896-1.9zm25.914.19a1.706 1.706 0 011.709 2.024 1.711 1.711 0 01-1.332 1.36 1.706 1.706 0 01-2.052-1.674c0-.448.176-.878.489-1.198.313-.32.739-.504 1.186-.512zm25.914.317a1.488 1.488 0 011.372 2.053 1.462 1.462 0 01-.806.79 1.45 1.45 0 01-.566.102 1.417 1.417 0 01-1.037-.417 1.43 1.43 0 01-.417-1.04 1.468 1.468 0 01.415-1.05 1.453 1.453 0 011.039-.438zm25.946.126c-.698 0-1.264.567-1.264 1.267s.566 1.267 1.264 1.267c.698 0 1.264-.567 1.264-1.267s-.566-1.267-1.264-1.267zm25.946.19a1.075 1.075 0 01.76 1.838 1.077 1.077 0 01-1.171.234 1.07 1.07 0 01-.482-.397 1.072 1.072 0 01.133-1.36 1.071 1.071 0 01.76-.315zm25.883.222a.849.849 0 01.788.528.855.855 0 01-1.392.932.856.856 0 01.604-1.46zm25.914.222a.633.633 0 10.002 1.265.633.633 0 00-.002-1.265zm25.945.19a.408.408 0 01.39.276.41.41 0 01.021.167.412.412 0 01-.411.412.407.407 0 01-.311-.109.426.426 0 01-.131-.303.444.444 0 01.442-.443zm25.915.221a.22.22 0 01.189.222.19.19 0 01-.189.19.218.218 0 01-.146-.053.217.217 0 01-.075-.137c0-.059.023-.115.064-.157a.223.223 0 01.157-.065zM3.16 22.929A3.164 3.164 0 000 26.096a3.164 3.164 0 003.16 3.167 3.164 3.164 0 003.16-3.167 3.164 3.164 0 00-3.16-3.167zm25.946.221a2.935 2.935 0 012.693 1.84 2.952 2.952 0 01-.657 3.2 2.937 2.937 0 01-5.006-2.094 2.95 2.95 0 011.836-2.73 2.92 2.92 0 011.134-.215zm25.914.19a2.746 2.746 0 012.54 1.702 2.76 2.76 0 01-.596 3.002 2.747 2.747 0 01-4.693-1.948 2.727 2.727 0 011.692-2.554 2.713 2.713 0 011.057-.201zm25.915.223a2.53 2.53 0 00-2.529 2.533c0 1.4 1.132 2.534 2.529 2.534a2.53 2.53 0 002.528-2.534 2.53 2.53 0 00-2.528-2.534zm25.914.221a2.313 2.313 0 010 4.624 2.306 2.306 0 01-2.307-2.312 2.306 2.306 0 012.307-2.312zm26.009.19a2.115 2.115 0 011.956 1.31 2.126 2.126 0 01-1.543 2.893 2.115 2.115 0 01-2.174-.902 2.124 2.124 0 01.263-2.68 2.118 2.118 0 011.498-.621zm25.851.222c-1.047 0-1.896.85-1.896 1.9 0 1.05.849 1.9 1.896 1.9s1.896-.85 1.896-1.9c0-1.05-.849-1.9-1.896-1.9zm25.914.221a1.67 1.67 0 011.547 1.037 1.678 1.678 0 01-2.188 2.193 1.676 1.676 0 01-1.034-1.551 1.677 1.677 0 011.675-1.679zm25.914.191a1.488 1.488 0 010 2.977 1.488 1.488 0 010-2.977zm25.946.222a1.265 1.265 0 000 2.534 1.267 1.267 0 000-2.535zm25.946.22a1.045 1.045 0 11-.901 1.623 1.047 1.047 0 01.901-1.622zm25.883.191a.853.853 0 01.837 1.022.86.86 0 01-.671.672.852.852 0 01-1.02-.839.856.856 0 01.854-.855zm25.914.222a.633.633 0 10.001 1.265.633.633 0 00-.001-1.265zm25.946.221a.41.41 0 01.411.412.413.413 0 01-.702.291.412.412 0 01.291-.703zm25.914.19c.059 0 .115.024.156.065a.22.22 0 010 .314.223.223 0 01-.313 0 .223.223 0 010-.314.223.223 0 01.157-.065zM3.16 0A3.164 3.164 0 000 3.167a3.164 3.164 0 003.16 3.167 3.164 3.164 0 003.16-3.167A3.164 3.164 0 003.16 0zm25.946.127a2.966 2.966 0 012.748 1.845 2.983 2.983 0 01-.659 3.248 2.969 2.969 0 01-5.06-2.148 2.95 2.95 0 011.837-2.73 2.92 2.92 0 011.134-.215zM55.02.444a2.748 2.748 0 011.752.898 2.759 2.759 0 01-1.752 4.58 2.744 2.744 0 01-2.805-1.617A2.76 2.76 0 0153.881.561a2.744 2.744 0 011.14-.117zm25.915.19a2.525 2.525 0 012.335 1.564 2.538 2.538 0 01-.548 2.76 2.527 2.527 0 01-4.316-1.79c0-.673.267-1.317.741-1.792a2.525 2.525 0 011.788-.742zm25.914.221a2.338 2.338 0 012.081 1.49 2.346 2.346 0 01-1.698 3.145 2.334 2.334 0 01-2.383-.931 2.35 2.35 0 01.249-3.02 2.336 2.336 0 011.751-.684zm26.009.222a2.084 2.084 0 012.086 2.09 2.13 2.13 0 01-1.293 1.986 2.112 2.112 0 01-2.322-.454 2.126 2.126 0 01.341-3.278 2.12 2.12 0 011.188-.344zm25.851.19a1.892 1.892 0 011.752 1.173 1.91 1.91 0 01-.411 2.07 1.898 1.898 0 01-2.067.413 1.903 1.903 0 01-.615-3.1 1.895 1.895 0 011.341-.556zm25.914.221a1.706 1.706 0 011.707 2.036 1.71 1.71 0 01-2.343 1.248 1.714 1.714 0 01-1.039-1.605 1.677 1.677 0 011.675-1.679zm25.914.222a1.48 1.48 0 011.567.853 1.488 1.488 0 01-2.475 1.593 1.49 1.49 0 01.908-2.446zm25.946.19a1.263 1.263 0 011.264 1.267 1.268 1.268 0 01-1.264 1.267 1.263 1.263 0 01-1.264-1.267 1.268 1.268 0 011.264-1.267zm25.946.222a1.074 1.074 0 01.891 1.06 1.079 1.079 0 01-1.355 1.04 1.078 1.078 0 010-2.079c.151-.04.31-.048.464-.021zm25.882.222a.855.855 0 11-.002 1.71.855.855 0 01.002-1.71zm25.915.19a.63.63 0 01.62.756.634.634 0 01-1.146.228.637.637 0 01.079-.799.63.63 0 01.447-.185zm25.945.221a.411.411 0 01.411.412.413.413 0 01-.108.312.418.418 0 01-.303.131.44.44 0 01-.408-.608.414.414 0 01.408-.246zm25.915.222c.05 0 .098.02.134.056a.192.192 0 01.055.134.219.219 0 01-.189.127.223.223 0 01-.157-.065.223.223 0 01-.064-.157.217.217 0 01.221-.095z"/></g><defs><clipPath id="clip0_17_498"><path fill="#fff" transform="rotate(-180 196 198)" d="M0 0h392v396H0z"/></clipPath></defs></svg>