<svg width="392" height="396" fill="none" xmlns="http://www.w3.org/2000/svg"><g opacity=".2" clip-path="url(#clip0_17_769)" fill="#C6CAE7"><path d="M388.84 389.666a3.164 3.164 0 013.16 3.167 3.164 3.164 0 01-3.16 3.167 3.164 3.164 0 01-3.16-3.167 3.164 3.164 0 013.16-3.167zm-25.946.222a2.934 2.934 0 00-2.693 1.84 2.946 2.946 0 002.163 3.996 2.93 2.93 0 003.007-1.258 2.947 2.947 0 00-2.477-4.578zm-25.914.19a2.712 2.712 0 00-2.52 1.703 2.728 2.728 0 00-.198 1.052 2.757 2.757 0 001.705 2.548 2.737 2.737 0 003-.611 2.762 2.762 0 00-.451-4.243 2.74 2.74 0 00-1.536-.449zm-25.915.221a2.532 2.532 0 012.529 2.534 2.53 2.53 0 01-2.529 2.533 2.53 2.53 0 01-2.528-2.533 2.531 2.531 0 012.528-2.534zm-25.914.222c-.615 0-1.205.243-1.642.675a2.35 2.35 0 00-.697 1.637 2.387 2.387 0 004.074 1.691 2.398 2.398 0 00.699-1.691 2.308 2.308 0 00-2.434-2.312zm-26.009.19a2.109 2.109 0 00-1.159.388 2.127 2.127 0 00.832 3.818 2.119 2.119 0 002.341-2.911 2.12 2.12 0 00-2.014-1.295zm-25.851.222c1.047 0 1.896.851 1.896 1.9s-.849 1.9-1.896 1.9a1.898 1.898 0 01-1.896-1.9c0-1.049.849-1.9 1.896-1.9zm-25.914.221a1.674 1.674 0 00-1.547 1.037 1.683 1.683 0 00.363 1.829 1.67 1.67 0 001.825.364 1.68 1.68 0 00-.641-3.23zm-25.914.191a1.486 1.486 0 00-1.485 1.488 1.49 1.49 0 001.485 1.489 1.461 1.461 0 001.039-.438 1.464 1.464 0 00.415-1.051 1.464 1.464 0 00-.89-1.375 1.46 1.46 0 00-.564-.113zm-25.946.221c.698 0 1.264.567 1.264 1.267s-.566 1.267-1.264 1.267a1.265 1.265 0 01-1.264-1.267c0-.7.566-1.267 1.264-1.267zm-25.946.222a1.04 1.04 0 00-.917.687 1.043 1.043 0 00.799 1.385 1.035 1.035 0 001.052-.453 1.047 1.047 0 00-.934-1.619zm-25.882.19a.85.85 0 00-.789.528.86.86 0 00.185.932.849.849 0 001.313-.13.856.856 0 00-.709-1.33zm-25.915.222a.632.632 0 110 1.265.632.632 0 010-1.265zm-25.946.221a.412.412 0 10.38.569.407.407 0 00-.09-.448.405.405 0 00-.29-.121zm-25.914.19a.223.223 0 00-.221.222.223.223 0 00.221.222.223.223 0 00.221-.222.223.223 0 00-.22-.222zm362.926-25.874a3.164 3.164 0 013.16 3.167 3.164 3.164 0 01-3.16 3.167 3.164 3.164 0 01-3.16-3.167 3.164 3.164 0 013.16-3.167zm-25.946.222a2.974 2.974 0 00-2.911 3.569 2.977 2.977 0 002.351 2.331 2.97 2.97 0 003.53-2.955 2.958 2.958 0 00-.871-2.094 2.947 2.947 0 00-2.099-.851zm-25.915.221a2.758 2.758 0 000 5.479 2.751 2.751 0 003.044-2.739 2.75 2.75 0 00-3.044-2.74zm-25.914.317a2.524 2.524 0 00-2.335 1.564 2.53 2.53 0 00.548 2.761 2.53 2.53 0 001.294.694 2.528 2.528 0 003.022-2.485c0-.672-.267-1.317-.741-1.792a2.526 2.526 0 00-1.788-.742zm-25.914 0a2.34 2.34 0 00-2.191 2.834 2.333 2.333 0 003.159 1.682 2.342 2.342 0 001.298-3.048 2.347 2.347 0 00-2.266-1.468zm-26.009.317a2.084 2.084 0 00-2.086 2.09 2.126 2.126 0 001.293 1.986 2.115 2.115 0 002.903-1.548 2.123 2.123 0 00-2.11-2.528zm-25.851.19a1.89 1.89 0 00-1.752 1.173 1.91 1.91 0 00.411 2.071c.266.265.603.446.971.52.368.073.749.035 1.096-.108.346-.144.642-.388.851-.7a1.907 1.907 0 00-.236-2.4 1.896 1.896 0 00-1.341-.556zm-25.914.221a1.712 1.712 0 00-1.602 1.041 1.71 1.71 0 001.245 2.348 1.711 1.711 0 002.032-1.71 1.678 1.678 0 00-1.675-1.679zm-25.914.222a1.454 1.454 0 00-1.328 1.457 1.487 1.487 0 001.486 1.489 1.452 1.452 0 001.453-1.489 1.417 1.417 0 00-.469-1.103 1.425 1.425 0 00-1.142-.354zm-25.946.19a1.266 1.266 0 10.894 2.163 1.27 1.27 0 00-.894-2.163zm-25.946.222a1.077 1.077 0 10.464 2.1 1.079 1.079 0 00.694-.585 1.077 1.077 0 00-1.158-1.515zm-25.882.222a.857.857 0 00-.478.146.86.86 0 00-.114 1.325.855.855 0 10.592-1.471zm-25.915.19a.635.635 0 00-.584.391.634.634 0 00.46.863.626.626 0 00.65-.269.635.635 0 00-.526-.985zm-25.945.221a.405.405 0 00-.29.121.416.416 0 00-.121.291.41.41 0 00.41.443.442.442 0 00.409-.608.417.417 0 00-.242-.225.412.412 0 00-.166-.022zm-25.915.222a.19.19 0 00-.134.056.189.189 0 00-.055.134.223.223 0 00.19.222.223.223 0 00.221-.222.223.223 0 00-.076-.137.218.218 0 00-.146-.053zM388.84 343.84a3.164 3.164 0 013.16 3.167 3.164 3.164 0 01-3.16 3.167 3.164 3.164 0 01-3.16-3.167 3.164 3.164 0 013.16-3.167zm-25.946.19c-.588 0-1.162.174-1.65.501a2.98 2.98 0 001.07 5.395 2.968 2.968 0 003.05-1.265 2.98 2.98 0 00-.369-3.759 2.967 2.967 0 00-2.101-.872zm-25.914.221a2.747 2.747 0 00-2.54 1.701 2.764 2.764 0 00.596 3.003 2.744 2.744 0 004.23-.418c.302-.453.463-.985.463-1.53a2.729 2.729 0 00-.796-1.958 2.706 2.706 0 00-1.953-.798zm-25.915.222a2.531 2.531 0 012.529 2.534 2.53 2.53 0 01-2.529 2.533 2.53 2.53 0 01-2.528-2.533 2.53 2.53 0 012.528-2.534zm-25.914.19a2.337 2.337 0 00-2.329 2.781 2.345 2.345 0 001.83 1.859 2.336 2.336 0 002.806-2.296 2.344 2.344 0 00-2.307-2.344zm-26.009.222a2.118 2.118 0 00-2.076 2.536 2.12 2.12 0 001.663 1.667 2.11 2.11 0 002.174-.902 2.125 2.125 0 00-.263-2.68 2.117 2.117 0 00-1.498-.621zm-25.851.222c1.047 0 1.896.85 1.896 1.9 0 1.049-.849 1.9-1.896 1.9a1.898 1.898 0 01-1.896-1.9c0-1.05.849-1.9 1.896-1.9zm-25.914.221a1.708 1.708 0 00-1.709 2.024 1.71 1.71 0 001.332 1.361 1.706 1.706 0 002.052-1.675 1.706 1.706 0 00-1.675-1.71zm-25.914.19a1.478 1.478 0 00-1.187.346 1.49 1.49 0 00.556 2.556 1.487 1.487 0 10.631-2.902zm-25.946.222c.698 0 1.264.567 1.264 1.267a1.265 1.265 0 11-2.528 0c0-.7.566-1.267 1.264-1.267zm-25.946.19a1.077 1.077 0 10.411 2.072 1.075 1.075 0 00.664-.995 1.074 1.074 0 00-.664-.995 1.073 1.073 0 00-.411-.082zm-25.882.222a.85.85 0 00-.789.528.86.86 0 00.185.931.855.855 0 10.604-1.459zm-25.915.221a.633.633 0 11-.002 1.266.633.633 0 01.002-1.266zm-25.945.19a.413.413 0 00-.41.444.41.41 0 00.41.411.411.411 0 00.442-.411.444.444 0 00-.442-.444zm-25.915.222a.221.221 0 00-.19.222.19.19 0 00.19.19.224.224 0 00.221-.19.223.223 0 00-.22-.222zm362.926-25.874a3.164 3.164 0 013.16 3.167 3.164 3.164 0 01-3.16 3.167 3.164 3.164 0 01-3.16-3.167 3.164 3.164 0 013.16-3.167zm-25.946.19c-.588 0-1.162.174-1.65.501a2.985 2.985 0 00-1.264 3.056 2.967 2.967 0 005.384 1.074 2.986 2.986 0 00-.369-3.759 2.967 2.967 0 00-2.101-.872zm-25.914.221a2.747 2.747 0 00-2.54 1.701 2.764 2.764 0 00.596 3.003 2.744 2.744 0 004.23-.418c.302-.453.463-.985.463-1.53a2.732 2.732 0 00-.796-1.958 2.716 2.716 0 00-1.953-.798zm-25.915.222a2.531 2.531 0 012.529 2.534 2.53 2.53 0 01-2.529 2.533 2.53 2.53 0 01-2.528-2.533 2.53 2.53 0 012.528-2.534zm-25.914.19a2.337 2.337 0 00-2.329 2.781 2.345 2.345 0 001.83 1.859 2.336 2.336 0 002.806-2.296 2.344 2.344 0 00-2.307-2.344zm-26.009.222a2.111 2.111 0 00-1.476.632 2.124 2.124 0 00-.609 1.49 2.121 2.121 0 002.101 1.863 2.116 2.116 0 002.102-1.863 2.115 2.115 0 00-2.118-2.122zm-25.851.222c1.047 0 1.896.85 1.896 1.9 0 1.049-.849 1.9-1.896 1.9a1.898 1.898 0 01-1.896-1.9c0-1.05.849-1.9 1.896-1.9zm-25.914.19a1.7 1.7 0 00-1.599 1.033 1.709 1.709 0 002.213 2.26 1.715 1.715 0 001.061-1.583 1.712 1.712 0 00-1.675-1.71zm-25.914.221c.82 0 1.485.667 1.485 1.489 0 .822-.665 1.488-1.485 1.488-.82 0-1.485-.666-1.485-1.488s.665-1.489 1.485-1.489zm-25.946.222c.698 0 1.264.567 1.264 1.267a1.265 1.265 0 11-2.528 0c0-.7.566-1.267 1.264-1.267zm-25.946.19a1.077 1.077 0 10.411 2.072 1.075 1.075 0 00.664-.995 1.074 1.074 0 00-.664-.995 1.073 1.073 0 00-.411-.082zm-25.882.158a.85.85 0 00-.789.528.86.86 0 00.185.932.855.855 0 10.604-1.46zm-25.915.285a.633.633 0 11-.002 1.266.633.633 0 01.002-1.266zm-25.946.222a.411.411 0 110 .822.411.411 0 010-.822zm-25.914.19a.221.221 0 00-.19.222c0 .05.02.099.056.134a.188.188 0 00.134.056.224.224 0 00.221-.19.223.223 0 00-.22-.222zm362.926-25.874a3.164 3.164 0 013.16 3.167 3.164 3.164 0 01-3.16 3.167 3.164 3.164 0 01-3.16-3.167 3.164 3.164 0 013.16-3.167zm-25.946.221a2.943 2.943 0 00-2.847 3.539 2.936 2.936 0 005.817-.593 2.945 2.945 0 00-2.97-2.946zm-25.914.19a2.747 2.747 0 00-2.54 1.701 2.764 2.764 0 00.596 3.003 2.744 2.744 0 004.23-.417c.302-.454.463-.986.463-1.531a2.732 2.732 0 00-.796-1.958 2.716 2.716 0 00-1.953-.798zm-25.915.222a2.532 2.532 0 012.529 2.534 2.53 2.53 0 01-2.529 2.533 2.53 2.53 0 01-2.528-2.533 2.531 2.531 0 012.528-2.534zm-25.914.222a2.31 2.31 0 012.307 2.312 2.31 2.31 0 01-2.307 2.312 2.31 2.31 0 01-2.307-2.312 2.31 2.31 0 012.307-2.312zm-26.009.19a2.115 2.115 0 00-1.956 1.31 2.125 2.125 0 001.543 2.893 2.11 2.11 0 002.174-.903 2.127 2.127 0 00-.263-2.679 2.117 2.117 0 00-1.498-.621zm-25.851.221c1.047 0 1.896.851 1.896 1.901 0 1.049-.849 1.9-1.896 1.9a1.898 1.898 0 01-1.896-1.9c0-1.05.849-1.901 1.896-1.901zm-25.914.222a1.674 1.674 0 00-1.547 1.036 1.687 1.687 0 00.363 1.83 1.677 1.677 0 001.825.363 1.676 1.676 0 001.034-1.55 1.676 1.676 0 00-1.675-1.679zm-25.914.19a1.489 1.489 0 000 2.977 1.488 1.488 0 000-2.977zm-25.946.222c.698 0 1.264.567 1.264 1.267 0 .699-.566 1.267-1.264 1.267a1.266 1.266 0 01-1.264-1.267c0-.7.566-1.267 1.264-1.267zm-25.946.222a1.035 1.035 0 00-.94.666 1.046 1.046 0 00.78 1.405 1.039 1.039 0 001.061-.449 1.048 1.048 0 00-.492-1.552 1.02 1.02 0 00-.409-.07zm-25.882.19a.85.85 0 00-.789.528.86.86 0 00.185.931.855.855 0 10.604-1.459zm-25.915.221a.633.633 0 11-.002 1.266.633.633 0 01.002-1.266zm-25.946.222a.411.411 0 110 .822.411.411 0 010-.822zm-25.914.253a.223.223 0 00-.221.222.223.223 0 00.221.222.223.223 0 00.221-.222.223.223 0 00-.22-.222zm362.926-25.937a3.164 3.164 0 013.16 3.167 3.164 3.164 0 01-3.16 3.167 3.164 3.164 0 01-3.16-3.167 3.164 3.164 0 013.16-3.167zm-25.946.221a2.97 2.97 0 00-2.748 1.845 2.994 2.994 0 00-.163 1.725 2.977 2.977 0 002.351 2.331 2.962 2.962 0 003.045-1.293 2.972 2.972 0 00.485-1.662 2.958 2.958 0 00-1.836-2.731 2.939 2.939 0 00-1.134-.215zm-25.915.222a2.758 2.758 0 000 5.479 2.751 2.751 0 003.044-2.739 2.75 2.75 0 00-3.044-2.74zm-25.914.19a2.532 2.532 0 012.529 2.534 2.53 2.53 0 01-2.529 2.533 2.53 2.53 0 01-2.528-2.533 2.531 2.531 0 012.528-2.534zm-25.914.222a2.31 2.31 0 012.307 2.312 2.31 2.31 0 01-2.307 2.312 2.31 2.31 0 01-2.307-2.312 2.31 2.31 0 012.307-2.312zm-26.009.222a2.084 2.084 0 00-2.086 2.09 2.126 2.126 0 001.293 1.985 2.107 2.107 0 002.322-.453 2.128 2.128 0 00-.341-3.278 2.104 2.104 0 00-1.188-.344zm-25.851.189c1.047 0 1.896.851 1.896 1.901 0 1.049-.849 1.9-1.896 1.9a1.898 1.898 0 01-1.896-1.9c0-1.05.849-1.901 1.896-1.901zm-25.914.222a1.712 1.712 0 00-1.602 1.041 1.714 1.714 0 001.245 2.348 1.711 1.711 0 002.032-1.71 1.678 1.678 0 00-1.675-1.679zm-25.914.222a1.467 1.467 0 00-1.049.415 1.465 1.465 0 00-.436 1.042 1.486 1.486 0 001.485 1.488 1.443 1.443 0 001.039-.438 1.464 1.464 0 00.415-1.05 1.427 1.427 0 00-1.454-1.457zm-25.946.19c.698 0 1.264.567 1.264 1.267 0 .699-.566 1.267-1.264 1.267a1.266 1.266 0 01-1.264-1.267c0-.7.566-1.267 1.264-1.267zm-25.946.222a1.072 1.072 0 00-.891 1.06 1.08 1.08 0 00.891 1.061 1.07 1.07 0 001.158-.606 1.082 1.082 0 00-.282-1.278 1.08 1.08 0 00-.876-.237zm-25.882.221a.85.85 0 00-.791.536.852.852 0 001.516.771.858.858 0 00-.725-1.307zm-25.915.19a.633.633 0 11-.002 1.266.633.633 0 01.002-1.266zm-25.945.222a.412.412 0 00-.41.412.414.414 0 00.245.409.443.443 0 00.573-.575.403.403 0 00-.242-.224.412.412 0 00-.166-.022zm-25.915.222c-.05 0-.098.02-.134.055a.191.191 0 00-.055.135.222.222 0 00.19.221.22.22 0 00.156-.065.22.22 0 00.064-.156.223.223 0 00-.075-.137.218.218 0 00-.146-.053zm362.926-25.874a3.163 3.163 0 013.16 3.167 3.164 3.164 0 01-3.16 3.167 3.164 3.164 0 01-3.16-3.167 3.163 3.163 0 013.16-3.167zm-25.946.189a2.975 2.975 0 00-2.914 3.558 2.98 2.98 0 002.334 2.339 2.968 2.968 0 003.05-1.266 2.984 2.984 0 00-.369-3.759 2.971 2.971 0 00-2.101-.872zm-25.914.222a2.753 2.753 0 00-2.54 1.701 2.762 2.762 0 00.596 3.003 2.751 2.751 0 002.996.597 2.757 2.757 0 001.697-2.546 2.724 2.724 0 00-1.692-2.554 2.715 2.715 0 00-1.057-.201zm-25.915.222a2.526 2.526 0 00-2.335 1.564 2.53 2.53 0 00.548 2.761 2.52 2.52 0 002.755.549 2.54 2.54 0 00.82-4.132 2.526 2.526 0 00-1.788-.742zm-25.914.19a2.34 2.34 0 00-2.329 2.781 2.345 2.345 0 001.83 1.858c.454.093.926.049 1.355-.128a2.33 2.33 0 001.055-.862 2.351 2.351 0 00-.277-2.952 2.339 2.339 0 00-1.634-.697zm-26.009.222a2.115 2.115 0 00-1.956 1.309 2.126 2.126 0 001.543 2.894c.411.081.837.039 1.224-.121a2.128 2.128 0 001.307-1.961 2.117 2.117 0 00-2.118-2.121zm-25.851.285a1.896 1.896 0 00-1.896 1.9 1.902 1.902 0 001.896 1.9 1.898 1.898 0 001.896-1.9 1.9 1.9 0 00-1.896-1.9zm-25.914 0a1.7 1.7 0 00-1.599 1.033 1.709 1.709 0 00.349 1.875c.238.242.542.408.873.477.332.068.677.036.991-.092a1.715 1.715 0 001.061-1.583 1.712 1.712 0 00-1.675-1.71zm-25.914.348a1.48 1.48 0 00-1.567.853 1.492 1.492 0 00.936 2.049 1.487 1.487 0 10.631-2.902zm-25.946.222a1.22 1.22 0 00-.904.361 1.232 1.232 0 00-.36.905 1.268 1.268 0 001.264 1.267 1.224 1.224 0 00.903-.361 1.23 1.23 0 00.361-.906 1.238 1.238 0 00-.775-1.179 1.224 1.224 0 00-.489-.087zm-25.946.19a1.077 1.077 0 10.411 2.071 1.074 1.074 0 000-1.989 1.054 1.054 0 00-.411-.082zm-25.882.221a.85.85 0 00-.789.528.86.86 0 00.185.932.855.855 0 10.604-1.46zm-25.915.222a.595.595 0 00-.457.175.607.607 0 00-.175.458.633.633 0 101.264 0 .601.601 0 00-.632-.633zm-25.945.19a.407.407 0 00-.39.276.414.414 0 00-.021.167.41.41 0 00.41.412.395.395 0 00.168-.022.403.403 0 00.276-.39.443.443 0 00-.443-.443zm-25.915.222a.222.222 0 00-.19.221c0 .051.02.099.056.135a.191.191 0 00.134.055.22.22 0 00.221-.19.22.22 0 00-.22-.221zm362.926-25.874a3.163 3.163 0 013.16 3.167 3.164 3.164 0 01-3.16 3.167 3.164 3.164 0 01-3.16-3.167 3.163 3.163 0 013.16-3.167zm-25.946.189a2.975 2.975 0 00-2.914 3.558 2.98 2.98 0 002.334 2.339 2.968 2.968 0 003.05-1.266 2.984 2.984 0 00-.369-3.759 2.971 2.971 0 00-2.101-.872zm-25.914.222c-.544 0-1.075.162-1.528.464a2.758 2.758 0 00.992 4.994 2.75 2.75 0 003.285-2.703 2.724 2.724 0 00-1.692-2.554 2.715 2.715 0 00-1.057-.201zm-25.915.222a2.53 2.53 0 012.529 2.533c0 1.4-1.132 2.534-2.529 2.534a2.53 2.53 0 01-2.528-2.534 2.53 2.53 0 012.528-2.533zm-25.914.19a2.34 2.34 0 00-2.329 2.781 2.345 2.345 0 001.83 1.858c.454.093.926.049 1.355-.128a2.33 2.33 0 001.055-.862 2.351 2.351 0 00-.277-2.952 2.339 2.339 0 00-1.634-.697zm-26.009.222a2.121 2.121 0 00-2.085 2.121 2.121 2.121 0 002.101 1.864 2.116 2.116 0 002.102-1.864 2.115 2.115 0 00-2.118-2.121zm-25.851.221c1.047 0 1.896.851 1.896 1.901 0 1.049-.849 1.9-1.896 1.9a1.898 1.898 0 01-1.896-1.9c0-1.05.849-1.901 1.896-1.901zm-25.914.19a1.708 1.708 0 00-1.709 2.024 1.71 1.71 0 001.332 1.361 1.706 1.706 0 002.052-1.675 1.706 1.706 0 00-1.675-1.71zm-25.914.222a1.488 1.488 0 00-1.372 2.053 1.465 1.465 0 00.806.791c.18.071.372.105.566.101a1.413 1.413 0 001.037-.417 1.427 1.427 0 00.417-1.04 1.468 1.468 0 00-.415-1.05 1.444 1.444 0 00-1.039-.438zm-25.946.222c.698 0 1.264.567 1.264 1.267a1.265 1.265 0 11-2.528 0c0-.7.566-1.267 1.264-1.267zm-25.946.19a1.077 1.077 0 10.411 2.071 1.074 1.074 0 000-1.989 1.073 1.073 0 00-.411-.082zm-25.882.221a.858.858 0 00-.789.528.86.86 0 00.185.932.855.855 0 10.604-1.46zm-25.915.222a.633.633 0 11-.002 1.266.633.633 0 01.002-1.266zm-25.945.19a.413.413 0 00-.41.443.41.41 0 00.41.412.395.395 0 00.166-.022.403.403 0 00.276-.39.443.443 0 00-.442-.443zm-25.915.222a.222.222 0 00-.19.221c0 .051.02.099.056.135a.191.191 0 00.134.055.22.22 0 00.221-.19.22.22 0 00-.22-.221zm362.926-25.875a3.164 3.164 0 013.16 3.167 3.164 3.164 0 01-3.16 3.167 3.164 3.164 0 01-3.16-3.167 3.164 3.164 0 013.16-3.167zm-25.946.222a2.935 2.935 0 00-2.693 1.84 2.947 2.947 0 002.163 3.996 2.935 2.935 0 003.5-2.89 2.945 2.945 0 00-2.97-2.946zm-25.914.19a2.747 2.747 0 00-2.54 1.701 2.764 2.764 0 00.596 3.003 2.751 2.751 0 002.996.597 2.757 2.757 0 001.697-2.546 2.724 2.724 0 00-1.692-2.554 2.715 2.715 0 00-1.057-.201zm-25.915.222a2.53 2.53 0 012.529 2.533c0 1.4-1.132 2.534-2.529 2.534a2.53 2.53 0 01-2.528-2.534 2.53 2.53 0 012.528-2.533zm-25.914.222a2.31 2.31 0 00-1.631 3.946 2.302 2.302 0 003.263 0 2.315 2.315 0 00-1.632-3.946zm-26.009.19a2.115 2.115 0 00-1.956 1.31 2.122 2.122 0 002.767 2.772 2.128 2.128 0 001.307-1.96 2.117 2.117 0 00-2.118-2.122zm-25.851.221c1.047 0 1.896.851 1.896 1.901 0 1.049-.849 1.9-1.896 1.9a1.898 1.898 0 01-1.896-1.9c0-1.05.849-1.901 1.896-1.901zm-25.914.222a1.674 1.674 0 00-1.547 1.036 1.672 1.672 0 00.363 1.829 1.672 1.672 0 002.577-.254 1.68 1.68 0 00-1.393-2.611zm-25.914.19c.82 0 1.485.666 1.485 1.488s-.665 1.489-1.485 1.489c-.82 0-1.485-.667-1.485-1.489 0-.822.665-1.488 1.485-1.488zm-25.946.222c.698 0 1.264.567 1.264 1.266 0 .7-.566 1.267-1.264 1.267a1.265 1.265 0 01-1.264-1.267c0-.699.566-1.266 1.264-1.266zm-25.946.221a1.048 1.048 0 00-.941.667 1.045 1.045 0 001.842.956 1.05 1.05 0 00-.492-1.552 1.044 1.044 0 00-.409-.071zm-25.882.19a.851.851 0 00-.474.145.849.849 0 00-.363.877.856.856 0 00.67.672.849.849 0 00.876-.363.856.856 0 00-.709-1.331zm-25.915.222a.633.633 0 11-.002 1.266.633.633 0 01.002-1.266zm-25.946.317a.41.41 0 100 .822.41.41 0 000-.822zm-25.914 0a.22.22 0 00-.156.378.219.219 0 00.313 0 .221.221 0 00-.157-.378zm362.926-25.78a3.164 3.164 0 013.16 3.167 3.164 3.164 0 01-3.16 3.167 3.164 3.164 0 01-3.16-3.167 3.164 3.164 0 013.16-3.167zm-25.946.222a2.97 2.97 0 00-2.748 1.845 2.994 2.994 0 00-.163 1.725 2.974 2.974 0 004.07 2.148 2.972 2.972 0 001.811-2.772 2.958 2.958 0 00-1.836-2.731 2.939 2.939 0 00-1.134-.215zm-25.915.222a2.751 2.751 0 00-2.455 2.739 2.758 2.758 0 002.455 2.74 2.747 2.747 0 002.806-1.617 2.768 2.768 0 000-2.245 2.763 2.763 0 00-1.667-1.5 2.763 2.763 0 00-1.139-.117zm-25.914.19a2.53 2.53 0 012.529 2.533c0 1.4-1.132 2.534-2.529 2.534a2.53 2.53 0 01-2.528-2.534 2.53 2.53 0 012.528-2.533zm-25.914.222a2.31 2.31 0 012.307 2.312 2.31 2.31 0 01-2.307 2.311 2.31 2.31 0 01-2.307-2.311 2.31 2.31 0 012.307-2.312zm-26.009.221a2.084 2.084 0 00-2.086 2.09 2.13 2.13 0 001.293 1.986c.388.165.816.209 1.23.128a2.12 2.12 0 001.545-2.909 2.115 2.115 0 00-1.982-1.295zm-25.851.19c1.047 0 1.896.851 1.896 1.901 0 1.049-.849 1.9-1.896 1.9a1.898 1.898 0 01-1.896-1.9c0-1.05.849-1.901 1.896-1.901zm-25.914.222a1.712 1.712 0 00-1.602 1.041 1.707 1.707 0 103.277.638 1.674 1.674 0 00-1.675-1.679zm-25.914.19c.82 0 1.485.666 1.485 1.488 0 .823-.665 1.489-1.485 1.489-.82 0-1.485-.666-1.485-1.489 0-.822.665-1.488 1.485-1.488zm-25.946.222c.698 0 1.264.567 1.264 1.266 0 .7-.566 1.267-1.264 1.267a1.265 1.265 0 01-1.264-1.267c0-.699.566-1.266 1.264-1.266zm-25.946.221a1.078 1.078 0 000 2.122 1.07 1.07 0 001.158-.606 1.085 1.085 0 000-.909 1.086 1.086 0 00-.694-.585 1.085 1.085 0 00-.464-.022zm-25.882.222a.85.85 0 00-.791.536.852.852 0 001.516.771.858.858 0 00-.725-1.307zm-25.915.19a.633.633 0 11-.002 1.266.633.633 0 01.002-1.266zm-25.946.222a.411.411 0 110 .822.411.411 0 010-.822zm-25.914.222c-.05 0-.098.02-.134.055a.191.191 0 00-.055.135.222.222 0 00.19.221.22.22 0 00.221-.221.22.22 0 00-.222-.19zm362.926-25.875a3.164 3.164 0 013.16 3.167 3.164 3.164 0 01-3.16 3.167 3.164 3.164 0 01-3.16-3.167 3.164 3.164 0 013.16-3.167zm-25.946.19a2.975 2.975 0 00-2.914 3.558 2.98 2.98 0 002.334 2.339 2.968 2.968 0 003.05-1.266 2.984 2.984 0 00-.369-3.759 2.971 2.971 0 00-2.101-.872zm-25.914.222a2.753 2.753 0 00-2.54 1.701 2.762 2.762 0 00.596 3.003 2.751 2.751 0 002.996.597 2.757 2.757 0 001.697-2.546 2.724 2.724 0 00-1.692-2.554 2.715 2.715 0 00-1.057-.201zm-25.915.222a2.53 2.53 0 012.529 2.533c0 1.4-1.132 2.534-2.529 2.534a2.53 2.53 0 01-2.528-2.534 2.53 2.53 0 012.528-2.533zm-25.914.221a2.31 2.31 0 012.307 2.312 2.31 2.31 0 01-2.307 2.312 2.31 2.31 0 01-2.307-2.312 2.31 2.31 0 012.307-2.312zm-26.009.317a2.118 2.118 0 00-2.076 2.536 2.12 2.12 0 001.663 1.667 2.11 2.11 0 002.174-.902 2.125 2.125 0 00-.263-2.68 2.121 2.121 0 00-1.498-.621zm-25.851.095c1.047 0 1.896.851 1.896 1.9 0 1.05-.849 1.9-1.896 1.9a1.898 1.898 0 01-1.896-1.9c0-1.049.849-1.9 1.896-1.9zm-25.914.19a1.708 1.708 0 00-1.709 2.024 1.71 1.71 0 001.332 1.361 1.706 1.706 0 002.052-1.675c0-.448-.176-.878-.489-1.198a1.702 1.702 0 00-1.186-.512zm-25.914.222a1.478 1.478 0 00-1.187.346 1.49 1.49 0 00.556 2.556 1.484 1.484 0 001.9-1.43 1.487 1.487 0 00-1.269-1.472zm-25.946.221c.698 0 1.264.568 1.264 1.267 0 .7-.566 1.267-1.264 1.267a1.265 1.265 0 01-1.264-1.267c0-.699.566-1.267 1.264-1.267zm-25.946.191a1.077 1.077 0 10.411 2.071 1.077 1.077 0 00-.411-2.071zm-25.882.221a.85.85 0 00-.789.528.86.86 0 00.185.932.855.855 0 10.604-1.46zm-25.915.222a.633.633 0 11-.002 1.266.633.633 0 01.002-1.266zm-25.945.19a.407.407 0 00-.39.276.41.41 0 00-.021.167.412.412 0 00.41.412.412.412 0 00.443-.412.442.442 0 00-.442-.443zm-25.915.221a.222.222 0 00-.19.222c0 .05.02.099.056.134a.188.188 0 00.134.056.218.218 0 00.146-.053.223.223 0 00.076-.137.223.223 0 00-.222-.222zm362.926-25.874a3.164 3.164 0 013.16 3.167 3.164 3.164 0 01-3.16 3.167 3.164 3.164 0 01-3.16-3.167 3.164 3.164 0 013.16-3.167zm-25.946.19a2.975 2.975 0 00-2.914 3.558 2.98 2.98 0 002.334 2.339 2.968 2.968 0 003.05-1.266 2.984 2.984 0 00-.369-3.759 2.971 2.971 0 00-2.101-.872zm-25.914.222a2.753 2.753 0 00-2.54 1.701 2.762 2.762 0 00.596 3.003 2.751 2.751 0 002.996.597 2.757 2.757 0 001.697-2.546 2.724 2.724 0 00-1.692-2.554 2.715 2.715 0 00-1.057-.201zm-25.915.222a2.53 2.53 0 012.529 2.533c0 1.4-1.132 2.534-2.529 2.534a2.53 2.53 0 01-2.528-2.534 2.53 2.53 0 012.528-2.533zm-25.914.19a2.343 2.343 0 00-1.696 3.989 2.335 2.335 0 003.607-.341 2.348 2.348 0 00-.277-2.951 2.334 2.334 0 00-1.634-.697zm-26.009.221a2.116 2.116 0 00-2.085 2.122 2.115 2.115 0 003.504 1.331c.387-.344.636-.817.699-1.331a2.123 2.123 0 00-2.118-2.122zm-25.851.222a1.89 1.89 0 00-1.752 1.173 1.91 1.91 0 00.411 2.071 1.894 1.894 0 002.918-.288 1.907 1.907 0 00-.236-2.399 1.893 1.893 0 00-1.341-.557zm-25.914.19a1.708 1.708 0 00-1.709 2.024 1.71 1.71 0 001.332 1.361 1.706 1.706 0 002.052-1.675c0-.448-.176-.878-.489-1.198a1.702 1.702 0 00-1.186-.512zm-25.914.222a1.488 1.488 0 00-1.372 2.053 1.451 1.451 0 001.372.892 1.417 1.417 0 001.037-.417 1.427 1.427 0 00.417-1.04 1.468 1.468 0 00-.415-1.05 1.444 1.444 0 00-1.039-.438zm-25.946.253a1.266 1.266 0 10.894 2.163 1.27 1.27 0 00-.894-2.163zm-25.946 0a1.07 1.07 0 00-.993.665 1.085 1.085 0 00.233 1.173 1.079 1.079 0 001.171.234 1.075 1.075 0 00.664-.995 1.074 1.074 0 00-.664-.995 1.073 1.073 0 00-.411-.082zm-25.882.38a.85.85 0 00-.789.528.86.86 0 00.185.932.849.849 0 001.313-.13.853.853 0 00-.709-1.33zm-25.915.222a.632.632 0 110 1.265.632.632 0 010-1.265zm-25.945.19a.407.407 0 00-.39.276.412.412 0 00-.021.167.412.412 0 00.41.412.412.412 0 00.443-.412.443.443 0 00-.442-.443zm-25.915.221a.222.222 0 00-.19.222c0 .051.02.099.056.135a.191.191 0 00.134.055.218.218 0 00.146-.053.223.223 0 00.076-.137.223.223 0 00-.222-.222zm362.926-25.874a3.164 3.164 0 013.16 3.167 3.164 3.164 0 01-3.16 3.167 3.164 3.164 0 01-3.16-3.167 3.164 3.164 0 013.16-3.167zm-25.946.222a2.938 2.938 0 00-2.693 1.84 2.947 2.947 0 002.163 3.996 2.93 2.93 0 003.007-1.258 2.945 2.945 0 00.267-2.767 2.939 2.939 0 00-2.744-1.811zm-25.914.19a2.746 2.746 0 00-2.54 1.701 2.762 2.762 0 00.596 3.002 2.74 2.74 0 004.23-.417 2.76 2.76 0 00.463-1.531 2.724 2.724 0 00-1.692-2.554 2.715 2.715 0 00-1.057-.201zm-25.915.222a2.526 2.526 0 00-2.335 1.564 2.531 2.531 0 001.842 3.454 2.52 2.52 0 002.595-1.077 2.54 2.54 0 00-.314-3.199 2.521 2.521 0 00-1.788-.742zm-25.914.221a2.307 2.307 0 00-2.307 2.312 2.317 2.317 0 001.424 2.136 2.307 2.307 0 003.19-2.136 2.309 2.309 0 00-2.307-2.312zm-26.009.19a2.116 2.116 0 00-1.956 1.31 2.126 2.126 0 001.543 2.893 2.119 2.119 0 002.174-.902 2.123 2.123 0 00-1.761-3.301zm-25.851.222c1.047 0 1.896.851 1.896 1.9 0 1.05-.849 1.9-1.896 1.9a1.898 1.898 0 01-1.896-1.9c0-1.049.849-1.9 1.896-1.9zm-25.914.222c-.331 0-.655.098-.93.283a1.686 1.686 0 00-.713 1.723 1.68 1.68 0 001.316 1.318 1.67 1.67 0 001.72-.713 1.683 1.683 0 00-.209-2.12 1.675 1.675 0 00-1.184-.491zm-25.914.19a1.485 1.485 0 00-1.372 2.058 1.471 1.471 0 00.803.805 1.486 1.486 0 001.619-.322 1.489 1.489 0 00-1.05-2.541zm-25.946.222c.698 0 1.264.567 1.264 1.266 0 .7-.566 1.267-1.264 1.267a1.265 1.265 0 01-1.264-1.267c0-.699.566-1.266 1.264-1.266zm-25.946.221a1.04 1.04 0 00-.941.667 1.045 1.045 0 001.842.956 1.05 1.05 0 00-.492-1.552 1.044 1.044 0 00-.409-.071zm-25.883.19a.852.852 0 00-.837 1.022.861.861 0 00.671.672.85.85 0 00.876-.364.854.854 0 00-.71-1.33zm-25.914.222a.628.628 0 00-.584.391.635.635 0 00.46.863.626.626 0 00.65-.269.635.635 0 00-.526-.985zm-25.946.158a.412.412 0 10.29.703.412.412 0 00-.29-.703zm-25.914.254a.219.219 0 00-.156.065.223.223 0 00.156.378.223.223 0 00.156-.378.22.22 0 00-.156-.065zM388.84 91.684a3.164 3.164 0 013.16 3.167 3.164 3.164 0 01-3.16 3.167 3.164 3.164 0 01-3.16-3.167 3.164 3.164 0 013.16-3.167zm-25.946.286a2.967 2.967 0 00-2.748 1.845 2.992 2.992 0 00-.163 1.724 2.975 2.975 0 002.351 2.33 2.966 2.966 0 003.045-1.292 2.973 2.973 0 00.485-1.662 2.954 2.954 0 00-1.836-2.73 2.933 2.933 0 00-1.134-.216zm-25.915 0a2.747 2.747 0 00-1.751.898 2.76 2.76 0 000 3.682 2.748 2.748 0 004.795-1.841 2.762 2.762 0 00-.912-2.05 2.743 2.743 0 00-2.132-.69zm-25.914.348a2.531 2.531 0 012.529 2.533c0 1.4-1.132 2.534-2.529 2.534a2.53 2.53 0 01-2.528-2.534 2.53 2.53 0 012.528-2.533zm-25.914.222a2.336 2.336 0 00-2.186 1.431c-.181.43-.23.904-.14 1.361a2.342 2.342 0 001.846 1.85 2.333 2.333 0 002.406-1.017 2.345 2.345 0 00-1.926-3.626zm-26.009.221c-.553 0-1.084.22-1.475.612a2.093 2.093 0 00-.611 1.478 2.13 2.13 0 001.293 1.986 2.113 2.113 0 002.322-.454 2.125 2.125 0 00-.341-3.277 2.113 2.113 0 00-1.188-.345zm-25.851.19c1.047 0 1.896.85 1.896 1.9 0 1.05-.849 1.9-1.896 1.9a1.898 1.898 0 01-1.896-1.9c0-1.05.849-1.9 1.896-1.9zm-25.914.222a1.706 1.706 0 00-1.602 1.04 1.71 1.71 0 001.245 2.348 1.703 1.703 0 001.758-.748c.185-.286.28-.62.274-.962a1.677 1.677 0 00-1.675-1.678zm-25.914.221a1.45 1.45 0 00-1.372.892 1.488 1.488 0 001.372 2.053 1.455 1.455 0 001.454-1.488 1.433 1.433 0 00-.893-1.355 1.419 1.419 0 00-.561-.102zm-25.946.191a1.265 1.265 0 010 2.534 1.265 1.265 0 01-1.264-1.268c0-.7.566-1.266 1.264-1.266zm-25.946.221a1.074 1.074 0 00-.891 1.061 1.079 1.079 0 001.355 1.04 1.08 1.08 0 00.694-.586 1.08 1.08 0 00-.694-1.493 1.072 1.072 0 00-.464-.022zm-25.882.222a.854.854 0 10.001 1.709.854.854 0 00-.001-1.71zm-25.915.19a.633.633 0 11-.001 1.265.633.633 0 01.001-1.265zm-25.946.222a.41.41 0 00-.41.411.411.411 0 00.41.285.442.442 0 00.443-.443.412.412 0 00-.443-.254zm-25.914.221a.19.19 0 00-.19.19.222.222 0 00.19.285.22.22 0 00.221-.221.221.221 0 00-.221-.254zM388.84 68.787a3.164 3.164 0 013.16 3.167 3.164 3.164 0 01-3.16 3.167 3.164 3.164 0 01-3.16-3.167 3.164 3.164 0 013.16-3.167zm-25.946.19a2.975 2.975 0 00-2.914 3.558 2.972 2.972 0 004.051 2.17 2.985 2.985 0 00.964-4.855 2.97 2.97 0 00-2.101-.873zm-25.914.222a2.749 2.749 0 00-2.54 1.7 2.762 2.762 0 00.596 3.003 2.743 2.743 0 004.23-.417 2.76 2.76 0 00.463-1.531 2.726 2.726 0 00-1.692-2.554 2.71 2.71 0 00-1.057-.201zm-25.915.221a2.531 2.531 0 012.529 2.534c0 1.4-1.132 2.534-2.529 2.534a2.53 2.53 0 01-2.528-2.534 2.53 2.53 0 012.528-2.534zm-25.914.222a2.31 2.31 0 012.307 2.312 2.31 2.31 0 01-2.307 2.312 2.31 2.31 0 01-2.307-2.312 2.31 2.31 0 012.307-2.312zm-26.009.158a2.115 2.115 0 00-1.956 1.31 2.126 2.126 0 001.543 2.893 2.115 2.115 0 002.174-.902 2.124 2.124 0 00-.263-2.68 2.118 2.118 0 00-1.498-.62zm-25.851.254c1.047 0 1.896.85 1.896 1.9 0 1.05-.849 1.9-1.896 1.9a1.898 1.898 0 01-1.896-1.9c0-1.05.849-1.9 1.896-1.9zm-25.914.19a1.705 1.705 0 00-1.599 1.033 1.707 1.707 0 00.349 1.875 1.711 1.711 0 001.864.385 1.711 1.711 0 00-.614-3.293zm-25.914.221c.82 0 1.485.667 1.485 1.489 0 .822-.665 1.488-1.485 1.488-.82 0-1.485-.666-1.485-1.488s.665-1.489 1.485-1.489zm-25.946.222c.698 0 1.264.567 1.264 1.267s-.566 1.267-1.264 1.267a1.265 1.265 0 01-1.264-1.267c0-.7.566-1.267 1.264-1.267zm-25.946.19a1.075 1.075 0 00-.76 1.838 1.078 1.078 0 001.171.234 1.07 1.07 0 00.482-.397 1.072 1.072 0 00-.133-1.36 1.071 1.071 0 00-.76-.315zm-25.883.222a.853.853 0 00-.603 1.46.849.849 0 00.93.185.855.855 0 00-.327-1.645zm-25.914.221a.633.633 0 11-.001 1.266.633.633 0 01.001-1.265zm-25.946.222a.411.411 0 110 .823.411.411 0 010-.823zm-25.914.19a.22.22 0 00-.19.222.19.19 0 00.19.19.221.221 0 00.221-.19.222.222 0 00-.22-.222zM388.84 45.858a3.164 3.164 0 013.16 3.167 3.164 3.164 0 01-3.16 3.167 3.164 3.164 0 01-3.16-3.167 3.164 3.164 0 013.16-3.167zm-25.946.19a2.976 2.976 0 00-2.914 3.558 2.97 2.97 0 004.051 2.17 2.985 2.985 0 00.964-4.855 2.97 2.97 0 00-2.101-.873zm-25.914.222a2.748 2.748 0 00-2.54 1.7 2.762 2.762 0 00.596 3.003 2.744 2.744 0 004.23-.417 2.76 2.76 0 00.463-1.531 2.726 2.726 0 00-1.692-2.554 2.711 2.711 0 00-1.057-.201zm-25.915.221a2.531 2.531 0 012.529 2.534c0 1.4-1.132 2.534-2.529 2.534a2.53 2.53 0 01-2.528-2.534 2.53 2.53 0 012.528-2.534zm-25.914.19a2.342 2.342 0 00-1.696 3.99 2.336 2.336 0 004.003-1.646 2.338 2.338 0 00-2.307-2.344zm-26.009.222a2.121 2.121 0 00-2.085 2.122 2.115 2.115 0 004.203 0 2.116 2.116 0 00-2.118-2.122zm-25.851.222c1.047 0 1.896.85 1.896 1.9 0 1.05-.849 1.9-1.896 1.9a1.898 1.898 0 01-1.896-1.9c0-1.05.849-1.9 1.896-1.9zm-25.914.19a1.706 1.706 0 00-1.709 2.024 1.711 1.711 0 001.332 1.36 1.706 1.706 0 002.052-1.674c0-.448-.176-.878-.489-1.198a1.704 1.704 0 00-1.186-.512zm-25.914.317a1.488 1.488 0 00-1.372 2.053 1.462 1.462 0 00.806.79c.18.071.372.106.566.102a1.417 1.417 0 001.037-.417 1.43 1.43 0 00.417-1.04 1.468 1.468 0 00-.415-1.05 1.453 1.453 0 00-1.039-.438zm-25.946.126c.698 0 1.264.567 1.264 1.267s-.566 1.267-1.264 1.267a1.265 1.265 0 01-1.264-1.267c0-.7.566-1.267 1.264-1.267zm-25.946.19a1.075 1.075 0 00-.76 1.838 1.077 1.077 0 001.171.234 1.07 1.07 0 00.482-.397 1.072 1.072 0 00-.133-1.36 1.071 1.071 0 00-.76-.315zm-25.883.222a.849.849 0 00-.788.528.855.855 0 001.392.932.856.856 0 00-.604-1.46zm-25.914.222a.633.633 0 11-.001 1.265.633.633 0 01.001-1.265zm-25.945.19a.408.408 0 00-.39.276.413.413 0 00-.021.167.412.412 0 00.41.412.412.412 0 00.443-.412.444.444 0 00-.442-.443zm-25.915.221a.22.22 0 00-.19.222.19.19 0 00.19.19.221.221 0 00.221-.19.222.222 0 00-.22-.222zm362.925-25.874A3.164 3.164 0 01392 26.096a3.164 3.164 0 01-3.161 3.167 3.164 3.164 0 01-3.16-3.167 3.164 3.164 0 013.16-3.167zm-25.945.221a2.933 2.933 0 00-2.693 1.84 2.947 2.947 0 002.163 3.997 2.93 2.93 0 003.007-1.258 2.946 2.946 0 00-.379-3.727 2.937 2.937 0 00-2.098-.851zm-25.914.19a2.749 2.749 0 00-2.54 1.702 2.763 2.763 0 00.596 3.002 2.743 2.743 0 004.23-.417 2.76 2.76 0 00.463-1.531 2.726 2.726 0 00-1.692-2.554 2.711 2.711 0 00-1.057-.201zm-25.915.223a2.531 2.531 0 012.529 2.533c0 1.4-1.132 2.534-2.529 2.534a2.53 2.53 0 01-2.528-2.534 2.53 2.53 0 012.528-2.534zm-25.914.221a2.313 2.313 0 000 4.624 2.306 2.306 0 002.307-2.312 2.306 2.306 0 00-2.307-2.312zm-26.009.19a2.115 2.115 0 00-1.956 1.31 2.126 2.126 0 001.543 2.893 2.115 2.115 0 002.174-.902 2.124 2.124 0 00-.263-2.68 2.118 2.118 0 00-1.498-.621zm-25.851.222c1.047 0 1.896.85 1.896 1.9 0 1.05-.849 1.9-1.896 1.9a1.898 1.898 0 01-1.896-1.9c0-1.05.849-1.9 1.896-1.9zm-25.914.221a1.67 1.67 0 00-1.547 1.037 1.678 1.678 0 002.188 2.193 1.676 1.676 0 001.034-1.551 1.677 1.677 0 00-1.675-1.679zm-25.914.191a1.488 1.488 0 000 2.977 1.488 1.488 0 000-2.977zm-25.946.222a1.265 1.265 0 010 2.534 1.265 1.265 0 01-1.264-1.268c0-.7.566-1.267 1.264-1.267zm-25.946.22a1.045 1.045 0 10.901 1.623 1.047 1.047 0 00-.901-1.622zm-25.883.191a.853.853 0 00-.837 1.022.86.86 0 00.671.672.852.852 0 001.02-.839.856.856 0 00-.854-.855zm-25.914.222a.633.633 0 11-.001 1.265.633.633 0 01.001-1.265zm-25.946.221a.41.41 0 00-.29.703.41.41 0 10.58-.582.41.41 0 00-.29-.12zm-25.914.19a.22.22 0 00-.221.222.222.222 0 00.221.222.22.22 0 00.221-.222.222.222 0 00-.22-.222zM388.839 0A3.164 3.164 0 01392 3.167a3.164 3.164 0 01-3.161 3.167 3.164 3.164 0 01-3.16-3.167A3.164 3.164 0 01388.839 0zm-25.945.127a2.967 2.967 0 00-2.748 1.845 2.992 2.992 0 00-.163 1.724 2.975 2.975 0 002.351 2.331 2.966 2.966 0 003.045-1.293 2.972 2.972 0 00.485-1.662 2.954 2.954 0 00-1.836-2.73 2.933 2.933 0 00-1.134-.215zm-25.915.317a2.747 2.747 0 00-1.751.898 2.76 2.76 0 000 3.682 2.747 2.747 0 004.795-1.841 2.763 2.763 0 00-.912-2.05 2.743 2.743 0 00-2.132-.69zm-25.914.19a2.52 2.52 0 00-2.335 1.564 2.53 2.53 0 00-.144 1.463 2.528 2.528 0 005.008-.494c0-.672-.267-1.316-.741-1.791a2.525 2.525 0 00-1.788-.742zm-25.914.221a2.338 2.338 0 00-2.081 1.49 2.346 2.346 0 001.698 3.145 2.334 2.334 0 002.383-.931 2.35 2.35 0 00-.249-3.02 2.336 2.336 0 00-1.751-.684zm-26.009.222a2.084 2.084 0 00-2.086 2.09 2.13 2.13 0 001.293 1.986 2.112 2.112 0 002.322-.454 2.126 2.126 0 00-.341-3.278 2.113 2.113 0 00-1.188-.344zm-25.851.19a1.892 1.892 0 00-1.752 1.173 1.91 1.91 0 00.411 2.07 1.898 1.898 0 002.067.413 1.903 1.903 0 00.615-3.1 1.895 1.895 0 00-1.341-.556zm-25.914.221a1.706 1.706 0 00-1.707 2.036 1.71 1.71 0 002.343 1.248 1.714 1.714 0 001.039-1.605 1.677 1.677 0 00-1.675-1.679zm-25.914.222a1.48 1.48 0 00-1.567.853 1.488 1.488 0 002.475 1.593 1.49 1.49 0 00-.908-2.446zm-25.946.19a1.263 1.263 0 00-1.264 1.267 1.268 1.268 0 001.264 1.267 1.263 1.263 0 001.264-1.267 1.268 1.268 0 00-1.264-1.267zm-25.946.222a1.074 1.074 0 00-.891 1.06 1.079 1.079 0 001.355 1.04 1.078 1.078 0 000-2.079 1.073 1.073 0 00-.464-.021zm-25.882.222a.855.855 0 10.002 1.71.855.855 0 00-.002-1.71zm-25.915.19a.63.63 0 00-.62.756.634.634 0 00.862.462.633.633 0 00-.242-1.218zm-25.945.221a.41.41 0 00-.411.412.413.413 0 00.41.443.442.442 0 00.409-.608.411.411 0 00-.408-.247zm-25.915.222a.19.19 0 00-.19.19.222.222 0 00.19.127.22.22 0 00.221-.222.221.221 0 00-.22-.095z"/></g><defs><clipPath id="clip0_17_769"><path fill="#fff" transform="matrix(1 0 0 -1 0 396)" d="M0 0h392v396H0z"/></clipPath></defs></svg>