<svg width="64" height="64" fill="none" xmlns="http://www.w3.org/2000/svg"><path opacity=".4" d="M16 5.333h32c5.891 0 10.667 4.776 10.667 10.667v32c0 5.891-4.776 10.667-10.667 10.667H16C10.11 58.667 5.334 53.89 5.334 48V16c0-5.891 4.775-10.667 10.666-10.667z" fill="#F36161"/><path d="M45.333 26.667a2.667 2.667 0 11-5.333 0 2.667 2.667 0 015.333 0zm-21.333 0a2.667 2.667 0 11-5.333 0 2.667 2.667 0 015.333 0z" fill="#F36161"/><path fill-rule="evenodd" clip-rule="evenodd" d="M38.681 44.17a2 2 0 002.648-2.998L40 42.667l1.329-1.495-.003-.003-.003-.002-.006-.006-.017-.014-.047-.04a10.049 10.049 0 00-.658-.499 13.785 13.785 0 00-1.847-1.075A15.44 15.44 0 0032 38c-2.862 0-5.16.764-6.748 1.533-.793.385-1.414.774-1.847 1.075a10.085 10.085 0 00-.658.499l-.047.04-.017.014-.006.006-.003.002s-.003.003 1.326 1.498l-1.329-1.495a2 2 0 002.648 2.998l.002-.002.062-.05c.06-.049.163-.127.306-.226a9.782 9.782 0 011.308-.76A11.441 11.441 0 0132 42c2.138 0 3.84.57 5.002 1.133.582.282 1.023.56 1.309.759a5.988 5.988 0 01.366.274l.004.004zm-13.362 0l.002-.002.003-.003.002-.002-.007.007z" fill="#F36161"/></svg>