<svg width="208" height="97" fill="none" xmlns="http://www.w3.org/2000/svg"><g filter="url(#filter0_d_334_2183)"><path fill-rule="evenodd" clip-rule="evenodd" d="M24 10c-5.523 0-10 4.477-10 10v40c0 5.523 4.477 10 10 10 .203 0 .399.08.543.224l6.633 6.613a4 4 0 005.648 0l5.688-5.67A4 4 0 0145.334 70H184c5.523 0 10-4.477 10-10V20c0-5.523-4.477-10-10-10H24z" fill="#fff"/></g><path d="M164.043 27.703v.867c0 .466-.042.86-.125 1.18-.083.32-.203.578-.359.773a1.37 1.37 0 01-.567.426 2.015 2.015 0 01-.742.13c-.219 0-.421-.028-.605-.083a1.433 1.433 0 01-.5-.262 1.582 1.582 0 01-.375-.476 2.54 2.54 0 01-.239-.711 5.18 5.18 0 01-.082-.977v-.867c0-.466.042-.857.125-1.172.086-.315.207-.567.364-.758a1.33 1.33 0 01.562-.414 2.09 2.09 0 01.742-.125c.222 0 .425.028.61.082a1.4 1.4 0 01.5.254c.145.115.269.268.371.461.104.19.183.423.238.7.055.275.082.6.082.972zm-.727.985v-1.106c0-.255-.015-.48-.046-.672a2.141 2.141 0 00-.129-.5 1.008 1.008 0 00-.219-.336.772.772 0 00-.301-.187 1.081 1.081 0 00-.379-.063c-.172 0-.324.033-.457.098a.819.819 0 00-.336.3 1.636 1.636 0 00-.203.544c-.047.224-.07.496-.07.816v1.105c0 .256.014.481.043.676.031.196.077.365.136.508.06.14.133.257.219.348a.82.82 0 00.297.203c.115.041.241.062.379.062.177 0 .332-.034.465-.101a.84.84 0 00.332-.317 1.64 1.64 0 00.203-.558c.044-.23.066-.503.066-.82zm2.375 1.707h.075c.416 0 .755-.06 1.015-.176a1.44 1.44 0 00.602-.473c.14-.198.237-.42.289-.668.052-.25.078-.506.078-.77v-.87a2.4 2.4 0 00-.09-.688 1.486 1.486 0 00-.242-.504 1.073 1.073 0 00-.348-.308.858.858 0 00-.414-.106.944.944 0 00-.781.379c-.089.12-.156.26-.203.422-.047.161-.07.337-.07.527 0 .17.02.334.062.492.042.16.106.302.191.43.086.128.193.23.321.305.13.073.282.11.457.11.161 0 .312-.032.453-.095a1.291 1.291 0 00.644-.64 1.2 1.2 0 00.118-.442h.343c0 .216-.043.43-.129.64-.083.21-.2.4-.351.571-.151.172-.328.31-.531.414a1.465 1.465 0 01-.664.153 1.54 1.54 0 01-.731-.164 1.476 1.476 0 01-.508-.438 2.002 2.002 0 01-.293-.61 2.593 2.593 0 01.02-1.448c.075-.237.187-.446.336-.625.148-.183.332-.325.551-.426.221-.102.476-.153.765-.153.326 0 .603.065.832.196.229.13.416.304.559.523.146.219.252.465.32.738.068.274.102.555.102.844v.262c0 .294-.02.594-.059.898a3.553 3.553 0 01-.215.867 2.27 2.27 0 01-.457.743 2.1 2.1 0 01-.785.515c-.32.125-.716.188-1.187.188h-.075v-.613zm3.829.222a.44.44 0 01.113-.308c.078-.086.19-.13.336-.13.146 0 .256.044.332.13a.434.434 0 01.117.308.43.43 0 01-.117.305c-.076.083-.186.125-.332.125-.146 0-.258-.042-.336-.125a.435.435 0 01-.113-.305zm.003-3.449a.44.44 0 01.114-.309c.078-.086.19-.129.336-.129.145 0 .256.043.332.13a.434.434 0 01.117.308.43.43 0 01-.117.305c-.076.083-.187.125-.332.125-.146 0-.258-.042-.336-.125a.436.436 0 01-.114-.305zm5.457.535v.867c0 .466-.041.86-.125 1.18-.083.32-.203.578-.359.773a1.366 1.366 0 01-.566.426 2.015 2.015 0 01-.742.13 2.13 2.13 0 01-.606-.083 1.433 1.433 0 01-.5-.262 1.582 1.582 0 01-.375-.476 2.54 2.54 0 01-.238-.711 5.099 5.099 0 01-.082-.977v-.867c0-.466.041-.857.125-1.172a2.03 2.03 0 01.363-.758 1.32 1.32 0 01.563-.414c.221-.083.468-.125.742-.125.221 0 .424.028.609.082a1.375 1.375 0 01.871.715c.104.19.184.423.238.7.055.275.082.6.082.972zm-.726.985v-1.106c0-.255-.016-.48-.047-.672a2.141 2.141 0 00-.129-.5.978.978 0 00-.219-.336.775.775 0 00-.3-.187 1.085 1.085 0 00-.379-.063c-.172 0-.325.033-.457.098a.819.819 0 00-.336.3 1.594 1.594 0 00-.203.544 4.04 4.04 0 00-.071.816v1.105c0 .256.015.481.043.676.032.196.077.365.137.508.06.14.133.257.219.348a.82.82 0 00.297.203c.114.041.24.062.379.062.177 0 .332-.034.464-.101a.833.833 0 00.332-.317 1.64 1.64 0 00.204-.558c.044-.23.066-.503.066-.82zm5.226-.985v.867c0 .466-.041.86-.125 1.18-.083.32-.203.578-.359.773a1.366 1.366 0 01-.566.426 2.015 2.015 0 01-.742.13 2.13 2.13 0 01-.606-.083 1.433 1.433 0 01-.5-.262 1.582 1.582 0 01-.375-.476 2.54 2.54 0 01-.238-.711 5.099 5.099 0 01-.082-.977v-.867c0-.466.041-.857.125-1.172a2.03 2.03 0 01.363-.758 1.32 1.32 0 01.563-.414c.221-.083.468-.125.742-.125.221 0 .424.028.609.082a1.375 1.375 0 01.871.715c.104.19.184.423.238.7.055.275.082.6.082.972zm-.726.985v-1.106c0-.255-.016-.48-.047-.672a2.141 2.141 0 00-.129-.5.978.978 0 00-.219-.336.775.775 0 00-.3-.187 1.085 1.085 0 00-.379-.063c-.172 0-.325.033-.457.098a.819.819 0 00-.336.3 1.594 1.594 0 00-.203.544 4.04 4.04 0 00-.071.816v1.105c0 .256.015.481.043.676.032.196.077.365.137.508.06.14.133.257.219.348a.82.82 0 00.297.203c.114.041.24.062.379.062.177 0 .332-.034.464-.101a.833.833 0 00.332-.317 1.64 1.64 0 00.204-.558c.044-.23.066-.503.066-.82z" fill="#2C2C2C"/><path d="M32.805 27.54h-1.352v-.962h1.297c.573 0 1.036-.08 1.39-.242.355-.162.613-.385.774-.672.161-.286.242-.617.242-.992 0-.36-.088-.688-.265-.985-.177-.302-.45-.541-.82-.718-.37-.183-.847-.274-1.43-.274-.438 0-.834.084-1.188.25a2.064 2.064 0 00-.844.68 1.642 1.642 0 00-.312.992h-1.508c0-.484.102-.92.305-1.305.203-.39.482-.72.836-.992a3.858 3.858 0 011.226-.633 4.97 4.97 0 011.485-.218c.609 0 1.161.07 1.656.21.495.136.92.34 1.273.61.355.27.625.607.813 1.008.187.4.281.867.281 1.398 0 .39-.091.758-.273 1.102a2.794 2.794 0 01-.782.906 3.94 3.94 0 01-1.218.617 5.38 5.38 0 01-1.586.22zm-1.352-.665h1.352c.64 0 1.21.065 1.71.195s.922.32 1.266.57c.344.25.604.56.782.93.182.365.273.784.273 1.258 0 .531-.104 1.003-.313 1.414-.203.412-.492.76-.867 1.047-.375.286-.82.503-1.336.648a6.1 6.1 0 01-1.68.22c-.489 0-.973-.063-1.453-.188a4.228 4.228 0 01-1.289-.594 3.101 3.101 0 01-.93-1.031c-.228-.417-.343-.917-.343-1.5h1.508c0 .38.104.729.312 1.047.214.317.508.573.883.765.375.188.813.282 1.313.282.573 0 1.057-.089 1.453-.266.4-.182.706-.43.914-.742a1.88 1.88 0 00.32-1.07c0-.35-.057-.652-.172-.907a1.54 1.54 0 00-.492-.64 2.088 2.088 0 00-.805-.368 4.4 4.4 0 00-1.109-.125h-1.297v-.945zm12.133 4.68v-4.352a1.77 1.77 0 00-.203-.867 1.33 1.33 0 00-.594-.578c-.266-.136-.594-.203-.984-.203-.365 0-.685.062-.961.187a1.67 1.67 0 00-.64.492 1.078 1.078 0 00-.227.657H38.53c0-.302.078-.602.235-.899.156-.297.38-.565.672-.805a3.358 3.358 0 011.062-.578c.417-.146.88-.218 1.39-.218.615 0 1.157.104 1.626.312.474.209.843.524 1.109.945.27.417.406.94.406 1.57v3.938c0 .282.024.581.07.899.053.317.128.59.227.82V33H43.82a2.702 2.702 0 01-.172-.664 5.364 5.364 0 01-.062-.781zm.25-3.68l.016 1.016H42.39c-.412 0-.779.034-1.102.101a2.518 2.518 0 00-.812.29c-.22.13-.386.294-.5.491-.115.193-.172.42-.172.68 0 .266.06.508.18.727.12.218.299.393.538.523.245.125.545.188.899.188a2.38 2.38 0 001.172-.282 2.44 2.44 0 00.804-.687c.204-.271.313-.534.329-.79l.617.696a2.1 2.1 0 01-.297.727 3.5 3.5 0 01-1.602 1.367 3.106 3.106 0 01-1.234.234c-.573 0-1.076-.112-1.508-.336a2.578 2.578 0 01-1-.898 2.379 2.379 0 01-.351-1.274c0-.453.088-.851.265-1.195.177-.349.433-.638.766-.867a3.64 3.64 0 011.203-.531c.469-.12.992-.18 1.57-.18h1.68zm8.328 3.203l2.875-6.531h1.39L52.665 33h-1l-3.75-8.453h1.39l2.86 6.531zm-3.281-6.531V33h-1.446v-8.453h1.446zM55.398 33v-8.453h1.454V33h-1.454zm3.399-4.133v-.18c0-.609.088-1.174.266-1.695.177-.526.432-.982.765-1.367.333-.39.737-.693 1.211-.906a3.758 3.758 0 011.594-.328c.594 0 1.127.109 1.601.328.48.213.886.515 1.22.906.338.385.596.841.773 1.367.177.521.265 1.086.265 1.695v.18c0 .61-.088 1.175-.265 1.695a4.071 4.071 0 01-.774 1.368 3.543 3.543 0 01-1.21.906c-.47.214-1 .32-1.595.32a3.856 3.856 0 01-1.601-.32 3.624 3.624 0 01-1.219-.906 4.13 4.13 0 01-.766-1.367 5.234 5.234 0 01-.265-1.696zm1.445-.18v.18c0 .422.05.82.149 1.195.099.37.247.698.445.985.203.286.456.513.758.68.302.161.653.242 1.054.242a2.15 2.15 0 001.04-.242c.302-.167.552-.394.75-.68.197-.287.346-.615.445-.985.104-.375.156-.773.156-1.195v-.18c0-.416-.052-.81-.156-1.18a3.038 3.038 0 00-.453-.991 2.154 2.154 0 00-.75-.688 2.105 2.105 0 00-1.047-.25c-.396 0-.745.084-1.047.25a2.25 2.25 0 00-.75.688 3.139 3.139 0 00-.445.992 4.55 4.55 0 00-.149 1.18zm12.031.594H69.5l-.016-1.156h2.266c.448 0 .82-.044 1.117-.133.302-.088.529-.221.68-.398a.977.977 0 00.226-.657c0-.203-.044-.38-.132-.53a.966.966 0 00-.383-.384 1.891 1.891 0 00-.64-.226 4.375 4.375 0 00-.884-.078h-1.851V33h-1.445v-8.453h3.296a6.77 6.77 0 011.446.14c.432.094.8.237 1.101.43.307.188.542.427.703.719.162.292.243.635.243 1.031a1.735 1.735 0 01-.618 1.336 2.499 2.499 0 01-.75.438c-.296.109-.638.18-1.023.21l-.563.43zm0 3.719h-3.296l.718-1.172h2.578c.401 0 .735-.05 1-.148.266-.104.464-.25.594-.438.136-.193.203-.422.203-.687a1.13 1.13 0 00-.203-.68c-.13-.193-.328-.338-.594-.438-.265-.104-.599-.156-1-.156h-2.195l.016-1.156h2.742l.523.438c.464.036.857.15 1.18.343.323.193.568.438.734.735.167.291.25.609.25.953 0 .396-.075.744-.226 1.047-.146.302-.36.554-.64.757a3.127 3.127 0 01-1.024.454 5.692 5.692 0 01-1.36.148zm10.836-8.453v1.195h-4.086v-1.195h4.086zm1.274 0V33h-1.445v-8.453h1.445zm-5.711 0h1.453l-.219 4.078c-.036.63-.096 1.188-.18 1.672a5.68 5.68 0 01-.328 1.234 2.576 2.576 0 01-.515.844 1.89 1.89 0 01-.735.477 3.037 3.037 0 01-.992.148h-.453v-1.273l.313-.024a1.33 1.33 0 00.57-.156c.161-.089.297-.219.406-.39a2.37 2.37 0 00.266-.68c.073-.276.127-.605.164-.985.041-.38.073-.823.094-1.328l.156-3.617zm11.547 8.61a4.159 4.159 0 01-1.602-.298 3.632 3.632 0 01-1.226-.851 3.789 3.789 0 01-.782-1.297 4.756 4.756 0 01-.273-1.64v-.329c0-.687.102-1.3.305-1.836.203-.541.479-1 .828-1.375a3.546 3.546 0 011.187-.851c.443-.193.901-.29 1.375-.29.604 0 1.125.105 1.563.313.443.209.804.5 1.086.875.28.37.49.807.625 1.313.135.5.203 1.047.203 1.64v.649h-6.313V28h4.868v-.11a3.604 3.604 0 00-.235-1.093 1.965 1.965 0 00-.625-.875c-.286-.23-.677-.344-1.172-.344a1.966 1.966 0 00-1.617.82 3.04 3.04 0 00-.46.993c-.11.39-.165.84-.165 1.351v.328c0 .401.055.779.164 1.133a2.9 2.9 0 00.492.922c.22.266.482.474.79.625.312.151.666.227 1.062.227.51 0 .943-.105 1.297-.313.354-.208.664-.487.93-.836l.874.695c-.182.276-.414.54-.695.79a3.32 3.32 0 01-1.039.609c-.406.156-.888.234-1.445.234zm10.711-4.946v1.172h-4.47V28.21h4.47zm-4.164-3.664V33H95.32v-8.453h1.446zm5.336 0V33h-1.454v-8.453h1.454zm8.062 3.664v1.172h-4.469V28.21h4.469zM106 24.547V33h-1.445v-8.453H106zm5.336 0V33h-1.453v-8.453h1.453zm4.039 4.422h1.563L114.492 33h-1.562l2.445-4.031zm1.211-4.422h3.531V33h-1.445v-7.281h-2.086c-.412 0-.747.07-1.008.21a1.32 1.32 0 00-.57.532 1.395 1.395 0 00-.016 1.344c.11.208.281.38.516.515.234.136.536.203.906.203h2.648v1.188h-2.648c-.484 0-.914-.065-1.289-.195a2.823 2.823 0 01-.953-.54 2.352 2.352 0 01-.594-.82 2.61 2.61 0 01-.203-1.031c0-.37.07-.71.211-1.023.146-.313.354-.586.625-.82a2.872 2.872 0 011.008-.54c.401-.13.857-.195 1.367-.195z" fill="#5863B4"/><path d="M32.137 54.654h-2.28v-.92h2.28c.441 0 .798-.07 1.072-.21.273-.141.473-.337.598-.587a1.84 1.84 0 00.193-.855c0-.293-.065-.568-.193-.826a1.428 1.428 0 00-.598-.621c-.274-.16-.63-.24-1.072-.24H30.12V58h-1.13v-8.531h3.146c.644 0 1.19.111 1.635.334.445.222.783.531 1.013.925.23.391.346.838.346 1.342 0 .547-.115 1.014-.346 1.4a2.21 2.21 0 01-1.013.886c-.446.199-.99.298-1.635.298zm3.89.246v-.134c0-.457.067-.881.2-1.272a3.02 3.02 0 01.574-1.025c.25-.293.552-.52.908-.68a2.819 2.819 0 011.195-.246c.446 0 .846.082 1.201.246.36.16.665.387.915.68.253.289.447.63.58 1.025.132.39.199.815.199 1.272v.134c0 .457-.067.881-.2 1.272-.132.39-.326.732-.58 1.025a2.64 2.64 0 01-.908.68c-.351.16-.75.24-1.195.24-.445 0-.846-.08-1.201-.24a2.72 2.72 0 01-.914-.68 3.098 3.098 0 01-.574-1.025c-.133-.39-.2-.815-.2-1.272zm1.084-.134v.134c0 .317.037.616.112.897.074.277.185.523.334.738.152.215.341.385.568.51.227.121.49.182.791.182.297 0 .557-.061.78-.182.226-.125.413-.295.562-.51.148-.215.26-.46.334-.738a3.34 3.34 0 00.117-.897v-.134c0-.313-.04-.608-.117-.885a2.28 2.28 0 00-.34-.744 1.617 1.617 0 00-.563-.516 1.578 1.578 0 00-.785-.187c-.297 0-.558.062-.785.187-.222.125-.41.297-.562.516-.149.215-.26.463-.334.744a3.406 3.406 0 00-.112.885zm8.414.205H44.36v-.668h1.078c.301 0 .54-.037.715-.112a.754.754 0 00.375-.322.99.99 0 00.112-.48.891.891 0 00-.13-.463.876.876 0 00-.398-.358c-.183-.093-.43-.14-.738-.14-.25 0-.476.045-.68.135a1.207 1.207 0 00-.486.357.792.792 0 00-.176.504h-1.084c0-.387.11-.719.328-.996.223-.281.518-.498.885-.65a3.163 3.163 0 011.213-.23c.367 0 .695.042.984.124a2.1 2.1 0 01.745.351c.203.153.357.344.463.575.109.226.163.49.163.79 0 .215-.05.419-.152.61a1.587 1.587 0 01-.44.51 2.192 2.192 0 01-.697.34 3.14 3.14 0 01-.914.123zm-1.166-.41h1.166c.38 0 .713.037 1.002.11.29.071.532.177.727.317.195.14.342.315.44.522.1.203.152.437.152.703 0 .297-.06.564-.182.803a1.68 1.68 0 01-.504.597c-.219.164-.48.29-.785.375-.3.086-.635.13-1.002.13-.41 0-.808-.071-1.195-.212a2.231 2.231 0 01-.955-.65c-.25-.297-.375-.674-.375-1.131h1.084c0 .191.06.373.181.545.121.172.29.31.504.416.219.105.47.158.756.158.305 0 .559-.047.762-.14a1.06 1.06 0 00.457-.376.893.893 0 00.158-.51c0-.238-.047-.429-.14-.574a.803.803 0 00-.434-.316 2.175 2.175 0 00-.739-.105H44.36v-.663zm5.977-1.682v7.559h-1.09V51.66h.996l.094 1.219zm4.271 1.898v.123c0 .461-.054.89-.164 1.284-.109.39-.27.73-.48 1.02a2.19 2.19 0 01-.768.673c-.304.16-.654.24-1.048.24-.403 0-.758-.066-1.067-.199a2.104 2.104 0 01-.785-.58 2.964 2.964 0 01-.516-.914 5.29 5.29 0 01-.258-1.201v-.657a5.51 5.51 0 01.264-1.26c.13-.37.299-.687.51-.949.215-.265.474-.466.78-.603.304-.14.655-.211 1.054-.211.398 0 .752.078 1.06.234.309.153.569.371.78.657a3 3 0 01.474 1.025c.11.394.164.834.164 1.318zm-1.09.123v-.123c0-.316-.033-.613-.099-.89a2.252 2.252 0 00-.31-.739 1.48 1.48 0 00-.528-.504 1.5 1.5 0 00-.767-.187 1.69 1.69 0 00-.715.14c-.2.094-.37.221-.51.381-.14.157-.256.337-.346.54-.086.199-.15.406-.193.62v1.518c.078.274.187.532.328.774a1.7 1.7 0 00.563.58c.234.144.529.217.884.217.293 0 .545-.061.756-.182a1.53 1.53 0 00.527-.51 2.3 2.3 0 00.311-.738c.066-.281.1-.58.1-.897zm2.186 0v-.134a3.9 3.9 0 01.2-1.272 3.01 3.01 0 01.574-1.025c.25-.293.552-.52.908-.68a2.819 2.819 0 011.195-.246c.445 0 .846.082 1.201.246.36.16.664.387.914.68.254.289.448.63.58 1.025.133.39.2.815.2 1.272v.134c0 .457-.067.881-.2 1.272-.132.39-.326.732-.58 1.025a2.64 2.64 0 01-.908.68c-.352.16-.75.24-1.195.24-.445 0-.846-.08-1.201-.24a2.72 2.72 0 01-.914-.68 3.1 3.1 0 01-.575-1.025 3.922 3.922 0 01-.199-1.272zm1.084-.134v.134c0 .317.037.616.111.897.075.277.186.523.334.738.153.215.342.385.569.51.226.121.49.182.79.182.298 0 .557-.061.78-.182.227-.125.414-.295.563-.51.148-.215.26-.46.334-.738a3.34 3.34 0 00.117-.897v-.134c0-.313-.04-.608-.117-.885a2.277 2.277 0 00-.34-.744 1.615 1.615 0 00-.563-.516 1.577 1.577 0 00-.785-.187c-.297 0-.558.062-.785.187-.223.125-.41.297-.563.516-.148.215-.26.463-.334.744a3.41 3.41 0 00-.11.885zM66.9 48.9h.891c0 .383-.059.688-.176.915a1.278 1.278 0 01-.48.515c-.2.121-.426.213-.68.276-.25.062-.51.122-.78.181-.335.07-.648.182-.937.334a2.19 2.19 0 00-.738.633c-.203.273-.353.629-.451 1.066-.094.438-.12.979-.076 1.623v.54h-.891v-.54c0-.722.068-1.353.205-1.892.14-.54.338-.994.592-1.366.254-.37.555-.666.902-.884.352-.219.738-.37 1.16-.451.305-.059.567-.122.786-.188.218-.07.384-.164.498-.281.117-.117.175-.278.175-.48zm-1.283 3.123c.414 0 .783.073 1.108.217.324.145.6.346.826.604.226.258.398.562.515.914.121.347.182.726.182 1.136v.13c0 .44-.064.851-.193 1.23-.125.375-.31.703-.557.984a2.528 2.528 0 01-.89.65 2.873 2.873 0 01-1.19.235c-.445 0-.844-.078-1.195-.234a2.602 2.602 0 01-.891-.65 2.917 2.917 0 01-.563-.985 3.906 3.906 0 01-.187-1.23v-.13c0-.097.018-.193.053-.287.035-.093.078-.189.129-.287.054-.097.103-.2.146-.31.145-.352.342-.678.592-.979.254-.3.557-.543.908-.726a2.547 2.547 0 011.207-.282zm-.21.885c-.4 0-.727.092-.985.276a1.66 1.66 0 00-.569.732c-.125.3-.187.627-.187.979v.128c0 .297.035.579.106.844.07.266.175.502.316.71.144.202.326.363.545.48.223.117.484.175.785.175.3 0 .56-.058.78-.175.218-.117.398-.278.538-.48.141-.208.246-.444.317-.71.07-.265.105-.547.105-.844v-.129c0-.265-.035-.517-.105-.755a1.865 1.865 0 00-.322-.633 1.461 1.461 0 00-.545-.434 1.724 1.724 0 00-.78-.164zm5.138 3.375l2.924-4.623h1.09V58h-1.09v-4.623L70.545 58h-1.078v-6.34h1.078v4.623zm8.338-4.623V58h-1.09v-6.34h1.09zm2.127 0v.88h-5.303v-.88h5.303zm2.238 4.623l2.924-4.623h1.09V58h-1.09v-4.623L83.248 58H82.17v-6.34h1.078v4.623z" fill="#2C2C2C"/><path d="M95.102 50.318h1.412c.492 0 .947.084 1.365.252a3.244 3.244 0 011.84 1.793c.175.418.263.881.263 1.389s-.088.973-.263 1.395a3.268 3.268 0 01-1.84 1.804 3.705 3.705 0 01-1.365.246h-1.412c-.493 0-.948-.082-1.366-.246a3.399 3.399 0 01-1.101-.709 3.262 3.262 0 01-.733-1.084 3.664 3.664 0 01-.258-1.394c0-.508.087-.971.258-1.389.176-.422.42-.785.733-1.09a3.351 3.351 0 011.101-.715 3.628 3.628 0 011.366-.252zm0 .891c-.512 0-.946.107-1.301.322a2.033 2.033 0 00-.809.89c-.183.384-.275.831-.275 1.343 0 .386.05.736.152 1.048.106.313.26.58.463.803.203.223.453.395.75.516s.637.181 1.02.181h1.423c.508 0 .938-.105 1.29-.316.355-.215.624-.514.808-.896.188-.387.281-.836.281-1.348 0-.383-.052-.73-.158-1.043a2.235 2.235 0 00-.463-.803 1.99 1.99 0 00-.744-.515 2.637 2.637 0 00-1.014-.182h-1.423zm1.254-2.092v9.235h-1.084v-9.235h1.084zm6.07 2.543V58h-1.09v-6.34h1.09zm-1.172-1.681c0-.176.053-.325.158-.446.109-.12.27-.181.481-.181.207 0 .365.06.474.181a.63.63 0 01.17.445.614.614 0 01-.17.434c-.109.117-.267.176-.474.176-.211 0-.372-.059-.481-.176a.64.64 0 01-.158-.434zm3.996 2.9v7.559h-1.09V51.66h.996l.094 1.219zm4.271 1.898v.123c0 .461-.054.89-.164 1.284-.109.39-.269.73-.48 1.02a2.19 2.19 0 01-.768.673c-.304.16-.654.24-1.048.24a2.68 2.68 0 01-1.067-.199 2.109 2.109 0 01-.785-.58 2.962 2.962 0 01-.516-.914 5.243 5.243 0 01-.257-1.201v-.657c.046-.468.134-.888.263-1.26a3.14 3.14 0 01.51-.949c.215-.265.475-.466.779-.603.305-.14.657-.211 1.055-.211.398 0 .752.078 1.061.234.308.153.568.371.779.657.211.285.369.627.474 1.025.11.394.164.834.164 1.318zm-1.089.123v-.123c0-.316-.034-.613-.1-.89a2.236 2.236 0 00-.311-.739 1.472 1.472 0 00-.527-.504 1.5 1.5 0 00-.767-.187 1.69 1.69 0 00-.715.14c-.2.094-.369.221-.51.381a2.018 2.018 0 00-.346.54c-.086.199-.15.406-.193.62v1.518c.078.274.187.532.328.774a1.7 1.7 0 00.563.58c.234.144.529.217.884.217.293 0 .545-.061.756-.182.215-.125.391-.295.527-.51a2.3 2.3 0 00.311-.738c.066-.281.1-.58.1-.897zm6.117 1.659l2.156-4.899h1.043L114.924 58h-.75l-2.813-6.34h1.043l2.145 4.899zm-2.461-4.899V58h-1.084v-6.34h1.084zm4.887 6.34v-6.34h1.089V58h-1.089zm2.548-3.1v-.134c0-.457.067-.881.2-1.272a3.01 3.01 0 01.574-1.025c.25-.293.553-.52.908-.68a2.82 2.82 0 011.195-.246c.446 0 .846.082 1.202.246.359.16.664.387.914.68.254.289.447.63.58 1.025.133.39.199.815.199 1.272v.134c0 .457-.066.881-.199 1.272-.133.39-.326.732-.58 1.025-.25.29-.553.516-.909.68-.351.16-.75.24-1.195.24-.445 0-.846-.08-1.201-.24a2.715 2.715 0 01-.914-.68 3.083 3.083 0 01-.574-1.025c-.133-.39-.2-.815-.2-1.272zm1.084-.134v.134c0 .317.038.616.112.897.074.277.185.523.334.738.152.215.342.385.568.51.227.121.49.182.791.182.297 0 .557-.061.779-.182.227-.125.414-.295.563-.51.148-.215.26-.46.334-.738a3.34 3.34 0 00.117-.897v-.134c0-.313-.039-.608-.117-.885a2.282 2.282 0 00-.34-.744 1.615 1.615 0 00-.562-.516 1.581 1.581 0 00-.786-.187c-.296 0-.558.062-.785.187-.222.125-.41.297-.562.516-.149.215-.26.463-.334.744a3.419 3.419 0 00-.112.885zm9.024.445h-2.08l-.012-.867h1.699c.336 0 .616-.034.838-.1.227-.066.397-.166.51-.299a.734.734 0 00.17-.492.768.768 0 00-.387-.685 1.417 1.417 0 00-.48-.17 3.288 3.288 0 00-.662-.059h-1.389V58h-1.084v-6.34h2.473c.402 0 .763.035 1.084.106.324.07.599.177.826.322.23.14.406.32.527.539.121.219.182.476.182.773a1.304 1.304 0 01-.463 1.002 1.88 1.88 0 01-.563.328 2.892 2.892 0 01-.767.159l-.422.322zm0 2.789h-2.473l.539-.879h1.934c.301 0 .551-.037.75-.111a.937.937 0 00.445-.328.871.871 0 00.153-.516c0-.2-.051-.37-.153-.51a.89.89 0 00-.445-.328 2.07 2.07 0 00-.75-.117h-1.647l.012-.867h2.057l.392.328c.348.027.643.113.885.258.242.144.426.328.551.55.125.22.187.458.187.715 0 .297-.056.559-.17.785a1.49 1.49 0 01-.48.569 2.348 2.348 0 01-.768.34c-.3.074-.64.111-1.019.111zm5.062-1.717l2.924-4.623h1.09V58h-1.09v-4.623L134.693 58h-1.078v-6.34h1.078v4.623zm6.926 0l2.924-4.623h1.09V58h-1.09v-4.623L141.619 58h-1.078v-6.34h1.078v4.623zm2.332-6.92h.879c0 .305-.07.577-.211.815-.14.234-.342.418-.603.55a2.04 2.04 0 01-.932.2c-.543 0-.973-.145-1.289-.434-.313-.293-.469-.67-.469-1.13h.879c0 .23.066.433.199.609.133.175.36.263.68.263.312 0 .535-.088.668-.263a.982.982 0 00.199-.61zm8.936 7.864c.258 0 .496-.053.715-.159.218-.105.398-.25.539-.433.14-.188.22-.4.24-.639h1.031a1.924 1.924 0 01-.381 1.049c-.23.32-.533.58-.908.78a2.635 2.635 0 01-1.236.292c-.477 0-.893-.084-1.248-.252a2.466 2.466 0 01-.879-.691 3.076 3.076 0 01-.522-1.008 4.263 4.263 0 01-.17-1.213v-.246c0-.426.057-.828.17-1.207.117-.383.291-.72.522-1.014.234-.293.527-.523.879-.691.355-.168.771-.252 1.248-.252.496 0 .929.102 1.301.305.371.199.662.472.873.82.214.344.332.734.351 1.172h-1.031a1.566 1.566 0 00-.223-.71 1.392 1.392 0 00-.515-.503 1.441 1.441 0 00-.756-.193c-.332 0-.612.066-.838.199a1.459 1.459 0 00-.533.527 2.47 2.47 0 00-.282.733 4.078 4.078 0 00-.082.814v.246c0 .277.028.55.082.82.055.27.147.514.276.733.133.219.31.394.533.527.227.13.508.194.844.194zm6.328-5.567V58h-1.09v-6.34h1.09zm2.127 0v.88h-5.303v-.88h5.303zm2.238 4.623l2.924-4.623h1.09V58h-1.09v-4.623L163.58 58h-1.078v-6.34h1.078v4.623zm9.99-4.623v.897h-3.064v-.897h3.064zm.955 0V58h-1.084v-6.34h1.084zm-4.283 0h1.09l-.164 3.059c-.027.472-.072.89-.135 1.254a4.2 4.2 0 01-.246.925 1.91 1.91 0 01-.387.633c-.152.16-.336.28-.55.358a2.28 2.28 0 01-.745.111h-.339v-.955l.234-.018a1 1 0 00.428-.117.837.837 0 00.304-.293c.082-.133.149-.302.2-.51.054-.207.095-.453.123-.738.031-.285.054-.617.07-.996l.117-2.713zm6.92 2.18h1.904c.512 0 .944.09 1.295.27.352.175.618.42.797.732.184.308.276.66.276 1.055 0 .293-.051.568-.153.826a1.85 1.85 0 01-.457.668 2.107 2.107 0 01-.744.45 2.986 2.986 0 01-1.014.159h-2.695v-6.34h1.084v5.45h1.611c.313 0 .563-.057.75-.17a.99.99 0 00.405-.44 1.34 1.34 0 000-1.125 1.05 1.05 0 00-.405-.457c-.187-.125-.437-.188-.75-.188h-1.904v-.89z" fill="#F36161"/><defs><filter id="filter0_d_334_2183" x="0" y="0" width="208" height="96.004" filterUnits="userSpaceOnUse" color-interpolation-filters="sRGB"><feFlood flood-opacity="0" result="BackgroundImageFix"/><feColorMatrix in="SourceAlpha" values="0 0 0 0 0 0 0 0 0 0 0 0 0 0 0 0 0 0 127 0" result="hardAlpha"/><feOffset dy="4"/><feGaussianBlur stdDeviation="7"/><feComposite in2="hardAlpha" operator="out"/><feColorMatrix values="0 0 0 0 0.188906 0 0 0 0 0.224608 0 0 0 0 0.4875 0 0 0 0.2 0"/><feBlend in2="BackgroundImageFix" result="effect1_dropShadow_334_2183"/><feBlend in="SourceGraphic" in2="effect1_dropShadow_334_2183" result="shape"/></filter></defs></svg>