<svg width="208" height="97" fill="none" xmlns="http://www.w3.org/2000/svg"><g filter="url(#filter0_d_334_2190)"><path fill-rule="evenodd" clip-rule="evenodd" d="M24 10c-5.523 0-10 4.477-10 10v40c0 5.523 4.477 10 10 10h138.665a4 4 0 012.823 1.167l5.688 5.67a4 4 0 005.648 0l6.633-6.613A.77.77 0 01184 70c5.523 0 10-4.477 10-10V20c0-5.523-4.477-10-10-10H24z" fill="#fff"/></g><path d="M164.043 27.703v.867c0 .466-.042.86-.125 1.18-.083.32-.203.578-.359.773a1.37 1.37 0 01-.567.426 2.015 2.015 0 01-.742.13c-.219 0-.421-.028-.605-.083a1.433 1.433 0 01-.5-.262 1.582 1.582 0 01-.375-.476 2.54 2.54 0 01-.239-.711 5.18 5.18 0 01-.082-.977v-.867c0-.466.042-.857.125-1.172.086-.315.207-.567.364-.758a1.33 1.33 0 01.562-.414 2.09 2.09 0 01.742-.125c.222 0 .425.028.61.082a1.4 1.4 0 01.5.254c.145.115.269.268.371.461.104.19.183.423.238.7.055.275.082.6.082.972zm-.727.985v-1.106c0-.255-.015-.48-.046-.672a2.141 2.141 0 00-.129-.5 1.008 1.008 0 00-.219-.336.772.772 0 00-.301-.187 1.081 1.081 0 00-.379-.063c-.172 0-.324.033-.457.098a.819.819 0 00-.336.3 1.636 1.636 0 00-.203.544c-.047.224-.07.496-.07.816v1.105c0 .256.014.481.043.676.031.196.077.365.136.508.06.14.133.257.219.348a.82.82 0 00.297.203c.115.041.241.062.379.062.177 0 .332-.034.465-.101a.84.84 0 00.332-.317 1.64 1.64 0 00.203-.558c.044-.23.066-.503.066-.82zm2.375 1.707h.075c.416 0 .755-.06 1.015-.176a1.44 1.44 0 00.602-.473c.14-.198.237-.42.289-.668.052-.25.078-.506.078-.77v-.87a2.4 2.4 0 00-.09-.688 1.486 1.486 0 00-.242-.504 1.073 1.073 0 00-.348-.308.858.858 0 00-.414-.106.944.944 0 00-.781.379c-.089.12-.156.26-.203.422-.047.161-.07.337-.07.527 0 .17.02.334.062.492.042.16.106.302.191.43.086.128.193.23.321.305.13.073.282.11.457.11.161 0 .312-.032.453-.095a1.291 1.291 0 00.644-.64 1.2 1.2 0 00.118-.442h.343c0 .216-.043.43-.129.64-.083.21-.2.4-.351.571-.151.172-.328.31-.531.414a1.465 1.465 0 01-.664.153 1.54 1.54 0 01-.731-.164 1.476 1.476 0 01-.508-.438 2.002 2.002 0 01-.293-.61 2.593 2.593 0 01.02-1.448c.075-.237.187-.446.336-.625.148-.183.332-.325.551-.426.221-.102.476-.153.765-.153.326 0 .603.065.832.196.229.13.416.304.559.523.146.219.252.465.32.738.068.274.102.555.102.844v.262c0 .294-.02.594-.059.898a3.553 3.553 0 01-.215.867 2.27 2.27 0 01-.457.743 2.1 2.1 0 01-.785.515c-.32.125-.716.188-1.187.188h-.075v-.613zm3.829.222a.44.44 0 01.113-.308c.078-.086.19-.13.336-.13.146 0 .256.044.332.13a.434.434 0 01.117.308.43.43 0 01-.117.305c-.076.083-.186.125-.332.125-.146 0-.258-.042-.336-.125a.435.435 0 01-.113-.305zm.003-3.449a.44.44 0 01.114-.309c.078-.086.19-.129.336-.129.145 0 .256.043.332.13a.434.434 0 01.117.308.43.43 0 01-.117.305c-.076.083-.187.125-.332.125-.146 0-.258-.042-.336-.125a.436.436 0 01-.114-.305zm5.457.535v.867c0 .466-.041.86-.125 1.18-.083.32-.203.578-.359.773a1.366 1.366 0 01-.566.426 2.015 2.015 0 01-.742.13 2.13 2.13 0 01-.606-.083 1.433 1.433 0 01-.5-.262 1.582 1.582 0 01-.375-.476 2.54 2.54 0 01-.238-.711 5.099 5.099 0 01-.082-.977v-.867c0-.466.041-.857.125-1.172a2.03 2.03 0 01.363-.758 1.32 1.32 0 01.563-.414c.221-.083.468-.125.742-.125.221 0 .424.028.609.082a1.375 1.375 0 01.871.715c.104.19.184.423.238.7.055.275.082.6.082.972zm-.726.985v-1.106c0-.255-.016-.48-.047-.672a2.141 2.141 0 00-.129-.5.978.978 0 00-.219-.336.775.775 0 00-.3-.187 1.085 1.085 0 00-.379-.063c-.172 0-.325.033-.457.098a.819.819 0 00-.336.3 1.594 1.594 0 00-.203.544 4.04 4.04 0 00-.071.816v1.105c0 .256.015.481.043.676.032.196.077.365.137.508.06.14.133.257.219.348a.82.82 0 00.297.203c.114.041.24.062.379.062.177 0 .332-.034.464-.101a.833.833 0 00.332-.317 1.64 1.64 0 00.204-.558c.044-.23.066-.503.066-.82zm5.383 1.718V31h-3.723v-.52l1.863-2.074c.23-.255.407-.471.532-.648.127-.18.216-.34.265-.48.052-.144.078-.29.078-.438a1.09 1.09 0 00-.117-.508.872.872 0 00-.336-.367 1.01 1.01 0 00-.539-.137c-.252 0-.463.05-.633.149a.92.92 0 00-.375.406 1.385 1.385 0 00-.125.601h-.722c0-.32.07-.613.211-.879a1.55 1.55 0 01.625-.632c.276-.16.616-.239 1.019-.239.36 0 .667.064.922.192.255.125.451.302.586.531.138.227.207.492.207.797 0 .167-.029.336-.086.508a2.619 2.619 0 01-.23.508 4.03 4.03 0 01-.34.5 8.188 8.188 0 01-.41.484l-1.524 1.652h2.852z" fill="#2C2C2C"/><path d="M32.805 27.54h-1.352v-.962h1.297c.573 0 1.036-.08 1.39-.242.355-.162.613-.385.774-.672.161-.286.242-.617.242-.992 0-.36-.088-.688-.265-.985-.177-.302-.45-.541-.82-.718-.37-.183-.847-.274-1.43-.274-.438 0-.834.084-1.188.25a2.064 2.064 0 00-.844.68 1.642 1.642 0 00-.312.992h-1.508c0-.484.102-.92.305-1.305.203-.39.482-.72.836-.992a3.858 3.858 0 011.226-.633 4.97 4.97 0 011.485-.218c.609 0 1.161.07 1.656.21.495.136.92.34 1.273.61.355.27.625.607.813 1.008.187.4.281.867.281 1.398 0 .39-.091.758-.273 1.102a2.794 2.794 0 01-.782.906 3.94 3.94 0 01-1.218.617 5.38 5.38 0 01-1.586.22zm-1.352-.665h1.352c.64 0 1.21.065 1.71.195s.922.32 1.266.57c.344.25.604.56.782.93.182.365.273.784.273 1.258 0 .531-.104 1.003-.313 1.414-.203.412-.492.76-.867 1.047-.375.286-.82.503-1.336.648a6.1 6.1 0 01-1.68.22c-.489 0-.973-.063-1.453-.188a4.228 4.228 0 01-1.289-.594 3.101 3.101 0 01-.93-1.031c-.228-.417-.343-.917-.343-1.5h1.508c0 .38.104.729.312 1.047.214.317.508.573.883.765.375.188.813.282 1.313.282.573 0 1.057-.089 1.453-.266.4-.182.706-.43.914-.742a1.88 1.88 0 00.32-1.07c0-.35-.057-.652-.172-.907a1.54 1.54 0 00-.492-.64 2.088 2.088 0 00-.805-.368 4.4 4.4 0 00-1.109-.125h-1.297v-.945zm12.133 4.68v-4.352a1.77 1.77 0 00-.203-.867 1.33 1.33 0 00-.594-.578c-.266-.136-.594-.203-.984-.203-.365 0-.685.062-.961.187a1.67 1.67 0 00-.64.492 1.078 1.078 0 00-.227.657H38.53c0-.302.078-.602.235-.899.156-.297.38-.565.672-.805a3.358 3.358 0 011.062-.578c.417-.146.88-.218 1.39-.218.615 0 1.157.104 1.626.312.474.209.843.524 1.109.945.27.417.406.94.406 1.57v3.938c0 .282.024.581.07.899.053.317.128.59.227.82V33H43.82a2.702 2.702 0 01-.172-.664 5.364 5.364 0 01-.062-.781zm.25-3.68l.016 1.016H42.39c-.412 0-.779.034-1.102.101a2.518 2.518 0 00-.812.29c-.22.13-.386.294-.5.491-.115.193-.172.42-.172.68 0 .266.06.508.18.727.12.218.299.393.538.523.245.125.545.188.899.188a2.38 2.38 0 001.172-.282 2.44 2.44 0 00.804-.687c.204-.271.313-.534.329-.79l.617.696a2.1 2.1 0 01-.297.727 3.5 3.5 0 01-1.602 1.367 3.106 3.106 0 01-1.234.234c-.573 0-1.076-.112-1.508-.336a2.578 2.578 0 01-1-.898 2.379 2.379 0 01-.351-1.274c0-.453.088-.851.265-1.195.177-.349.433-.638.766-.867a3.64 3.64 0 011.203-.531c.469-.12.992-.18 1.57-.18h1.68zm8.328 3.203l2.875-6.531h1.39L52.665 33h-1l-3.75-8.453h1.39l2.86 6.531zm-3.281-6.531V33h-1.446v-8.453h1.446zM55.398 33v-8.453h1.454V33h-1.454zm3.399-4.133v-.18c0-.609.088-1.174.266-1.695.177-.526.432-.982.765-1.367.333-.39.737-.693 1.211-.906a3.758 3.758 0 011.594-.328c.594 0 1.127.109 1.601.328.48.213.886.515 1.22.906.338.385.596.841.773 1.367.177.521.265 1.086.265 1.695v.18c0 .61-.088 1.175-.265 1.695a4.071 4.071 0 01-.774 1.368 3.543 3.543 0 01-1.21.906c-.47.214-1 .32-1.595.32a3.856 3.856 0 01-1.601-.32 3.624 3.624 0 01-1.219-.906 4.13 4.13 0 01-.766-1.367 5.234 5.234 0 01-.265-1.696zm1.445-.18v.18c0 .422.05.82.149 1.195.099.37.247.698.445.985.203.286.456.513.758.68.302.161.653.242 1.054.242a2.15 2.15 0 001.04-.242c.302-.167.552-.394.75-.68.197-.287.346-.615.445-.985.104-.375.156-.773.156-1.195v-.18c0-.416-.052-.81-.156-1.18a3.038 3.038 0 00-.453-.991 2.154 2.154 0 00-.75-.688 2.105 2.105 0 00-1.047-.25c-.396 0-.745.084-1.047.25a2.25 2.25 0 00-.75.688 3.139 3.139 0 00-.445.992 4.55 4.55 0 00-.149 1.18zm12.031.594H69.5l-.016-1.156h2.266c.448 0 .82-.044 1.117-.133.302-.088.529-.221.68-.398a.977.977 0 00.226-.657c0-.203-.044-.38-.132-.53a.966.966 0 00-.383-.384 1.891 1.891 0 00-.64-.226 4.375 4.375 0 00-.884-.078h-1.851V33h-1.445v-8.453h3.296a6.77 6.77 0 011.446.14c.432.094.8.237 1.101.43.307.188.542.427.703.719.162.292.243.635.243 1.031a1.735 1.735 0 01-.618 1.336 2.499 2.499 0 01-.75.438c-.296.109-.638.18-1.023.21l-.563.43zm0 3.719h-3.296l.718-1.172h2.578c.401 0 .735-.05 1-.148.266-.104.464-.25.594-.438.136-.193.203-.422.203-.687a1.13 1.13 0 00-.203-.68c-.13-.193-.328-.338-.594-.438-.265-.104-.599-.156-1-.156h-2.195l.016-1.156h2.742l.523.438c.464.036.857.15 1.18.343.323.193.568.438.734.735.167.291.25.609.25.953 0 .396-.075.744-.226 1.047-.146.302-.36.554-.64.757a3.127 3.127 0 01-1.024.454 5.692 5.692 0 01-1.36.148zm10.836-8.453v1.195h-4.086v-1.195h4.086zm1.274 0V33h-1.445v-8.453h1.445zm-5.711 0h1.453l-.219 4.078c-.036.63-.096 1.188-.18 1.672a5.68 5.68 0 01-.328 1.234 2.576 2.576 0 01-.515.844 1.89 1.89 0 01-.735.477 3.037 3.037 0 01-.992.148h-.453v-1.273l.313-.024a1.33 1.33 0 00.57-.156c.161-.089.297-.219.406-.39a2.37 2.37 0 00.266-.68c.073-.276.127-.605.164-.985.041-.38.073-.823.094-1.328l.156-3.617zm11.547 8.61a4.159 4.159 0 01-1.602-.298 3.632 3.632 0 01-1.226-.851 3.789 3.789 0 01-.782-1.297 4.756 4.756 0 01-.273-1.64v-.329c0-.687.102-1.3.305-1.836.203-.541.479-1 .828-1.375a3.546 3.546 0 011.187-.851c.443-.193.901-.29 1.375-.29.604 0 1.125.105 1.563.313.443.209.804.5 1.086.875.28.37.49.807.625 1.313.135.5.203 1.047.203 1.64v.649h-6.313V28h4.868v-.11a3.604 3.604 0 00-.235-1.093 1.965 1.965 0 00-.625-.875c-.286-.23-.677-.344-1.172-.344a1.966 1.966 0 00-1.617.82 3.04 3.04 0 00-.46.993c-.11.39-.165.84-.165 1.351v.328c0 .401.055.779.164 1.133a2.9 2.9 0 00.492.922c.22.266.482.474.79.625.312.151.666.227 1.062.227.51 0 .943-.105 1.297-.313.354-.208.664-.487.93-.836l.874.695c-.182.276-.414.54-.695.79a3.32 3.32 0 01-1.039.609c-.406.156-.888.234-1.445.234zm10.711-4.946v1.172h-4.47V28.21h4.47zm-4.164-3.664V33H95.32v-8.453h1.446zm5.336 0V33h-1.454v-8.453h1.454zm8.062 3.664v1.172h-4.469V28.21h4.469zM106 24.547V33h-1.445v-8.453H106zm5.336 0V33h-1.453v-8.453h1.453zm4.039 4.422h1.563L114.492 33h-1.562l2.445-4.031zm1.211-4.422h3.531V33h-1.445v-7.281h-2.086c-.412 0-.747.07-1.008.21a1.32 1.32 0 00-.57.532 1.395 1.395 0 00-.016 1.344c.11.208.281.38.516.515.234.136.536.203.906.203h2.648v1.188h-2.648c-.484 0-.914-.065-1.289-.195a2.823 2.823 0 01-.953-.54 2.352 2.352 0 01-.594-.82 2.61 2.61 0 01-.203-1.031c0-.37.07-.71.211-1.023.146-.313.354-.586.625-.82a2.872 2.872 0 011.008-.54c.401-.13.857-.195 1.367-.195z" fill="#5863B4"/><path d="M34.14 55.287h1.126a3.588 3.588 0 01-.463 1.447 2.71 2.71 0 01-1.06 1.014c-.458.246-1.028.37-1.712.37-.5 0-.955-.095-1.365-.282a3.035 3.035 0 01-1.049-.797 3.73 3.73 0 01-.68-1.248 5.325 5.325 0 01-.234-1.629v-.85c0-.597.078-1.138.235-1.622a3.66 3.66 0 01.685-1.255 3.06 3.06 0 011.084-.802 3.47 3.47 0 011.424-.281c.644 0 1.19.12 1.635.363.445.242.79.578 1.037 1.008.25.425.404.92.463 1.482H34.14a3.134 3.134 0 00-.305-1.025 1.583 1.583 0 00-.633-.668c-.273-.157-.63-.235-1.072-.235-.379 0-.713.073-1.002.217a2.02 2.02 0 00-.72.615 2.864 2.864 0 00-.434.956 4.859 4.859 0 00-.147 1.236v.861c0 .418.043.81.129 1.178.09.367.225.69.404.967a2 2 0 00.686.656c.277.156.605.234.984.234.48 0 .864-.076 1.149-.228.285-.153.5-.371.644-.657.149-.285.254-.627.317-1.025zm5.087-3.627V58h-1.09v-6.34h1.09zm2.127 0v.88H36.05v-.88h5.302zm4.043 3.55h-2.08l-.012-.866h1.699c.336 0 .615-.034.838-.1.226-.066.396-.166.51-.299a.733.733 0 00.17-.492.774.774 0 00-.387-.685 1.416 1.416 0 00-.48-.17 3.28 3.28 0 00-.663-.059h-1.389V58H42.52v-6.34h2.473c.403 0 .764.035 1.084.106.324.07.6.177.826.322.23.14.407.32.528.539.12.219.181.476.181.773a1.3 1.3 0 01-.463 1.002c-.152.133-.34.242-.562.328a2.901 2.901 0 01-.768.159l-.421.322zm0 2.79h-2.473l.539-.879h1.934c.3 0 .55-.037.75-.111a.94.94 0 00.445-.328.873.873 0 00.152-.516c0-.2-.05-.37-.152-.51a.893.893 0 00-.445-.328 2.07 2.07 0 00-.75-.117H43.75l.012-.867h2.056l.393.328c.348.027.642.113.885.258.242.144.426.328.55.55.126.22.188.458.188.715 0 .297-.057.559-.17.785-.11.227-.27.417-.48.569a2.376 2.376 0 01-.768.34c-.3.074-.64.111-1.02.111zM49 54.9v-.134a3.9 3.9 0 01.2-1.272 3.02 3.02 0 01.573-1.025c.25-.293.553-.52.909-.68a2.819 2.819 0 011.195-.246c.445 0 .846.082 1.201.246.36.16.664.387.914.68.254.289.448.63.58 1.025.133.39.2.815.2 1.272v.134c0 .457-.067.881-.2 1.272-.133.39-.326.732-.58 1.025a2.64 2.64 0 01-.908.68c-.352.16-.75.24-1.195.24-.446 0-.846-.08-1.202-.24a2.72 2.72 0 01-.914-.68 3.098 3.098 0 01-.574-1.025A3.922 3.922 0 0149 54.9zm1.084-.134v.134c0 .317.037.616.111.897.075.277.186.523.334.738.153.215.342.385.569.51.226.121.49.182.79.182.297 0 .557-.061.78-.182.227-.125.414-.295.563-.51.148-.215.26-.46.334-.738a3.34 3.34 0 00.117-.897v-.134a3.25 3.25 0 00-.117-.885 2.28 2.28 0 00-.34-.744 1.615 1.615 0 00-.563-.516 1.578 1.578 0 00-.785-.187c-.297 0-.559.062-.785.187-.223.125-.41.297-.563.516-.148.215-.26.463-.334.744a3.41 3.41 0 00-.111.885zm7.13-1.887v7.559h-1.089V51.66h.996l.094 1.219zm4.272 1.898v.123c0 .461-.054.89-.164 1.284-.11.39-.27.73-.48 1.02a2.19 2.19 0 01-.768.673 2.22 2.22 0 01-1.049.24c-.402 0-.757-.066-1.066-.199a2.104 2.104 0 01-.785-.58 2.964 2.964 0 01-.516-.914 5.29 5.29 0 01-.258-1.201v-.657c.047-.468.135-.888.264-1.26.129-.37.299-.687.51-.949.215-.265.474-.466.78-.603.304-.14.655-.211 1.054-.211.398 0 .752.078 1.06.234.309.153.569.371.78.657a3 3 0 01.474 1.025c.11.394.164.834.164 1.318zm-1.09.123v-.123a3.78 3.78 0 00-.1-.89 2.25 2.25 0 00-.31-.739 1.48 1.48 0 00-.527-.504 1.5 1.5 0 00-.768-.187 1.69 1.69 0 00-.714.14c-.2.094-.37.221-.51.381-.14.157-.256.337-.346.54a3.1 3.1 0 00-.193.62v1.518c.078.274.187.532.328.774a1.7 1.7 0 00.562.58c.235.144.53.217.885.217.293 0 .545-.061.756-.182a1.53 1.53 0 00.527-.51c.141-.215.245-.46.31-.738.067-.281.1-.58.1-.897zm3.645 1.383l2.924-4.623h1.09V58h-1.09v-4.623L64.04 58h-1.078v-6.34h1.078v4.623zm8.338-4.623V58h-1.09v-6.34h1.09zm2.127 0v.88h-5.303v-.88h5.303zm2.238 4.623l2.924-4.623h1.09V58h-1.09v-4.623L76.744 58h-1.078v-6.34h1.078v4.623z" fill="#2C2C2C"/><path d="M90.813 57.08V58h-4.266v-.92h4.266zm-4.044-7.611V58h-1.13v-8.531h1.13zm8.913 7.447v-3.264c0-.25-.051-.467-.153-.65a.997.997 0 00-.445-.434 1.622 1.622 0 00-.738-.152c-.274 0-.514.047-.721.14a1.255 1.255 0 00-.48.37.809.809 0 00-.17.492H91.89c0-.227.058-.451.175-.674.118-.222.286-.424.504-.603a2.52 2.52 0 01.797-.434c.313-.11.66-.164 1.043-.164.461 0 .867.078 1.219.234.355.157.633.393.832.71.203.312.305.704.305 1.177v2.953c0 .211.017.436.052.674.04.238.096.443.17.615V58h-1.13a2.027 2.027 0 01-.13-.498 4.025 4.025 0 01-.046-.586zm.187-2.76l.012.762h-1.096c-.308 0-.584.025-.826.076-.242.047-.445.12-.61.217a1.03 1.03 0 00-.374.37.979.979 0 00-.13.509c0 .2.046.38.136.545a.98.98 0 00.404.392c.183.094.408.141.674.141.332 0 .625-.07.879-.211.253-.14.455-.313.603-.516.152-.203.234-.4.246-.591l.463.521a1.573 1.573 0 01-.223.545 2.607 2.607 0 01-1.2 1.025 2.33 2.33 0 01-.927.176 2.42 2.42 0 01-1.13-.252 1.933 1.933 0 01-.75-.674 1.784 1.784 0 01-.264-.955c0-.34.066-.638.2-.896a1.73 1.73 0 01.573-.65c.25-.176.551-.31.903-.399.351-.09.744-.135 1.177-.135h1.26zm3.686-1.142V58H98.47v-6.34h1.025l.059 1.354zm-.258 1.576l-.451-.018c.004-.433.068-.834.193-1.2.125-.372.3-.694.527-.968a2.345 2.345 0 011.858-.861c.312 0 .594.043.844.129.25.082.462.215.638.398.18.184.317.422.41.715.094.29.141.643.141 1.06V58h-1.09v-4.166c0-.332-.049-.598-.146-.797a.905.905 0 00-.428-.44 1.536 1.536 0 00-.691-.14c-.27 0-.516.057-.739.17-.218.113-.408.27-.568.469-.156.199-.28.427-.37.685a2.504 2.504 0 00-.128.809zm9.803 2.18V49h1.089v9h-.996l-.093-1.23zm-4.266-1.87v-.123c0-.484.059-.924.176-1.318.121-.399.291-.74.51-1.025.222-.286.486-.504.791-.657a2.248 2.248 0 011.031-.234c.398 0 .746.07 1.043.21.301.138.554.339.761.604.211.262.377.578.499.95.121.37.205.79.251 1.26v.538a5.471 5.471 0 01-.251 1.254 2.976 2.976 0 01-.499.95 2.08 2.08 0 01-.761.603 2.531 2.531 0 01-1.055.205c-.371 0-.711-.08-1.019-.24a2.397 2.397 0 01-.791-.674 3.276 3.276 0 01-.51-1.02 4.496 4.496 0 01-.176-1.283zm1.09-.123v.123c0 .317.031.614.094.891.066.277.168.522.304.732.137.211.311.377.522.498.211.118.463.176.756.176.359 0 .654-.076.884-.228a1.71 1.71 0 00.563-.604c.141-.25.25-.521.328-.814v-1.412a3.125 3.125 0 00-.205-.621 1.907 1.907 0 00-.34-.54 1.474 1.474 0 00-.51-.38 1.648 1.648 0 00-.709-.141c-.297 0-.552.063-.767.188-.211.12-.385.289-.522.503a2.338 2.338 0 00-.304.739 4.015 4.015 0 00-.094.89zm7.131-3.117V58h-1.09v-6.34h1.09zm-1.172-1.681c0-.176.053-.325.158-.446.109-.12.27-.181.48-.181.208 0 .366.06.475.181a.63.63 0 01.17.445.614.614 0 01-.17.434c-.109.117-.267.176-.475.176-.21 0-.371-.059-.48-.176a.64.64 0 01-.158-.434zm3.996 3.035V58h-1.084v-6.34h1.025l.059 1.354zm-.258 1.576l-.451-.018c.004-.433.068-.834.193-1.2a2.99 2.99 0 01.528-.968 2.347 2.347 0 011.857-.861c.313 0 .594.043.844.129.25.082.463.215.638.398.18.184.317.422.411.715.093.29.14.643.14 1.06V58h-1.09v-4.166c0-.332-.048-.598-.146-.797a.9.9 0 00-.428-.44 1.533 1.533 0 00-.691-.14 1.6 1.6 0 00-.738.17c-.219.113-.409.27-.569.469a2.36 2.36 0 00-.369.685 2.504 2.504 0 00-.129.809zm9.914-2.93h.985v6.205c0 .559-.114 1.035-.34 1.43a2.213 2.213 0 01-.95.896c-.402.207-.867.311-1.394.311-.219 0-.477-.035-.774-.105a3.13 3.13 0 01-.867-.346 2.176 2.176 0 01-.709-.65l.569-.645c.265.32.543.543.832.668.293.125.582.187.867.187.344 0 .641-.064.891-.193s.443-.32.58-.574c.14-.25.211-.559.211-.926v-4.863l.099-1.395zm-4.365 3.24v-.123c0-.484.057-.924.17-1.318.117-.399.283-.74.498-1.025a2.235 2.235 0 011.834-.891c.398 0 .746.07 1.043.21.301.138.555.339.762.604.211.262.377.578.498.95.121.37.205.79.252 1.26v.538a5.523 5.523 0 01-.252 1.254 2.954 2.954 0 01-.498.95 2.083 2.083 0 01-.762.603 2.531 2.531 0 01-1.055.205c-.379 0-.722-.08-1.031-.24a2.338 2.338 0 01-.785-.674 3.182 3.182 0 01-.504-1.02 4.644 4.644 0 01-.17-1.283zm1.084-.123v.123c0 .317.031.614.094.891.066.277.166.522.298.732.137.211.311.377.522.498.211.118.463.176.756.176.359 0 .656-.076.89-.228.235-.153.42-.354.557-.604.141-.25.25-.521.328-.814v-1.412a2.87 2.87 0 00-.199-.621 1.907 1.907 0 00-.34-.54 1.465 1.465 0 00-.51-.38 1.688 1.688 0 00-.714-.141c-.297 0-.553.063-.768.188-.211.12-.385.289-.522.503a2.428 2.428 0 00-.298.739 4.015 4.015 0 00-.094.89zm12.199-.123h-2.279v-.92h2.279c.442 0 .799-.07 1.072-.21.274-.141.473-.337.598-.587.129-.25.193-.535.193-.855a1.82 1.82 0 00-.193-.826 1.426 1.426 0 00-.598-.621c-.273-.16-.63-.24-1.072-.24h-2.015V58h-1.131v-8.531h3.146c.645 0 1.19.111 1.635.334.445.222.783.531 1.014.925.23.391.345.838.345 1.342 0 .547-.115 1.014-.345 1.4a2.215 2.215 0 01-1.014.886c-.445.199-.99.298-1.635.298zm7.928 2.262v-3.264c0-.25-.051-.467-.152-.65a1.001 1.001 0 00-.446-.434 1.62 1.62 0 00-.738-.152c-.274 0-.514.047-.721.14a1.253 1.253 0 00-.48.37.804.804 0 00-.17.492h-1.084c0-.227.058-.451.176-.674.117-.222.285-.424.504-.603.222-.184.488-.328.796-.434a3.13 3.13 0 011.043-.164c.461 0 .868.078 1.219.234.356.157.633.393.832.71.203.312.305.704.305 1.177v2.953c0 .211.017.436.053.674.039.238.095.443.17.615V58h-1.131a2 2 0 01-.129-.498 3.917 3.917 0 01-.047-.586zm.187-2.76l.012.762h-1.096c-.308 0-.584.025-.826.076a1.89 1.89 0 00-.609.217.978.978 0 00-.504.879c0 .2.045.38.135.545.09.164.224.295.404.392.184.094.408.141.674.141a1.822 1.822 0 001.482-.727c.153-.203.235-.4.246-.591l.463.521a1.566 1.566 0 01-.222.545 2.639 2.639 0 01-1.202 1.025 2.326 2.326 0 01-.925.176c-.43 0-.807-.084-1.131-.252a1.923 1.923 0 01-.75-.674 1.782 1.782 0 01-.264-.955c0-.34.066-.638.199-.896.133-.262.325-.479.575-.65.25-.176.55-.31.902-.399.351-.09.744-.135 1.178-.135h1.259zm6.709-2.496h.985v6.205c0 .559-.114 1.035-.34 1.43a2.216 2.216 0 01-.949.896c-.403.207-.868.311-1.395.311a3.42 3.42 0 01-.773-.105 3.118 3.118 0 01-.867-.346 2.156 2.156 0 01-.709-.65l.568-.645c.265.32.543.543.832.668.293.125.582.187.867.187.344 0 .641-.064.891-.193s.443-.32.58-.574c.14-.25.211-.559.211-.926v-4.863l.099-1.395zm-4.365 3.24v-.123c0-.484.057-.924.17-1.318.117-.399.283-.74.498-1.025a2.235 2.235 0 011.834-.891c.398 0 .746.07 1.043.21.301.138.555.339.762.604.211.262.377.578.498.95.121.37.205.79.252 1.26v.538a5.523 5.523 0 01-.252 1.254 2.954 2.954 0 01-.498.95 2.083 2.083 0 01-.762.603 2.528 2.528 0 01-1.055.205c-.379 0-.722-.08-1.031-.24a2.348 2.348 0 01-.785-.674 3.182 3.182 0 01-.504-1.02 4.644 4.644 0 01-.17-1.283zm1.084-.123v.123c0 .317.031.614.094.891a2.4 2.4 0 00.299.732c.136.211.31.377.521.498.211.118.463.176.756.176.359 0 .656-.076.891-.228a1.65 1.65 0 00.556-.604c.141-.25.25-.521.328-.814v-1.412a2.87 2.87 0 00-.199-.621 1.907 1.907 0 00-.34-.54 1.46 1.46 0 00-.509-.38 1.696 1.696 0 00-.715-.141c-.297 0-.553.063-.768.188-.211.12-.385.289-.521.503a2.404 2.404 0 00-.299.739 4.015 4.015 0 00-.094.89zm8.543 3.34c-.441 0-.842-.074-1.201-.222a2.72 2.72 0 01-.92-.64 2.845 2.845 0 01-.586-.972 3.56 3.56 0 01-.205-1.23v-.246c0-.516.076-.975.228-1.377.153-.407.36-.75.622-1.032a2.66 2.66 0 01.89-.638 2.557 2.557 0 011.031-.217c.454 0 .844.078 1.172.234.332.157.604.375.815.657.211.277.367.605.469.984.101.375.152.785.152 1.23v.487h-4.735v-.885h3.651v-.082a2.701 2.701 0 00-.176-.82 1.477 1.477 0 00-.469-.657c-.215-.172-.507-.257-.879-.257a1.472 1.472 0 00-1.212.615 2.29 2.29 0 00-.346.744 3.77 3.77 0 00-.123 1.014v.246c0 .3.041.584.123.85.086.261.209.492.369.69.164.2.361.356.592.47.234.113.5.17.797.17.382 0 .707-.079.972-.235.266-.156.498-.365.698-.627l.656.522a3.044 3.044 0 01-.522.591 2.47 2.47 0 01-.779.457 3.018 3.018 0 01-1.084.176z" fill="#F36161"/><defs><filter id="filter0_d_334_2190" x="0" y="0" width="208" height="96.004" filterUnits="userSpaceOnUse" color-interpolation-filters="sRGB"><feFlood flood-opacity="0" result="BackgroundImageFix"/><feColorMatrix in="SourceAlpha" values="0 0 0 0 0 0 0 0 0 0 0 0 0 0 0 0 0 0 127 0" result="hardAlpha"/><feOffset dy="4"/><feGaussianBlur stdDeviation="7"/><feComposite in2="hardAlpha" operator="out"/><feColorMatrix values="0 0 0 0 0.188906 0 0 0 0 0.224608 0 0 0 0 0.4875 0 0 0 0.2 0"/><feBlend in2="BackgroundImageFix" result="effect1_dropShadow_334_2190"/><feBlend in="SourceGraphic" in2="effect1_dropShadow_334_2190" result="shape"/></filter></defs></svg>