<svg width="30" height="30" fill="none" xmlns="http://www.w3.org/2000/svg"><path fill-rule="evenodd" clip-rule="evenodd" d="M7.332 4.196c-.376.096-1.065.425-1.532.731-.466.307-1.062 1.071-1.324 1.7C4.126 7.469 4 9.709 4 15.145c0 5.436.125 7.676.476 8.519.262.628.885 1.41 1.385 1.74.79.519 1.972.596 9.139.596 7.058 0 8.356-.082 9.11-.577.483-.318 1.106-1.019 1.384-1.559.398-.77.506-2.66.506-8.824 0-7.59-.026-7.883-.798-9.034-.456-.68-1.316-1.37-2.008-1.608-.79-.272-3.639-.41-8.194-.397-3.841.011-7.292.1-7.668.195zm11.16 3.451c.576.242 1.582.965 2.235 1.606.654.64 1.475 1.796 1.826 2.566.355.78.642 2.22.646 3.25.004 1.017-.236 2.435-.534 3.151-.298.716-1.044 1.828-1.659 2.471-.614.643-1.733 1.487-2.486 1.875-.872.451-2.074.713-3.317.724-1.072.009-2.303-.098-2.735-.236-.722-.232-.786-.464-.786-2.855v-2.603H9.45c-1.713 0-2.282-.128-2.444-.553-.117-.305-.212-1.023-.212-1.596 0-.573.173-1.733.385-2.577.212-.844.935-2.179 1.607-2.966.671-.786 1.688-1.672 2.26-1.968.572-.297 1.695-.661 2.496-.81.802-.149 2.008-.191 2.68-.095.672.097 1.694.374 2.27.616zm-6.11 2.311c-1.026.53-1.84 1.296-2.35 2.211-.43.77-.785 1.844-.788 2.386-.005.893.096.975 1.077.875.914-.092 1.156-.327 1.558-1.51.262-.77.813-1.677 1.226-2.014.525-.428 1.367-.612 2.807-.612 2.052 0 2.056.002 2.056 1.05 0 1.004-.066 1.05-1.501 1.05-.826 0-1.69.19-1.921.42-.23.232-.419.705-.419 1.051 0 .347.118.612.262.59.144-.024 1.008-.024 1.92 0 1.595.039 1.66.08 1.66 1.074 0 1.011-.042 1.035-2.009 1.137l-2.008.105v3.152l1.625-.02c1.213-.015 1.943-.263 2.881-.98.692-.53 1.52-1.466 1.842-2.082.322-.616.585-1.829.585-2.696 0-.866-.264-2.08-.585-2.695-.322-.616-1.142-1.546-1.822-2.066-.817-.625-1.797-.996-2.882-1.092-1.238-.11-2.03.055-3.214.666z" fill="#78C6D0"/></svg>