<svg width="64" height="64" fill="none" xmlns="http://www.w3.org/2000/svg"><path opacity=".4" d="M16 5.333h32c5.891 0 10.667 4.776 10.667 10.667v32c0 5.891-4.776 10.667-10.667 10.667H16C10.11 58.667 5.334 53.89 5.334 48V16c0-5.891 4.775-10.667 10.666-10.667z" fill="#5863B4"/><path d="M45.333 26.667a2.667 2.667 0 11-5.333 0 2.667 2.667 0 015.333 0zm-21.333 0a2.667 2.667 0 11-5.333 0 2.667 2.667 0 015.333 0z" fill="#5863B4"/><path fill-rule="evenodd" clip-rule="evenodd" d="M25.319 38.496a2 2 0 00-2.648 2.999L24 40c-1.329 1.495-1.33 1.494-1.329 1.495l.003.002.003.003.006.005.017.015.047.04a10.049 10.049 0 00.658.499c.433.3 1.054.69 1.848 1.074A15.44 15.44 0 0032 44.667c2.862 0 5.16-.764 6.748-1.534a13.785 13.785 0 001.847-1.075 10.085 10.085 0 00.658-.498l.047-.04.017-.015.006-.005.003-.003S41.33 41.495 40 40l1.329 1.495a2 2 0 00-2.648-2.999l-.002.002-.062.05a6.048 6.048 0 01-.306.227 9.782 9.782 0 01-1.309.759A11.441 11.441 0 0132 40.667c-2.138 0-3.84-.57-5.002-1.133a9.784 9.784 0 01-1.309-.76 5.988 5.988 0 01-.366-.274l-.004-.004zm13.362 0l-.002.002-.003.003-.002.002.007-.007z" fill="#5863B4"/></svg>