<svg width="1147" height="667" fill="none" xmlns="http://www.w3.org/2000/svg"><path d="M33.626 72.182C109.185 49.498 173.133 40.16 241.117 84.64c30.915 20.236 56.886 50.145 94.231 58.773 49.449 11.45 104.437-20.592 145.817-43.098 22.806-12.378 46.364-35.773 71.207-44.104 18.613-6.259 33.942-.593 51.902 6.297 48.995 18.776 90.117 42.269 143.187 48.962C858.98 125.546 1034.15 114.707 1091.06.912c52.85 53.6 82.34 147.555 22.47 209.427-29.93 30.917-133.854 40.058-109.13 99.462 8.47 20.335 29.04 34.273 38.47 54.371 10.82 23.118 6.61 45.96 3.48 70.48-11.47 90.045 20.77 156.794 70.38 232.052-62.62-18.361-102.7-51.133-157.091-82.918-41.537-24.323-76.251-20.611-119.173 0-51.013 24.322-92.689 82.326-152.127 82.108-48.085-.217-95.893-25.526-138.954-43.966-43.06-18.439-99.077-48.132-148.25-38.734-45.098 8.568-71.84 53.6-116.305 67.973C192.063 681.195 92.966 623.231.178 617.901c1.266-55.121 20.789-87.795 55.997-128.622 49.984-57.944 127.303-125.008 41.953-188.579-35.604-26.455-126.591-55.535-86.359-114.19 10.187-14.885 30.54-20.512 41.538-34.233 25.674-32.279 3.837-51.646-19.681-80.095z" stroke="#5863B4" stroke-opacity=".5" stroke-width=".25" stroke-linecap="round" stroke-linejoin="round"/><path d="M.95 592.473c85.785 7.206 178.671 43.867 262.32 8.173 41.834-17.768 66.361-48.329 114.268-50.56 50.518-2.35 100.521 17.294 147.578 32.969 42.19 14.057 87.328 32.003 132.525 31.174 61.515-1.126 98.207-52.14 151.296-76.048 42.329-19.071 75.163-14.629 114.94 7.186 52.812 29.022 92.313 52.14 154.443 61.3" stroke="#5863B4" stroke-opacity=".5" stroke-width=".25" stroke-linecap="round" stroke-linejoin="round"/><path d="M3.956 571.348c83.253 9.536 165.993 23.967 246.358-7.423 43.1-16.82 73.185-38.399 121.132-37.234 50.794 1.264 100.086 16.722 148.764 29.732 41.399 11.076 84.717 23.197 128.015 19.742 54.454-4.442 86.3-44.163 134.048-65.86 40.569-18.42 73.918-13.109 112.745 5.646 56.056 27.106 96.546 41.124 160.472 40.867" stroke="#5863B4" stroke-opacity=".5" stroke-width=".25" stroke-linecap="round" stroke-linejoin="round"/><path d="M10.622 552.06c89.01 13.129 163.619 8.39 248.415-20.888 45.652-15.793 79.12-25.882 127.818-20.65 48.302 5.192 95.378 17.452 142.889 27.027 38.472 7.759 78.17 14.55 117.433 9.398 49.628-6.515 79.515-41.282 124.514-58.931 39.145-15.38 69.962-7.009 107.167 8.37 58.193 24.066 102.361 28.271 165.542 18.835" stroke="#5863B4" stroke-opacity=".5" stroke-width=".25" stroke-linecap="round" stroke-linejoin="round"/><path d="M22.352 531.864c52.495 9.594 103.092 14.688 155.489 1.757 34.021-8.391 66.322-22.803 100.066-32.279 92.135-25.843 179.008 9.595 271.142 20.413 35.248 4.127 70.832 5.489 105.803-1.401 43.516-8.568 73.304-38.281 114.446-51.646 37.305-12.122 66.836.177 101.767 12.734 60.448 21.716 109.106 15.793 170.745-1.422" stroke="#5863B4" stroke-opacity=".5" stroke-width=".25" stroke-linecap="round" stroke-linejoin="round"/><path d="M40.51 507.837c54.928 12.339 105.03 18.736 158.95.316 35.604-12.181 68.043-30.719 105.565-37.787 89.405-16.82 177.643 33.562 268.235 33.681 31.69.04 63.227-4.386 93.677-13.149 38.59-11.056 72.236-39.031 111.361-45.565 34.575-5.765 61.673 12.023 93.242 22.289 60.823 19.742 114.129 3.948 172.66-18.637" stroke="#5863B4" stroke-opacity=".5" stroke-width=".25" stroke-linecap="round" stroke-linejoin="round"/><path d="M66.46 477.631c54.474 15.103 103.568 24.836 156.795 1.323 32.123-14.195 59.933-34.944 95.695-39.801 55.166-7.502 104.28 19.999 156.261 33.128 40.054 10.148 81.631 14.925 122.635 8.193 32.756-5.37 63.118-18.637 93.499-31.331 30.382-12.694 66.322-36.129 100.047-33.759 27.89 1.974 51.131 21.321 76.113 31.686 63.137 26.198 122.081.888 180.645-26.593" stroke="#5863B4" stroke-opacity=".5" stroke-width=".25" stroke-linecap="round" stroke-linejoin="round"/><path d="M101.629 438.443c50.221 17.452 98.365 33.029 146.766 3.593 26.565-16.189 46.463-38.281 79.555-40.117 55.68-3.08 108.393 36.919 161.74 49.179 42.863 9.871 86.517 10.305 128.094-5.114 53.406-19.841 126.255-98.85 186.544-74.014 25.278 10.404 42.882 35.694 66.697 49.001 60.487 33.759 123.941.276 179.205-28.666" stroke="#5863B4" stroke-opacity=".5" stroke-width=".25" stroke-linecap="round" stroke-linejoin="round"/><path d="M135.611 385.77c43.061 13.385 84.341 26.317 128.015 9.575 23.439-8.983 40.509-21.716 66.935-20.256 50.874 2.843 100.877 33.01 151.454 41.933 43.852 7.739 87.605 9.2 130.666-3.494 56.115-16.564 132.525-92.552 191.766-76.067 25.357 7.067 44.445 30.798 67.251 42.84 58.667 30.838 114.268 10.464 171.592-14.727" stroke="#5863B4" stroke-opacity=".5" stroke-width=".25" stroke-linecap="round" stroke-linejoin="round"/><path d="M136.481 345.239c39.362 9.062 78.051 17.669 118.541 12.438 23.735-3.06 43.97-7.996 68.28-4.304 91.976 13.958 175.229 56.246 271.122 38.043 32.182-6.12 62.069-19.742 91.324-33.878 27.434-13.345 60.981-39.484 92.51-40.175 30.441-.691 58.232 22.901 85.053 33.917 57.124 23.474 107.642 11.155 164.309-9.437" stroke="#5863B4" stroke-opacity=".5" stroke-width=".25" stroke-linecap="round" stroke-linejoin="round"/><path d="M114.585 313.908c63.117 7.364 128.312 7.245 190.579 20.275 85.785 17.966 174.517 46.493 263.25 41.459 31.193-1.757 60.032-10.029 88.653-22.289 31.054-13.346 61.219-39.86 94.409-45.565 30.896-5.291 60.665 9.042 89.702 17.432 59.992 17.314 109.066 12.458 169.432-5.074" stroke="#5863B4" stroke-opacity=".5" stroke-width=".25" stroke-linecap="round" stroke-linejoin="round"/><path d="M79.852 288.598c155.786-1.678 305.598 57.668 460.237 74.212 28.463 3.04 54.731.592 81.73-9.26 35.169-12.852 61.714-41.182 96.506-52.909 34.358-11.609 69.566-3.949 104.339 1.737 62.148 10.187 114.426 10.602 176.891-2.764" stroke="#5863B4" stroke-opacity=".5" stroke-width=".25" stroke-linecap="round" stroke-linejoin="round"/><path d="M42.468 266.21c49.786-6.989 95.418-8.509 143.641 7.305 32.498 10.661 63.058 26.455 96.565 34.075 41.538 9.477 85.054 5.923 127.026 12.951 36.158 5.923 69.843 18.598 105.031 28.094 24.33 6.594 46.641 9.989 71.406 3.139 41.003-11.352 66.44-45.645 104.536-62.288 36.632-15.991 77.142-15.438 116.108-12.437 66.5 5.113 128.43 10.424 195.189 1.974" stroke="#5863B4" stroke-opacity=".5" stroke-width=".25" stroke-linecap="round" stroke-linejoin="round"/><path d="M12.58 243.625c56.017-14.965 103.607-15.3 157.487 7.403 31.332 13.188 60.21 32.437 93.262 41.459 46.78 12.793 93.836-.454 141.268 6.496 33.27 4.856 62.247 17.768 92.965 30.324 79.832 32.437 110.985-27.521 179.166-59.642 105.09-49.514 237.042-10.463 348.402-11.964" stroke="#5863B4" stroke-opacity=".5" stroke-width=".25" stroke-linecap="round" stroke-linejoin="round"/><path d="M.297 217.703c54.157-21.598 98.424-24.283 151.494 2.172 37.166 18.518 70.713 47.382 110.886 59.543 45.256 13.82 83.569-5.923 129.004-6.061 38.293-.138 68.121 13.03 102.558 27.541 24.962 10.522 44.92 18.913 71.979 9.871 43.892-14.629 75.895-57.983 118.798-77.153 121.883-54.47 265.762-15.143 391.764.73" stroke="#5863B4" stroke-opacity=".5" stroke-width=".25" stroke-linecap="round" stroke-linejoin="round"/><path d="M6.923 193.42c60.21-22.664 106.653-23.691 163.916 7.897 35.089 19.367 66.777 47.204 105.98 58.299 47.571 13.465 90.988-11.391 138.598-13.089 30.481-1.066 57.361 5.804 85.923 15.241 76.726 25.31 116.998-25.665 188.72-47.796 133.771-41.341 281.744-6.258 417.87 1.816" stroke="#5863B4" stroke-opacity=".5" stroke-width=".25" stroke-linecap="round" stroke-linejoin="round"/><path d="M22.826 175.652c61.93-21.855 109.956-23.987 167.595 10.404 33.843 20.177 63.928 49.356 102.459 60.669 47.927 14.135 90.79-12.339 137.569-19.526 27.356-4.225 52.199-2.744 79.12 1.975 70.455 12.22 118.679-21.5 187.374-34.984 142.158-27.876 289.617-.671 433.177-7.107" stroke="#5863B4" stroke-opacity=".5" stroke-width=".25" stroke-linecap="round" stroke-linejoin="round"/><path d="M42.072 161.181c63.454-21.065 113.2-24.165 170.917 13.148 32.459 21.006 60.804 51.469 98.583 63.176 67.707 20.966 137.035-37.728 207.075-37.313 63.533.375 119.787-16.525 182.924-23.928 146.708-17.215 295.729 2.409 441.469-24.796" stroke="#5863B4" stroke-opacity=".5" stroke-width=".25" stroke-linecap="round" stroke-linejoin="round"/><path d="M58.707 146.887c60.803-19.031 112.943-25.665 168.445 10.503 32.637 21.283 60.012 55.476 97.554 68.724 71.465 25.211 135.136-41.637 203.139-54.351 58.766-10.997 126.038-9.319 185.417-12.556 143.364-7.897 296.218 3.948 432.798-47.145" stroke="#5863B4" stroke-opacity=".5" stroke-width=".25" stroke-linecap="round" stroke-linejoin="round"/><path d="M66.816 129.317c62.524-18.815 117.71-27.067 174.498 11.055 32.044 21.52 58.509 56.622 95.834 69.652 75.539 26.356 134.503-47.106 199.776-69.691 16.536-5.725 30.955-4.541 48.362-3.001 44.86 3.949 88.336 5.923 133.514 5.923 136.876-.454 300.49 4.541 419.99-71.468" stroke="#5863B4" stroke-opacity=".5" stroke-width=".25" stroke-linecap="round" stroke-linejoin="round"/><path d="M60.408 105.527c69.229-20.532 128.054-28.982 189.886 14.333 30.936 21.717 56.966 54.193 94.548 64.735 79.752 22.349 135.156-54.785 200.33-81.773 16.655-6.89 30.402-3.948 47.689 0 42.863 9.753 82.838 21.204 127.224 24.066 128.134 8.154 306.295 6.634 400.405-93.203" stroke="#5863B4" stroke-opacity=".5" stroke-width=".25" stroke-linecap="round" stroke-linejoin="round"/><path d="M1076.02 28.73c44.15 51.784 53.63 131.859-3.48 179.655-37.18 31.153-131.692 45.23-107.62 111.485 8.743 24.026 28.958 42.426 35.6 67.697 5.74 22.012 1.27 44.913-1.064 67.124-8.446 79.956 30.504 136.873 76.864 199.891" stroke="#5863B4" stroke-opacity=".5" stroke-width=".25" stroke-linecap="round" stroke-linejoin="round"/><path d="M1052.62 52.361c35.61 50.264 29.79 115.414-21.63 153.694-41.859 31.173-128.257 48.132-101.495 118.356 7.912 20.571 23.182 37.688 29.669 58.95 7.695 25.429 4.134 49.356 1.86 75.278-6.587 75.337 35.485 123.489 81.746 180.465" stroke="#5863B4" stroke-opacity=".5" stroke-width=".25" stroke-linecap="round" stroke-linejoin="round"/><path d="M1022.24 71.985c34.34 47.382 3.48 104.871-38.568 133.182-45.593 30.66-112.646 49.81-86.478 119.303 9.772 25.961 29.552 45.407 34.14 74.034 3.244 20.157-1.087 40.689-2.907 60.747-6.27 69.414 42.309 113.124 86.063 162.717" stroke="#5863B4" stroke-opacity=".5" stroke-width=".25" stroke-linecap="round" stroke-linejoin="round"/><path d="M986.283 87.759c19.777 39.998-3.501 85.169-37.206 108.583-32.004 22.21-70.456 27.225-86.853 69.612-7.912 20.67-2.73 35.97 6.072 55.476 10.899 24.125 29.195 41.459 34.793 68.407 5.241 25.171-1.978 49.139-3.027 74.31-2.65 59.227 52.674 100.825 89.939 140.586" stroke="#5863B4" stroke-opacity=".5" stroke-width=".25" stroke-linecap="round" stroke-linejoin="round"/><path d="M946.209 99.822c23.834 106.292-170.364 113.597-103.924 216.534 14.637 22.703 34.18 40.373 39.738 68.17 4.787 23.888-3.204 46.513-4.965 70.046-4.351 58.102 53.821 96.343 90.671 134.248" stroke="#5863B4" stroke-opacity=".5" stroke-width=".25" stroke-linecap="round" stroke-linejoin="round"/><path d="M903.464 108.35c-3.065 40.966-18.612 63.808-49.944 88.091-42.388 32.831-78.011 65.604-35.821 114.13 14.993 17.255 34.298 31.944 42.329 54.292 10.424 29.061-2.374 55.594-3.699 84.517-2.512 54.824 54.691 90.677 89.761 126.627" stroke="#5863B4" stroke-opacity=".5" stroke-width=".25" stroke-linecap="round" stroke-linejoin="round"/><path d="M859.533 113.444c-13.45 34.845-20.472 57.253-48.302 82.918-39.817 36.839-63.553 68.98-16.081 108.918 17.03 14.353 38.314 26.672 47.472 48.231 12.56 29.396-2.493 57.51-4.906 86.866-4.608 55.832 50.103 89.572 85.865 127.339" stroke="#5863B4" stroke-opacity=".5" stroke-width=".25" stroke-linecap="round" stroke-linejoin="round"/><path d="M815.86 115.3c-17.802 26.533-21.402 56.897-43.754 80.943-39.915 42.94-52.337 72.06 1.741 105.424 23.479 14.491 51.171 24.659 57.678 55.18 5.697 26.771-10.444 55.121-13.074 81.043-5.479 53.778 47.155 90.361 80.167 127.674" stroke="#5863B4" stroke-opacity=".5" stroke-width=".25" stroke-linecap="round" stroke-linejoin="round"/><path d="M773.907 114.016c-22.273 25.132-27.791 61.893-44.406 90.697-28.483 49.356-33.883 75.021 23.419 96.283 19.107 7.127 46.423 13.82 58.014 33.01 17.051 28.192-2.769 64.972-9.613 93.263-15.191 62.938 30.145 95.671 68.379 143.823" stroke="#5863B4" stroke-opacity=".5" stroke-width=".25" stroke-linecap="round" stroke-linejoin="round"/><path d="M735.098 109.772c-28.562 28.448-31.054 68.624-44.405 104.634-7.2 19.427-28.167 42.624-15.31 64.301 10.938 18.459 38.669 21.914 57.065 25.823 18.909 3.949 49.766 6.594 62.544 24.5 19.562 27.403-5.539 70.382-13.747 97.686-20.829 69.295 13.846 100.311 53.999 159.261" stroke="#5863B4" stroke-opacity=".5" stroke-width=".25" stroke-linecap="round" stroke-linejoin="round"/><path d="M700.938 102.724c-32.379 37.194-34.555 70.046-44.92 115.789-5.577 24.678-26.208 57.134-6.27 80.016 12.916 14.826 45.355 13.424 62.01 14.688 22.055 1.678 54.157-.632 67.805 20.295 17.506 26.869-11.868 73.442-21.56 99.6-7.18 19.269-17.05 40.946-16.852 62.11.396 39.781 34.516 83.924 52.595 116.262" stroke="#5863B4" stroke-opacity=".5" stroke-width=".25" stroke-linecap="round" stroke-linejoin="round"/><path d="M672.792 92.97c-43.516 49.238-44.208 91.132-53.703 152.827-2.709 17.649-17.01 49.356-5.419 66.591 15.527 23.197 53.524 17.096 76.706 16.188 19.78-.789 60.368-8.667 72.988 13.307 11.017 19.15-19.78 75.021-25.497 88.959-12.382 29.613-31.469 61.754-33.348 94.585-2.334 42.545 23.083 86.63 39.203 123.943" stroke="#5863B4" stroke-opacity=".5" stroke-width=".25" stroke-linecap="round" stroke-linejoin="round"/><path d="M636.634 76.644c-34.456 61.201-36.632 115.848-43.654 183.801-1.76 17.196-15.171 51.785-3.342 68.151 15.349 21.243 52.198 15.004 74.075 14.096 18.969-.79 58.746-8.311 71.207 12.438 11.216 18.577-16.654 71.921-22.193 85.642-12.184 30.127-31.904 62.505-34.693 95.612-3.739 44.401 22.173 87.953 39.955 126.352" stroke="#5863B4" stroke-opacity=".5" stroke-width=".25" stroke-linecap="round" stroke-linejoin="round"/><path d="M609.477 64.74c-26.881 68.091-32.182 131.938-38.61 203.918-1.543 17.156-14.064 52.969-2.235 69.256 14.854 20.434 49.785 15.557 71.207 15.617 19.186 0 57.065-5.469 69.229 15.162 11.413 19.249-13.588 67.124-19.878 81.99-12.363 29.199-33.923 59.997-38.512 91.94-6.349 44.341 19.305 85.761 37.938 123.725" stroke="#5863B4" stroke-opacity=".5" stroke-width=".25" stroke-linecap="round" stroke-linejoin="round"/><path d="M589.44 56.96c-20.967 71.33-30.501 140.981-37.721 214.679-1.74 17.63-13.549 52.87-1.978 69.79 14.321 20.769 46.503 17.59 68.043 19.9 20.096 2.172 55.107-.888 67.074 20.67 11.393 20.592-10.365 61.537-18.277 78.141-12.956 27.402-37.147 54.943-44.149 84.754-10.048 42.781 14.954 80.765 33.923 117.072" stroke="#5863B4" stroke-opacity=".5" stroke-width=".25" stroke-linecap="round" stroke-linejoin="round"/><path d="M574.446 53.111c-16.437 72.139-30.955 144.001-40.034 217.462-8.347 67.401-5.617 81.122 62.445 95.83 20.927 4.501 53.287 5.547 64.581 28.054 11.097 22.131-7.121 55.93-17.248 74.211-14.024 25.33-41.063 48.033-50.913 75.238-14.499 40.058 9.593 73.718 28.602 107.833" stroke="#5863B4" stroke-opacity=".5" stroke-width=".25" stroke-linecap="round" stroke-linejoin="round"/><path d="M562.698 52.934c-12.679 69.729-31.648 138.196-43.615 207.946-4.094 23.849-15.824 57.726-.89 79.798 12.145 17.946 38.887 22.112 57.797 28.311 68.121 22.329 82.917 62.485 33.625 122.403-13.311 16.169-34.891 28.962-45.058 47.065-21.066 37.511 1.226 65.585 21.323 99.305" stroke="#5863B4" stroke-opacity=".5" stroke-width=".25" stroke-linecap="round" stroke-linejoin="round"/><path d="M552.194 56.21c-10.088 69.099-33.626 131.959-49.45 199.497-14.755 63.689-6.25 85.761 51.428 113.657 58.153 28.074 86.319 71.606 30.679 124.792-15.033 14.372-38.433 23.098-51.052 39.188-26.09 33.207-5.4 56.444 15.349 88.584" stroke="#5863B4" stroke-opacity=".5" stroke-width=".25" stroke-linecap="round" stroke-linejoin="round"/><path d="M540.999 62.686c-7.813 67.618-33.052 118.849-53.94 181.768-21.619 65.15-7.417 87.775 43.991 123.271 44.623 30.799 90.018 75.594 32.36 123.588-17.545 14.609-41.538 19.979-58.707 34.371-33.626 28.212-14.42 48.606 8.11 80.746" stroke="#5863B4" stroke-opacity=".5" stroke-width=".25" stroke-linecap="round" stroke-linejoin="round"/><path d="M527.173 72.123c-3.6 42.88-9.297 77.588-29.433 115.671-9.454 17.768-21.876 33.956-30.065 52.534-26.386 59.879-6.053 86.195 37.582 124.12 36.691 31.943 88.89 84.734 30.006 125.7-19.226 13.385-43.753 16.228-62.782 29.021-36.75 24.737-19.779 42.347 4.669 74.093" stroke="#5863B4" stroke-opacity=".5" stroke-width=".25" stroke-linecap="round" stroke-linejoin="round"/><path d="M508.758 84.304c-1.978 42.249-5.341 74.192-29.453 109.393-10.562 15.438-25.14 27.974-34.337 44.479-29.987 53.798-5.598 83.372 30.935 121.593 31.371 32.832 84.104 89.354 28.285 126.351-19.878 13.188-44.366 15.538-65.075 26.613-40.529 21.717-20.987 42.209 3.797 71.783" stroke="#5863B4" stroke-opacity=".5" stroke-width=".25" stroke-linecap="round" stroke-linejoin="round"/><path d="M483.815 98.953c0 41.261-.534 71.605-28.186 103.509-11.452 13.188-27.692 22.151-37.799 36.662-32.597 46.414-5.637 78.653 24.428 114.841 27.098 32.614 77.576 89.769 27.514 124.89-19.503 13.682-44.643 16.406-65.056 28.094-41.795 23.927-20.393 45.407 6.349 75.218" stroke="#5863B4" stroke-opacity=".5" stroke-width=".25" stroke-linecap="round" stroke-linejoin="round"/><path d="M450.427 115.872c2.314 38.083 5.578 69.098-23.34 97.271-13.668 13.286-32.063 19.328-44.248 34.588-29.452 36.958-3.422 68.941 20.67 99.62 27.217 34.727 70.001 87.736 23.736 123.706-18.158 14.116-42.507 19.091-60.685 33.128-39.183 30.225-11.294 55.278 15.824 84.122" stroke="#5863B4" stroke-opacity=".5" stroke-width=".25" stroke-linecap="round" stroke-linejoin="round"/><path d="M406.615 134.805c4.688 34.51 12.501 67.934-16.319 93.5-14.795 13.129-36.573 15.419-49.311 31.588-23.736 30.304-1.365 54.982 17.426 79.996 21.758 29.06 53.762 67.894 35.762 105.819-12.402 26.158-48.282 37.214-66.302 58.753-33.626 40.136.396 69.908 29.433 100.449" stroke="#5863B4" stroke-opacity=".5" stroke-width=".25" stroke-linecap="round" stroke-linejoin="round"/><path d="M372.455 144.479c6.23 32.792 15.823 64.775-12.046 89.571-14.44 12.833-35.881 14.511-48.441 30.383-23.479 29.614-.851 47.481 18.89 69.553 26.544 29.613 44.583 65.762 26.861 105.345-13.332 29.811-43.516 47.816-60.487 75.021-28.8 45.941 1.721 79.127 31.371 114.841" stroke="#5863B4" stroke-opacity=".5" stroke-width=".25" stroke-linecap="round" stroke-linejoin="round"/><path d="M343.695 144.913c7.516 32.003 18.237 62.287-9.415 86.728-14.539 12.853-36.316 14.156-49.015 30.088-24.586 30.837 1.76 46.039 22.569 67.124 31.47 31.588 37.364 68.545 19.602 110.083-13.648 31.904-41.815 54.292-57.698 84.754-25.318 48.487.751 82.662 29.867 121.969" stroke="#5863B4" stroke-opacity=".5" stroke-width=".25" stroke-linecap="round" stroke-linejoin="round"/><path d="M318.852 138.122c9.019 33.562 19.779 61.201-9.693 85.919-13.845 11.667-33.348 13.523-46.186 27.323-30.342 32.595 2.117 50.975 25.259 72.928 41.538 39.485 31.806 89.256 4.253 136.341-13.846 23.691-33.626 43.808-46.166 68.269-25.496 49.356-4.095 83.708 24.052 126.253" stroke="#5863B4" stroke-opacity=".5" stroke-width=".25" stroke-linecap="round" stroke-linejoin="round"/><path d="M296.5 126c10.187 33.878 20.789 59.859-9.079 84.714-14.558 12.122-34.852 14.136-48.322 28.351-33.626 35.417 7.695 57.785 31.964 81.22 46.147 44.578 29.809 97.448-1.483 148.067-14.42 23.415-33.863 43.769-46.641 68.19-24.547 46.948-7.18 80.174 18 122.522" stroke="#5863B4" stroke-opacity=".5" stroke-width=".25" stroke-linecap="round" stroke-linejoin="round"/><path d="M275.197 110.542c11.374 34.49 21.56 58.793-8.822 84.043-15.27 12.675-36.513 15.044-50.735 29.831-37.067 38.537 14.182 66.867 39.56 92.394 50.755 50.817 30.599 106.214-6.725 160.841-15.251 22.309-34.675 41.953-47.967 65.564-24.21 43.039-10.898 74.251 10.681 115.197" stroke="#5863B4" stroke-opacity=".5" stroke-width=".25" stroke-linecap="round" stroke-linejoin="round"/><path d="M253.459 93.583c12.659 35.102 22.411 57.964-8.426 83.727-15.962 13.326-38.136 16.169-53.05 31.588-40.469 41.854 21.125 76.995 47.927 104.812 55.384 57.253 33.25 115.473-11.67 173.575-45.909 59.425-81.77 89.986-46.779 166.981" stroke="#5863B4" stroke-opacity=".5" stroke-width=".25" stroke-linecap="round" stroke-linejoin="round"/><path d="M229.881 77.355c14.064 35.536 23.598 57.134-7.496 83.549-16.477 13.998-39.56 17.393-54.909 33.562-43.357 45.112 28.206 86.867 56.392 116.737 59.735 63.176 36.613 124.811-16.516 185.302-45.039 51.152-82.739 79.305-55.858 151.266" stroke="#5863B4" stroke-opacity=".5" stroke-width=".25" stroke-linecap="round" stroke-linejoin="round"/><path d="M203.001 63.515c15.626 35.418 25.456 56.187-5.539 83.372-16.714 14.669-40.291 18.637-55.977 35.319-45.355 48.251 35.07 95.119 64.641 126.569 64.087 68.111 39.243 133.32-21.441 195.015-43.298 44.045-82.067 69.592-63.296 136.222" stroke="#5863B4" stroke-opacity=".5" stroke-width=".25" stroke-linecap="round" stroke-linejoin="round"/><path d="M171.373 54.098c17.406 34.727 28.324 54.864-2.117 82.918-16.536 15.241-40.37 19.743-55.898 36.978-46.087 51.113 41.538 100.35 72.315 132.51 68.656 71.586 39.323 139.618-26.683 201.728-41.023 38.616-78.98 62.248-67.785 123.666" stroke="#5863B4" stroke-opacity=".5" stroke-width=".25" stroke-linecap="round" stroke-linejoin="round"/><path d="M133.554 51.157c19.285 33.167 32.459 53.008 3.224 82.148-15.824 15.793-39.56 20.749-54.316 38.339-45.177 53.581 47.037 101.219 79.12 133.005 73.779 73.283 34.911 142.145-32.419 204.412-38.63 35.734-72.929 59.069-68.122 115.868" stroke="#5863B4" stroke-opacity=".5" stroke-width=".25" stroke-linecap="round" stroke-linejoin="round"/><path d="M88.1 56.527c21.065 30.541 38.076 50.382 10.918 80.726-14.34 16.011-37.384 21.48-50.854 39.248-42.23 55.417 51.507 96.422 84.361 126.351C273.615 431 17.644 495.202 30.6 619.954" stroke="#5863B4" stroke-opacity=".5" stroke-width=".25" stroke-linecap="round" stroke-linejoin="round"/></svg>