<svg width="30" height="30" fill="none" xmlns="http://www.w3.org/2000/svg"><path fill-rule="evenodd" clip-rule="evenodd" d="M13.594 3.074a9.955 9.955 0 00-1.222.297c-.347.112-.87.319-1.162.46a9.65 9.65 0 00-.846.464c-.173.113-.54.387-.816.609a9.49 9.49 0 00-.88.819c-.207.228-.48.547-.604.709-.125.16-.543.804-.93 1.428-.386.624-.99 1.637-1.343 2.25a90.1 90.1 0 00-1.218 2.205c-.317.6-.672 1.304-.787 1.565-.116.261-.297.768-.404 1.127a11.33 11.33 0 00-.288 1.304A11.59 11.59 0 003 17.658c0 .392.053 1.018.121 1.436.067.408.196.985.287 1.283.09.298.285.81.433 1.14.148.329.439.862.646 1.185.207.323.564.813.793 1.088.229.276.634.684.9.908.267.223.673.533.902.688.23.155.638.396.909.536.27.14.7.331.955.426.254.095.71.23 1.014.3.303.071.814.158 1.135.194a43.509 43.509 0 005.245.128 52.782 52.782 0 002.263-.129c.362-.036.898-.11 1.19-.165.294-.054.801-.19 1.129-.3.327-.111.904-.365 1.282-.565.378-.2.956-.575 1.285-.834.328-.259.757-.642.952-.851.196-.21.558-.66.804-1 .267-.368.61-.963.848-1.467.232-.494.478-1.14.587-1.547.103-.384.217-.922.254-1.195.036-.273.066-.886.066-1.363 0-.48-.043-1.125-.096-1.446a11.942 11.942 0 00-.279-1.199 10.45 10.45 0 00-.459-1.206 29.662 29.662 0 00-.608-1.207 140.48 140.48 0 00-.9-1.63 84.582 84.582 0 00-1.096-1.891 87.196 87.196 0 00-.966-1.565 15.75 15.75 0 00-.835-1.177 9.7 9.7 0 00-.784-.847 13.148 13.148 0 00-.832-.693 10.549 10.549 0 00-1.04-.663 9.754 9.754 0 00-1.255-.555 11.574 11.574 0 00-1.19-.337c-.302-.061-.953-.12-1.504-.133-.644-.016-1.17.007-1.562.07zm2.802 2.376c.301.065.745.199.986.298.24.1.593.27.782.38.19.108.461.278.603.378.142.1.41.315.595.48.186.163.488.48.673.703.184.223.52.699.745 1.058.226.358.623 1.004.883 1.434.26.43.822 1.4 1.247 2.152a47.14 47.14 0 011.147 2.152c.238.499.432 1.02.534 1.435.089.362.176.948.197 1.318.023.402.006.905-.042 1.271-.043.334-.162.87-.263 1.193a8.693 8.693 0 01-.458 1.124 9.657 9.657 0 01-.625 1.022 7.58 7.58 0 01-.73.849c-.207.2-.538.478-.734.616-.196.139-.54.348-.764.466-.224.117-.596.28-.827.362-.231.082-.64.195-.909.25a13.72 13.72 0 01-1.272.17c-.43.038-1.587.087-2.569.108a39.28 39.28 0 01-3.033-.037c-.686-.043-1.488-.121-1.782-.175a7.742 7.742 0 01-1.01-.266 7.892 7.892 0 01-.786-.33 9.958 9.958 0 01-.82-.511 7.38 7.38 0 01-.953-.815 8.322 8.322 0 01-.76-.94 9.967 9.967 0 01-.565-.997 7.895 7.895 0 01-.404-1.071 9.351 9.351 0 01-.226-1.191 6.493 6.493 0 01-.031-1.106c.023-.254.08-.668.125-.919.045-.25.17-.703.275-1.004.106-.302.465-1.065.799-1.696.333-.63.943-1.734 1.356-2.452a74.72 74.72 0 011.394-2.315c.353-.556.802-1.193.997-1.416a7.59 7.59 0 01.857-.799 7.227 7.227 0 011.015-.65 8.49 8.49 0 011.046-.421 7.199 7.199 0 011.034-.228 7.661 7.661 0 011.113-.03c.336.019.858.086 1.16.15zm-4.892 8.355a2.27 2.27 0 00-.435.166c-.109.059-.35.257-.538.441a4.814 4.814 0 00-.57.693 5.534 5.534 0 00-.366.685c-.075.179-.17.458-.21.62-.04.16-.072.513-.07.782.002.34.046.608.144.88.104.288.241.496.522.788.282.294.471.43.726.52.22.08.505.122.789.119.335-.004.529-.046.794-.172.193-.092.475-.286.626-.431.151-.146.35-.408.442-.582.091-.175.208-.507.26-.737a4.27 4.27 0 00.096-.763c0-.19-.043-.571-.097-.848a5.15 5.15 0 00-.281-.916 4.103 4.103 0 00-.378-.67 1.94 1.94 0 00-.455-.41 1.627 1.627 0 00-.511-.19 1.549 1.549 0 00-.488.025zm6.41-.01a2.498 2.498 0 00-.345.153 2.001 2.001 0 00-.412.353 3.439 3.439 0 00-.32.413c-.054.09-.17.376-.26.634-.09.26-.19.692-.222.962a4.421 4.421 0 00-.003.957c.031.255.125.621.21.813.084.192.233.457.33.59.096.132.336.349.532.48.224.152.5.27.746.32a1.7 1.7 0 00.79.002 2.07 2.07 0 00.757-.321 2.44 2.44 0 00.552-.53 3.39 3.39 0 00.297-.565c.057-.152.122-.435.143-.628a3.515 3.515 0 00-.034-.796 4.481 4.481 0 00-.281-.905 6.091 6.091 0 00-.496-.866 3.482 3.482 0 00-.558-.611 3.364 3.364 0 00-.518-.32 2.159 2.159 0 00-.501-.151 1.128 1.128 0 00-.408.016z" fill="#00935C"/></svg>