<svg width="24" height="24" fill="none" xmlns="http://www.w3.org/2000/svg"><path d="M21.47 20.53a.75.75 0 101.06-1.06l-1.06 1.06zm-.44-2.56a.75.75 0 10-1.06 1.06l1.06-1.06zM7 14.75a.75.75 0 000-1.5v1.5zm-5-1.5a.75.75 0 000 1.5v-1.5zm5-3.5a.75.75 0 000-1.5v1.5zm-5-1.5a.75.75 0 000 1.5v-1.5zm13-3.5a.75.75 0 000-1.5v1.5zM2 3.25a.75.75 0 000 1.5v-1.5zm20.53 16.22l-1.5-1.5-1.06 1.06 1.5 1.5 1.06-1.06zM21.25 14c0 2.9-2.35 5.25-5.25 5.25v1.5A6.75 6.75 0 0022.75 14h-1.5zM16 19.25A5.25 5.25 0 0110.75 14h-1.5A6.75 6.75 0 0016 20.75v-1.5zM10.75 14c0-2.9 2.35-5.25 5.25-5.25v-1.5A6.75 6.75 0 009.25 14h1.5zM16 8.75c2.9 0 5.25 2.35 5.25 5.25h1.5A6.75 6.75 0 0016 7.25v1.5zm-9 4.5H2v1.5h5v-1.5zm0-5H2v1.5h5v-1.5zm8-5H2v1.5h13v-1.5z" fill="#5863B4"/></svg>